  0
SECTION
  2
HEADER
  9
$ACADVER
  1
AC1024
  9
$ACADMAINTVER
 70
6
  9
$DWGCODEPAGE
  3
ANSI_1252
  9
$LASTSAVEDBY
  1
ezdxf
  9
$INSBASE
 10
0.0
 20
0.0
 30
0.0
  9
$EXTMIN
 10
1e+20
 20
1e+20
 30
1e+20
  9
$EXTMAX
 10
-1e+20
 20
-1e+20
 30
-1e+20
  9
$LIMMIN
 10
0.0
 20
0.0
  9
$LIMMAX
 10
420.0
 20
297.0
  9
$ORTHOMODE
 70
0
  9
$REGENMODE
 70
1
  9
$FILLMODE
 70
1
  9
$QTEXTMODE
 70
0
  9
$MIRRTEXT
 70
1
  9
$LTSCALE
 40
1.0
  9
$ATTMODE
 70
1
  9
$TEXTSIZE
 40
2.5
  9
$TRACEWID
 40
1.0
  9
$TEXTSTYLE
  7
Standard
  9
$CLAYER
  8
0
  9
$CELTYPE
  6
ByLayer
  9
$CECOLOR
 62
256
  9
$CELTSCALE
 40
1.0
  9
$DISPSILH
 70
0
  9
$DIMSCALE
 40
1.0
  9
$DIMASZ
 40
2.5
  9
$DIMEXO
 40
0.625
  9
$DIMDLI
 40
3.75
  9
$DIMRND
 40
0.0
  9
$DIMDLE
 40
0.0
  9
$DIMEXE
 40
1.25
  9
$DIMTP
 40
0.0
  9
$DIMTM
 40
0.0
  9
$DIMTXT
 40
2.5
  9
$DIMCEN
 40
2.5
  9
$DIMTSZ
 40
0.0
  9
$DIMTOL
 70
0
  9
$DIMLIM
 70
0
  9
$DIMTIH
 70
0
  9
$DIMTOH
 70
0
  9
$DIMSE1
 70
0
  9
$DIMSE2
 70
0
  9
$DIMTAD
 70
1
  9
$DIMZIN
 70
8
  9
$DIMBLK
  1

  9
$DIMASO
 70
1
  9
$DIMSHO
 70
1
  9
$DIMPOST
  1

  9
$DIMAPOST
  1

  9
$DIMALT
 70
0
  9
$DIMALTD
 70
3
  9
$DIMALTF
 40
0.03937007874
  9
$DIMLFAC
 40
1.0
  9
$DIMTOFL
 70
1
  9
$DIMTVP
 40
0.0
  9
$DIMTIX
 70
0
  9
$DIMSOXD
 70
0
  9
$DIMSAH
 70
0
  9
$DIMBLK1
  1

  9
$DIMBLK2
  1

  9
$DIMSTYLE
  2
ISO-25
  9
$DIMCLRD
 70
0
  9
$DIMCLRE
 70
0
  9
$DIMCLRT
 70
0
  9
$DIMTFAC
 40
1.0
  9
$DIMGAP
 40
0.625
  9
$DIMJUST
 70
0
  9
$DIMSD1
 70
0
  9
$DIMSD2
 70
0
  9
$DIMTOLJ
 70
0
  9
$DIMTZIN
 70
8
  9
$DIMALTZ
 70
0
  9
$DIMALTTZ
 70
0
  9
$DIMUPT
 70
0
  9
$DIMDEC
 70
2
  9
$DIMTDEC
 70
2
  9
$DIMALTU
 70
2
  9
$DIMALTTD
 70
3
  9
$DIMTXSTY
  7
Standard
  9
$DIMAUNIT
 70
0
  9
$DIMADEC
 70
0
  9
$DIMALTRND
 40
0.0
  9
$DIMAZIN
 70
0
  9
$DIMDSEP
 70
44
  9
$DIMATFIT
 70
3
  9
$DIMFRAC
 70
0
  9
$DIMLDRBLK
  1

  9
$DIMLUNIT
 70
2
  9
$DIMLWD
 70
-2
  9
$DIMLWE
 70
-2
  9
$DIMTMOVE
 70
0
  9
$DIMFXL
 40
1.0
  9
$DIMFXLON
 70
0
  9
$DIMJOGANG
 40
0.785398163397
  9
$DIMTFILL
 70
0
  9
$DIMTFILLCLR
 70
0
  9
$DIMARCSYM
 70
0
  9
$DIMLTYPE
  6

  9
$DIMLTEX1
  6

  9
$DIMLTEX2
  6

  9
$DIMTXTDIRECTION
 70
0
  9
$LUNITS
 70
2
  9
$LUPREC
 70
4
  9
$SKETCHINC
 40
1.0
  9
$FILLETRAD
 40
10.0
  9
$AUNITS
 70
0
  9
$AUPREC
 70
2
  9
$MENU
  1
.
  9
$ELEVATION
 40
0.0
  9
$PELEVATION
 40
0.0
  9
$THICKNESS
 40
0.0
  9
$LIMCHECK
 70
0
  9
$CHAMFERA
 40
0.0
  9
$CHAMFERB
 40
0.0
  9
$CHAMFERC
 40
0.0
  9
$CHAMFERD
 40
0.0
  9
$SKPOLY
 70
0
  9
$TDCREATE
 40
2460919.754074074
  9
$TDUCREATE
 40
2458532.153996898
  9
$TDUPDATE
 40
2460919.754074074
  9
$TDUUPDATE
 40
2458532.1544311
  9
$TDINDWG
 40
0.0
  9
$TDUSRTIMER
 40
0.0
  9
$USRTIMER
 70
1
  9
$ANGBASE
 50
0.0
  9
$ANGDIR
 70
0
  9
$PDMODE
 70
0
  9
$PDSIZE
 40
0.0
  9
$PLINEWID
 40
0.0
  9
$SPLFRAME
 70
0
  9
$SPLINETYPE
 70
6
  9
$SPLINESEGS
 70
8
  9
$HANDSEED
  5
39D
  9
$SURFTAB1
 70
6
  9
$SURFTAB2
 70
6
  9
$SURFTYPE
 70
6
  9
$SURFU
 70
6
  9
$SURFV
 70
6
  9
$UCSBASE
  2

  9
$UCSNAME
  2

  9
$UCSORG
 10
0.0
 20
0.0
 30
0.0
  9
$UCSXDIR
 10
1.0
 20
0.0
 30
0.0
  9
$UCSYDIR
 10
0.0
 20
1.0
 30
0.0
  9
$UCSORTHOREF
  2

  9
$UCSORTHOVIEW
 70
0
  9
$UCSORGTOP
 10
0.0
 20
0.0
 30
0.0
  9
$UCSORGBOTTOM
 10
0.0
 20
0.0
 30
0.0
  9
$UCSORGLEFT
 10
0.0
 20
0.0
 30
0.0
  9
$UCSORGRIGHT
 10
0.0
 20
0.0
 30
0.0
  9
$UCSORGFRONT
 10
0.0
 20
0.0
 30
0.0
  9
$UCSORGBACK
 10
0.0
 20
0.0
 30
0.0
  9
$PUCSBASE
  2

  9
$PUCSNAME
  2

  9
$PUCSORG
 10
0.0
 20
0.0
 30
0.0
  9
$PUCSXDIR
 10
1.0
 20
0.0
 30
0.0
  9
$PUCSYDIR
 10
0.0
 20
1.0
 30
0.0
  9
$PUCSORTHOREF
  2

  9
$PUCSORTHOVIEW
 70
0
  9
$PUCSORGTOP
 10
0.0
 20
0.0
 30
0.0
  9
$PUCSORGBOTTOM
 10
0.0
 20
0.0
 30
0.0
  9
$PUCSORGLEFT
 10
0.0
 20
0.0
 30
0.0
  9
$PUCSORGRIGHT
 10
0.0
 20
0.0
 30
0.0
  9
$PUCSORGFRONT
 10
0.0
 20
0.0
 30
0.0
  9
$PUCSORGBACK
 10
0.0
 20
0.0
 30
0.0
  9
$USERI1
 70
0
  9
$USERI2
 70
0
  9
$USERI3
 70
0
  9
$USERI4
 70
0
  9
$USERI5
 70
0
  9
$USERR1
 40
0.0
  9
$USERR2
 40
0.0
  9
$USERR3
 40
0.0
  9
$USERR4
 40
0.0
  9
$USERR5
 40
0.0
  9
$WORLDVIEW
 70
1
  9
$SHADEDGE
 70
3
  9
$SHADEDIF
 70
70
  9
$TILEMODE
 70
1
  9
$MAXACTVP
 70
64
  9
$PINSBASE
 10
0.0
 20
0.0
 30
0.0
  9
$PLIMCHECK
 70
0
  9
$PEXTMIN
 10
1e+20
 20
1e+20
 30
1e+20
  9
$PEXTMAX
 10
-1e+20
 20
-1e+20
 30
-1e+20
  9
$PLIMMIN
 10
0.0
 20
0.0
  9
$PLIMMAX
 10
420.0
 20
297.0
  9
$UNITMODE
 70
0
  9
$VISRETAIN
 70
1
  9
$PLINEGEN
 70
0
  9
$PSLTSCALE
 70
1
  9
$TREEDEPTH
 70
3020
  9
$CMLSTYLE
  2
Standard
  9
$CMLJUST
 70
0
  9
$CMLSCALE
 40
20.0
  9
$PROXYGRAPHICS
 70
1
  9
$MEASUREMENT
 70
1
  9
$CELWEIGHT
370
-1
  9
$ENDCAPS
280
0
  9
$JOINSTYLE
280
0
  9
$LWDISPLAY
290
0
  9
$INSUNITS
 70
6
  9
$HYPERLINKBASE
  1

  9
$STYLESHEET
  1

  9
$XEDIT
290
1
  9
$CEPSNTYPE
380
0
  9
$PSTYLEMODE
290
1
  9
$FINGERPRINTGUID
  2
{DCEDA25F-ABCF-434E-B81D-F4BFC83E3F28}
  9
$VERSIONGUID
  2
{442A8C2B-FAD3-4025-9D93-64C1EAA7C626}
  9
$EXTNAMES
290
1
  9
$PSVPSCALE
 40
0.0
  9
$OLESTARTUP
290
0
  9
$SORTENTS
280
127
  9
$INDEXCTL
280
0
  9
$HIDETEXT
280
1
  9
$XCLIPFRAME
280
1
  9
$HALOGAP
280
0
  9
$OBSCOLOR
 70
257
  9
$OBSLTYPE
280
0
  9
$INTERSECTIONDISPLAY
280
0
  9
$INTERSECTIONCOLOR
 70
257
  9
$DIMASSOC
280
2
  9
$PROJECTNAME
  1

  9
$CAMERADISPLAY
290
0
  9
$LENSLENGTH
 40
50.0
  9
$CAMERAHEIGHT
 40
0.0
  9
$STEPSPERSEC
 40
24.0
  9
$STEPSIZE
 40
100.0
  9
$3DDWFPREC
 40
2.0
  9
$PSOLWIDTH
 40
0.005
  9
$PSOLHEIGHT
 40
0.08
  9
$LOFTANG1
 40
1.570796326795
  9
$LOFTANG2
 40
1.570796326795
  9
$LOFTMAG1
 40
0.0
  9
$LOFTMAG2
 40
0.0
  9
$LOFTPARAM
 70
7
  9
$LOFTNORMALS
280
1
  9
$LATITUDE
 40
37.795
  9
$LONGITUDE
 40
-122.394
  9
$NORTHDIRECTION
 40
0.0
  9
$TIMEZONE
 70
-8000
  9
$LIGHTGLYPHDISPLAY
280
1
  9
$TILEMODELIGHTSYNCH
280
1
  9
$CMATERIAL
347
20
  9
$SOLIDHIST
280
0
  9
$SHOWHIST
280
1
  9
$DWFFRAME
280
2
  9
$DGNFRAME
280
2
  9
$REALWORLDSCALE
290
1
  9
$INTERFERECOLOR
 62
256
  9
$CSHADOW
280
0
  9
$SHADOWPLANELOCATION
 40
0.0
  0
ENDSEC
  0
SECTION
  2
CLASSES
  0
CLASS
  1
ACDBDICTIONARYWDFLT
  2
AcDbDictionaryWithDefault
  3
ObjectDBX Classes
 90
0
 91
0
280
0
281
0
  0
CLASS
  1
SUN
  2
AcDbSun
  3
SCENEOE
 90
1153
 91
0
280
0
281
0
  0
CLASS
  1
VISUALSTYLE
  2
AcDbVisualStyle
  3
ObjectDBX Classes
 90
4095
 91
0
280
0
281
0
  0
CLASS
  1
MATERIAL
  2
AcDbMaterial
  3
ObjectDBX Classes
 90
1153
 91
0
280
0
281
0
  0
CLASS
  1
SCALE
  2
AcDbScale
  3
ObjectDBX Classes
 90
1153
 91
0
280
0
281
0
  0
CLASS
  1
TABLESTYLE
  2
AcDbTableStyle
  3
ObjectDBX Classes
 90
4095
 91
0
280
0
281
0
  0
CLASS
  1
MLEADERSTYLE
  2
AcDbMLeaderStyle
  3
ACDB_MLEADERSTYLE_CLASS
 90
4095
 91
0
280
0
281
0
  0
CLASS
  1
DICTIONARYVAR
  2
AcDbDictionaryVar
  3
ObjectDBX Classes
 90
0
 91
0
280
0
281
0
  0
CLASS
  1
CELLSTYLEMAP
  2
AcDbCellStyleMap
  3
ObjectDBX Classes
 90
1152
 91
0
280
0
281
0
  0
CLASS
  1
MENTALRAYRENDERSETTINGS
  2
AcDbMentalRayRenderSettings
  3
SCENEOE
 90
1024
 91
0
280
0
281
0
  0
CLASS
  1
ACDBDETAILVIEWSTYLE
  2
AcDbDetailViewStyle
  3
ObjectDBX Classes
 90
1025
 91
0
280
0
281
0
  0
CLASS
  1
ACDBSECTIONVIEWSTYLE
  2
AcDbSectionViewStyle
  3
ObjectDBX Classes
 90
1025
 91
0
280
0
281
0
  0
CLASS
  1
RASTERVARIABLES
  2
AcDbRasterVariables
  3
ISM
 90
0
 91
0
280
0
281
0
  0
CLASS
  1
LAYOUT
  2
AcDbLayout
  3
ObjectDBX Classes
 90
0
 91
0
280
0
281
0
  0
CLASS
  1
ACDBPLACEHOLDER
  2
AcDbPlaceHolder
  3
ObjectDBX Classes
 90
0
 91
0
280
0
281
0
  0
ENDSEC
  0
SECTION
  2
TABLES
  0
TABLE
  2
VPORT
  5
8
330
0
100
AcDbSymbolTable
 70
1
  0
VPORT
  5
23
330
8
100
AcDbSymbolTableRecord
100
AcDbViewportTableRecord
  2
*Active
 70
0
 10
0.0
 20
0.0
 11
1.0
 21
1.0
 12
0.0
 22
0.0
 13
0.0
 23
0.0
 14
0.5
 24
0.5
 15
0.5
 25
0.5
 16
0.0
 26
0.0
 36
1.0
 17
0.0
 27
0.0
 37
0.0
 40
1000.0
 41
1.34
 42
50.0
 43
0.0
 44
0.0
 50
0.0
 51
0.0
 71
0
 72
1000
 73
1
 74
3
 75
0
 76
0
 77
0
 78
0
281
0
 65
0
146
0.0
  0
ENDTAB
  0
TABLE
  2
LTYPE
  5
2
330
0
100
AcDbSymbolTable
 70
3
  0
LTYPE
  5
24
330
2
100
AcDbSymbolTableRecord
100
AcDbLinetypeTableRecord
  2
ByBlock
 70
0
  3

 72
65
 73
0
 40
0.0
  0
LTYPE
  5
25
330
2
100
AcDbSymbolTableRecord
100
AcDbLinetypeTableRecord
  2
ByLayer
 70
0
  3

 72
65
 73
0
 40
0.0
  0
LTYPE
  5
26
330
2
100
AcDbSymbolTableRecord
100
AcDbLinetypeTableRecord
  2
Continuous
 70
0
  3

 72
65
 73
0
 40
0.0
  0
ENDTAB
  0
TABLE
  2
LAYER
  5
1
330
0
100
AcDbSymbolTable
 70
2
  0
LAYER
  5
27
330
1
100
AcDbSymbolTableRecord
100
AcDbLayerTableRecord
  2
0
 70
0
 62
7
  6
Continuous
370
-3
390
13
347
21
  0
LAYER
  5
28
330
1
100
AcDbSymbolTableRecord
100
AcDbLayerTableRecord
  2
Defpoints
 70
0
 62
7
  6
Continuous
290
0
370
-3
390
13
347
21
  0
ENDTAB
  0
TABLE
  2
STYLE
  5
5
330
0
100
AcDbSymbolTable
 70
1
  0
STYLE
  5
29
330
5
100
AcDbSymbolTableRecord
100
AcDbTextStyleTableRecord
  2
Standard
 70
0
 40
0.0
 41
1.0
 50
0.0
 71
0
 42
2.5
  3
txt
  4

  0
ENDTAB
  0
TABLE
  2
VIEW
  5
7
330
0
100
AcDbSymbolTable
 70
0
  0
ENDTAB
  0
TABLE
  2
UCS
  5
6
330
0
100
AcDbSymbolTable
 70
0
  0
ENDTAB
  0
TABLE
  2
APPID
  5
3
330
0
100
AcDbSymbolTable
 70
3
  0
APPID
  5
2A
330
3
100
AcDbSymbolTableRecord
100
AcDbRegAppTableRecord
  2
ACAD
 70
0
  0
APPID
  5
39A
330
3
100
AcDbSymbolTableRecord
100
AcDbRegAppTableRecord
  2
HATCHBACKGROUNDCOLOR
 70
0
  0
APPID
  5
39B
330
3
100
AcDbSymbolTableRecord
100
AcDbRegAppTableRecord
  2
EZDXF
 70
0
  0
ENDTAB
  0
TABLE
  2
DIMSTYLE
  5
4
330
0
100
AcDbSymbolTable
 70
1
100
AcDbDimStyleTable
  0
DIMSTYLE
105
2B
330
4
100
AcDbSymbolTableRecord
100
AcDbDimStyleTableRecord
  2
Standard
 70
0
 40
1.0
 41
2.5
 42
0.625
 43
3.75
 44
1.25
 45
0.0
 46
0.0
 47
0.0
 48
0.0
 49
2.5
140
2.5
141
2.5
142
0.0
143
0.03937007874
144
1.0
145
0.0
146
1.0
147
0.625
148
0.0
 69
0
 70
0
 71
0
 72
0
 73
0
 74
0
 75
0
 76
0
 77
1
 78
8
 79
3
170
0
171
3
172
1
173
0
174
0
175
0
176
0
177
0
178
0
179
2
271
2
272
2
273
2
274
3
275
0
276
0
277
2
278
44
279
0
280
0
281
0
282
0
283
0
284
8
285
0
286
0
288
0
289
3
290
0
371
-2
372
-2
  0
ENDTAB
  0
TABLE
  2
BLOCK_RECORD
  5
9
330
0
100
AcDbSymbolTable
 70
2
  0
BLOCK_RECORD
  5
17
330
9
100
AcDbSymbolTableRecord
100
AcDbBlockTableRecord
  2
*Model_Space
340
1A
 70
0
280
1
281
0
  0
BLOCK_RECORD
  5
1B
330
9
100
AcDbSymbolTableRecord
100
AcDbBlockTableRecord
  2
*Paper_Space
340
1E
 70
0
280
1
281
0
  0
ENDTAB
  0
ENDSEC
  0
SECTION
  2
BLOCKS
  0
BLOCK
  5
18
330
17
100
AcDbEntity
  8
0
100
AcDbBlockBegin
  2
*Model_Space
 70
0
 10
0.0
 20
0.0
 30
0.0
  3
*Model_Space
  1

  0
ENDBLK
  5
19
330
17
100
AcDbEntity
  8
0
100
AcDbBlockEnd
  0
BLOCK
  5
1C
330
1B
100
AcDbEntity
  8
0
100
AcDbBlockBegin
  2
*Paper_Space
 70
0
 10
0.0
 20
0.0
 30
0.0
  3
*Paper_Space
  1

  0
ENDBLK
  5
1D
330
1B
100
AcDbEntity
  8
0
100
AcDbBlockEnd
  0
ENDSEC
  0
SECTION
  2
ENTITIES
  0
TEXT
  5
2F
330
17
100
AcDbEntity
  8
0
 62
1
100
AcDbText
 10
10.0
 20
90.0
 30
0.0
 40
3.0
  1
Sample DXF Drawing
100
AcDbText
  0
LWPOLYLINE
  5
30
330
17
100
AcDbEntity
  8
0
 62
5
100
AcDbPolyline
 90
5
 70
0
 10
10.0
 20
10.0
 10
30.0
 20
10.0
 10
30.0
 20
20.0
 10
10.0
 20
20.0
 10
10.0
 20
10.0
  0
CIRCLE
  5
31
330
17
100
AcDbEntity
  8
0
 62
3
100
AcDbCircle
 10
50.0
 20
15.0
 30
0.0
 40
8.0
  0
LINE
  5
32
330
17
100
AcDbEntity
  8
0
 62
2
100
AcDbLine
 10
70.0
 20
10.0
 30
0.0
 11
90.0
 21
20.0
 31
0.0
  0
LWPOLYLINE
  5
33
330
17
100
AcDbEntity
  8
0
 62
6
100
AcDbPolyline
 90
4
 70
0
 10
100.0
 20
10.0
 10
110.0
 20
25.0
 10
120.0
 20
10.0
 10
100.0
 20
10.0
  0
ARC
  5
34
330
17
100
AcDbEntity
  8
0
 62
4
100
AcDbCircle
 10
140.0
 20
15.0
 30
0.0
 40
10.0
100
AcDbArc
 50
0.0
 51
180.0
  0
LWPOLYLINE
  5
35
330
17
100
AcDbEntity
  8
0
 62
1
100
AcDbPolyline
 90
13
 70
0
 10
50.0
 20
35.0
 10
54.0
 20
43.07179676972449
 10
62.99038105676658
 20
42.5
 10
58.0
 20
50.0
 10
62.99038105676658
 20
57.5
 10
54.0
 20
56.92820323027551
 10
50.0
 20
65.0
 10
46.0
 20
56.92820323027551
 10
37.00961894323342
 20
57.50000000000001
 10
42.0
 20
50.0
 10
37.00961894323341
 20
42.50000000000001
 10
46.0
 20
43.07179676972449
 10
50.0
 20
35.0
  0
LINE
  5
36
330
17
100
AcDbEntity
  8
0
 62
8
100
AcDbLine
 10
0.0
 20
0.0
 30
0.0
 11
0.0
 21
100.0
 31
0.0
  0
LINE
  5
37
330
17
100
AcDbEntity
  8
0
 62
8
100
AcDbLine
 10
5.0
 20
0.0
 30
0.0
 11
5.0
 21
100.0
 31
0.0
  0
LINE
  5
38
330
17
100
AcDbEntity
  8
0
 62
8
100
AcDbLine
 10
10.0
 20
0.0
 30
0.0
 11
10.0
 21
100.0
 31
0.0
  0
LINE
  5
39
330
17
100
AcDbEntity
  8
0
 62
8
100
AcDbLine
 10
15.0
 20
0.0
 30
0.0
 11
15.0
 21
100.0
 31
0.0
  0
LINE
  5
3A
330
17
100
AcDbEntity
  8
0
 62
8
100
AcDbLine
 10
20.0
 20
0.0
 30
0.0
 11
20.0
 21
100.0
 31
0.0
  0
LINE
  5
3B
330
17
100
AcDbEntity
  8
0
 62
8
100
AcDbLine
 10
25.0
 20
0.0
 30
0.0
 11
25.0
 21
100.0
 31
0.0
  0
LINE
  5
3C
330
17
100
AcDbEntity
  8
0
 62
8
100
AcDbLine
 10
30.0
 20
0.0
 30
0.0
 11
30.0
 21
100.0
 31
0.0
  0
LINE
  5
3D
330
17
100
AcDbEntity
  8
0
 62
8
100
AcDbLine
 10
35.0
 20
0.0
 30
0.0
 11
35.0
 21
100.0
 31
0.0
  0
LINE
  5
3E
330
17
100
AcDbEntity
  8
0
 62
8
100
AcDbLine
 10
40.0
 20
0.0
 30
0.0
 11
40.0
 21
100.0
 31
0.0
  0
LINE
  5
3F
330
17
100
AcDbEntity
  8
0
 62
8
100
AcDbLine
 10
45.0
 20
0.0
 30
0.0
 11
45.0
 21
100.0
 31
0.0
  0
LINE
  5
40
330
17
100
AcDbEntity
  8
0
 62
8
100
AcDbLine
 10
50.0
 20
0.0
 30
0.0
 11
50.0
 21
100.0
 31
0.0
  0
LINE
  5
41
330
17
100
AcDbEntity
  8
0
 62
8
100
AcDbLine
 10
55.0
 20
0.0
 30
0.0
 11
55.0
 21
100.0
 31
0.0
  0
LINE
  5
42
330
17
100
AcDbEntity
  8
0
 62
8
100
AcDbLine
 10
60.0
 20
0.0
 30
0.0
 11
60.0
 21
100.0
 31
0.0
  0
LINE
  5
43
330
17
100
AcDbEntity
  8
0
 62
8
100
AcDbLine
 10
65.0
 20
0.0
 30
0.0
 11
65.0
 21
100.0
 31
0.0
  0
LINE
  5
44
330
17
100
AcDbEntity
  8
0
 62
8
100
AcDbLine
 10
70.0
 20
0.0
 30
0.0
 11
70.0
 21
100.0
 31
0.0
  0
LINE
  5
45
330
17
100
AcDbEntity
  8
0
 62
8
100
AcDbLine
 10
75.0
 20
0.0
 30
0.0
 11
75.0
 21
100.0
 31
0.0
  0
LINE
  5
46
330
17
100
AcDbEntity
  8
0
 62
8
100
AcDbLine
 10
80.0
 20
0.0
 30
0.0
 11
80.0
 21
100.0
 31
0.0
  0
LINE
  5
47
330
17
100
AcDbEntity
  8
0
 62
8
100
AcDbLine
 10
85.0
 20
0.0
 30
0.0
 11
85.0
 21
100.0
 31
0.0
  0
LINE
  5
48
330
17
100
AcDbEntity
  8
0
 62
8
100
AcDbLine
 10
90.0
 20
0.0
 30
0.0
 11
90.0
 21
100.0
 31
0.0
  0
LINE
  5
49
330
17
100
AcDbEntity
  8
0
 62
8
100
AcDbLine
 10
95.0
 20
0.0
 30
0.0
 11
95.0
 21
100.0
 31
0.0
  0
LINE
  5
4A
330
17
100
AcDbEntity
  8
0
 62
8
100
AcDbLine
 10
100.0
 20
0.0
 30
0.0
 11
100.0
 21
100.0
 31
0.0
  0
LINE
  5
4B
330
17
100
AcDbEntity
  8
0
 62
8
100
AcDbLine
 10
105.0
 20
0.0
 30
0.0
 11
105.0
 21
100.0
 31
0.0
  0
LINE
  5
4C
330
17
100
AcDbEntity
  8
0
 62
8
100
AcDbLine
 10
110.0
 20
0.0
 30
0.0
 11
110.0
 21
100.0
 31
0.0
  0
LINE
  5
4D
330
17
100
AcDbEntity
  8
0
 62
8
100
AcDbLine
 10
115.0
 20
0.0
 30
0.0
 11
115.0
 21
100.0
 31
0.0
  0
LINE
  5
4E
330
17
100
AcDbEntity
  8
0
 62
8
100
AcDbLine
 10
120.0
 20
0.0
 30
0.0
 11
120.0
 21
100.0
 31
0.0
  0
LINE
  5
4F
330
17
100
AcDbEntity
  8
0
 62
8
100
AcDbLine
 10
125.0
 20
0.0
 30
0.0
 11
125.0
 21
100.0
 31
0.0
  0
LINE
  5
50
330
17
100
AcDbEntity
  8
0
 62
8
100
AcDbLine
 10
130.0
 20
0.0
 30
0.0
 11
130.0
 21
100.0
 31
0.0
  0
LINE
  5
51
330
17
100
AcDbEntity
  8
0
 62
8
100
AcDbLine
 10
135.0
 20
0.0
 30
0.0
 11
135.0
 21
100.0
 31
0.0
  0
LINE
  5
52
330
17
100
AcDbEntity
  8
0
 62
8
100
AcDbLine
 10
140.0
 20
0.0
 30
0.0
 11
140.0
 21
100.0
 31
0.0
  0
LINE
  5
53
330
17
100
AcDbEntity
  8
0
 62
8
100
AcDbLine
 10
145.0
 20
0.0
 30
0.0
 11
145.0
 21
100.0
 31
0.0
  0
LINE
  5
54
330
17
100
AcDbEntity
  8
0
 62
8
100
AcDbLine
 10
150.0
 20
0.0
 30
0.0
 11
150.0
 21
100.0
 31
0.0
  0
LINE
  5
55
330
17
100
AcDbEntity
  8
0
 62
8
100
AcDbLine
 10
155.0
 20
0.0
 30
0.0
 11
155.0
 21
100.0
 31
0.0
  0
LINE
  5
56
330
17
100
AcDbEntity
  8
0
 62
8
100
AcDbLine
 10
160.0
 20
0.0
 30
0.0
 11
160.0
 21
100.0
 31
0.0
  0
LINE
  5
57
330
17
100
AcDbEntity
  8
0
 62
8
100
AcDbLine
 10
165.0
 20
0.0
 30
0.0
 11
165.0
 21
100.0
 31
0.0
  0
LINE
  5
58
330
17
100
AcDbEntity
  8
0
 62
8
100
AcDbLine
 10
170.0
 20
0.0
 30
0.0
 11
170.0
 21
100.0
 31
0.0
  0
LINE
  5
59
330
17
100
AcDbEntity
  8
0
 62
8
100
AcDbLine
 10
175.0
 20
0.0
 30
0.0
 11
175.0
 21
100.0
 31
0.0
  0
LINE
  5
5A
330
17
100
AcDbEntity
  8
0
 62
8
100
AcDbLine
 10
180.0
 20
0.0
 30
0.0
 11
180.0
 21
100.0
 31
0.0
  0
LINE
  5
5B
330
17
100
AcDbEntity
  8
0
 62
8
100
AcDbLine
 10
185.0
 20
0.0
 30
0.0
 11
185.0
 21
100.0
 31
0.0
  0
LINE
  5
5C
330
17
100
AcDbEntity
  8
0
 62
8
100
AcDbLine
 10
190.0
 20
0.0
 30
0.0
 11
190.0
 21
100.0
 31
0.0
  0
LINE
  5
5D
330
17
100
AcDbEntity
  8
0
 62
8
100
AcDbLine
 10
195.0
 20
0.0
 30
0.0
 11
195.0
 21
100.0
 31
0.0
  0
LINE
  5
5E
330
17
100
AcDbEntity
  8
0
 62
8
100
AcDbLine
 10
200.0
 20
0.0
 30
0.0
 11
200.0
 21
100.0
 31
0.0
  0
LINE
  5
5F
330
17
100
AcDbEntity
  8
0
 62
8
100
AcDbLine
 10
0.0
 20
0.0
 30
0.0
 11
200.0
 21
0.0
 31
0.0
  0
LINE
  5
60
330
17
100
AcDbEntity
  8
0
 62
8
100
AcDbLine
 10
0.0
 20
5.0
 30
0.0
 11
200.0
 21
5.0
 31
0.0
  0
LINE
  5
61
330
17
100
AcDbEntity
  8
0
 62
8
100
AcDbLine
 10
0.0
 20
10.0
 30
0.0
 11
200.0
 21
10.0
 31
0.0
  0
LINE
  5
62
330
17
100
AcDbEntity
  8
0
 62
8
100
AcDbLine
 10
0.0
 20
15.0
 30
0.0
 11
200.0
 21
15.0
 31
0.0
  0
LINE
  5
63
330
17
100
AcDbEntity
  8
0
 62
8
100
AcDbLine
 10
0.0
 20
20.0
 30
0.0
 11
200.0
 21
20.0
 31
0.0
  0
LINE
  5
64
330
17
100
AcDbEntity
  8
0
 62
8
100
AcDbLine
 10
0.0
 20
25.0
 30
0.0
 11
200.0
 21
25.0
 31
0.0
  0
LINE
  5
65
330
17
100
AcDbEntity
  8
0
 62
8
100
AcDbLine
 10
0.0
 20
30.0
 30
0.0
 11
200.0
 21
30.0
 31
0.0
  0
LINE
  5
66
330
17
100
AcDbEntity
  8
0
 62
8
100
AcDbLine
 10
0.0
 20
35.0
 30
0.0
 11
200.0
 21
35.0
 31
0.0
  0
LINE
  5
67
330
17
100
AcDbEntity
  8
0
 62
8
100
AcDbLine
 10
0.0
 20
40.0
 30
0.0
 11
200.0
 21
40.0
 31
0.0
  0
LINE
  5
68
330
17
100
AcDbEntity
  8
0
 62
8
100
AcDbLine
 10
0.0
 20
45.0
 30
0.0
 11
200.0
 21
45.0
 31
0.0
  0
LINE
  5
69
330
17
100
AcDbEntity
  8
0
 62
8
100
AcDbLine
 10
0.0
 20
50.0
 30
0.0
 11
200.0
 21
50.0
 31
0.0
  0
LINE
  5
6A
330
17
100
AcDbEntity
  8
0
 62
8
100
AcDbLine
 10
0.0
 20
55.0
 30
0.0
 11
200.0
 21
55.0
 31
0.0
  0
LINE
  5
6B
330
17
100
AcDbEntity
  8
0
 62
8
100
AcDbLine
 10
0.0
 20
60.0
 30
0.0
 11
200.0
 21
60.0
 31
0.0
  0
LINE
  5
6C
330
17
100
AcDbEntity
  8
0
 62
8
100
AcDbLine
 10
0.0
 20
65.0
 30
0.0
 11
200.0
 21
65.0
 31
0.0
  0
LINE
  5
6D
330
17
100
AcDbEntity
  8
0
 62
8
100
AcDbLine
 10
0.0
 20
70.0
 30
0.0
 11
200.0
 21
70.0
 31
0.0
  0
LINE
  5
6E
330
17
100
AcDbEntity
  8
0
 62
8
100
AcDbLine
 10
0.0
 20
75.0
 30
0.0
 11
200.0
 21
75.0
 31
0.0
  0
LINE
  5
6F
330
17
100
AcDbEntity
  8
0
 62
8
100
AcDbLine
 10
0.0
 20
80.0
 30
0.0
 11
200.0
 21
80.0
 31
0.0
  0
LINE
  5
70
330
17
100
AcDbEntity
  8
0
 62
8
100
AcDbLine
 10
0.0
 20
85.0
 30
0.0
 11
200.0
 21
85.0
 31
0.0
  0
LINE
  5
71
330
17
100
AcDbEntity
  8
0
 62
8
100
AcDbLine
 10
0.0
 20
90.0
 30
0.0
 11
200.0
 21
90.0
 31
0.0
  0
LINE
  5
72
330
17
100
AcDbEntity
  8
0
 62
8
100
AcDbLine
 10
0.0
 20
95.0
 30
0.0
 11
200.0
 21
95.0
 31
0.0
  0
LINE
  5
73
330
17
100
AcDbEntity
  8
0
 62
8
100
AcDbLine
 10
0.0
 20
100.0
 30
0.0
 11
200.0
 21
100.0
 31
0.0
  0
TEXT
  5
74
330
17
100
AcDbEntity
  8
0
 62
1
100
AcDbText
 10
0.25
 20
0.25
 30
0.0
 40
0.8
  1
(0,0)
100
AcDbText
  0
TEXT
  5
75
330
17
100
AcDbEntity
  8
0
 62
1
100
AcDbText
 10
0.25
 20
5.25
 30
0.0
 40
0.8
  1
(0,5)
100
AcDbText
  0
TEXT
  5
76
330
17
100
AcDbEntity
  8
0
 62
1
100
AcDbText
 10
0.25
 20
10.25
 30
0.0
 40
0.8
  1
(0,10)
100
AcDbText
  0
TEXT
  5
77
330
17
100
AcDbEntity
  8
0
 62
1
100
AcDbText
 10
0.25
 20
15.25
 30
0.0
 40
0.8
  1
(0,15)
100
AcDbText
  0
TEXT
  5
78
330
17
100
AcDbEntity
  8
0
 62
1
100
AcDbText
 10
0.25
 20
20.25
 30
0.0
 40
0.8
  1
(0,20)
100
AcDbText
  0
TEXT
  5
79
330
17
100
AcDbEntity
  8
0
 62
1
100
AcDbText
 10
0.25
 20
25.25
 30
0.0
 40
0.8
  1
(0,25)
100
AcDbText
  0
TEXT
  5
7A
330
17
100
AcDbEntity
  8
0
 62
1
100
AcDbText
 10
0.25
 20
30.25
 30
0.0
 40
0.8
  1
(0,30)
100
AcDbText
  0
TEXT
  5
7B
330
17
100
AcDbEntity
  8
0
 62
1
100
AcDbText
 10
0.25
 20
35.25
 30
0.0
 40
0.8
  1
(0,35)
100
AcDbText
  0
TEXT
  5
7C
330
17
100
AcDbEntity
  8
0
 62
1
100
AcDbText
 10
0.25
 20
40.25
 30
0.0
 40
0.8
  1
(0,40)
100
AcDbText
  0
TEXT
  5
7D
330
17
100
AcDbEntity
  8
0
 62
1
100
AcDbText
 10
0.25
 20
45.25
 30
0.0
 40
0.8
  1
(0,45)
100
AcDbText
  0
TEXT
  5
7E
330
17
100
AcDbEntity
  8
0
 62
1
100
AcDbText
 10
0.25
 20
50.25
 30
0.0
 40
0.8
  1
(0,50)
100
AcDbText
  0
TEXT
  5
7F
330
17
100
AcDbEntity
  8
0
 62
1
100
AcDbText
 10
0.25
 20
55.25
 30
0.0
 40
0.8
  1
(0,55)
100
AcDbText
  0
TEXT
  5
80
330
17
100
AcDbEntity
  8
0
 62
1
100
AcDbText
 10
0.25
 20
60.25
 30
0.0
 40
0.8
  1
(0,60)
100
AcDbText
  0
TEXT
  5
81
330
17
100
AcDbEntity
  8
0
 62
1
100
AcDbText
 10
0.25
 20
65.25
 30
0.0
 40
0.8
  1
(0,65)
100
AcDbText
  0
TEXT
  5
82
330
17
100
AcDbEntity
  8
0
 62
1
100
AcDbText
 10
0.25
 20
70.25
 30
0.0
 40
0.8
  1
(0,70)
100
AcDbText
  0
TEXT
  5
83
330
17
100
AcDbEntity
  8
0
 62
1
100
AcDbText
 10
0.25
 20
75.25
 30
0.0
 40
0.8
  1
(0,75)
100
AcDbText
  0
TEXT
  5
84
330
17
100
AcDbEntity
  8
0
 62
1
100
AcDbText
 10
0.25
 20
80.25
 30
0.0
 40
0.8
  1
(0,80)
100
AcDbText
  0
TEXT
  5
85
330
17
100
AcDbEntity
  8
0
 62
1
100
AcDbText
 10
0.25
 20
85.25
 30
0.0
 40
0.8
  1
(0,85)
100
AcDbText
  0
TEXT
  5
86
330
17
100
AcDbEntity
  8
0
 62
1
100
AcDbText
 10
0.25
 20
90.25
 30
0.0
 40
0.8
  1
(0,90)
100
AcDbText
  0
TEXT
  5
87
330
17
100
AcDbEntity
  8
0
 62
1
100
AcDbText
 10
0.25
 20
95.25
 30
0.0
 40
0.8
  1
(0,95)
100
AcDbText
  0
TEXT
  5
88
330
17
100
AcDbEntity
  8
0
 62
1
100
AcDbText
 10
5.25
 20
0.25
 30
0.0
 40
0.8
  1
(5,0)
100
AcDbText
  0
TEXT
  5
89
330
17
100
AcDbEntity
  8
0
 62
1
100
AcDbText
 10
5.25
 20
5.25
 30
0.0
 40
0.8
  1
(5,5)
100
AcDbText
  0
TEXT
  5
8A
330
17
100
AcDbEntity
  8
0
 62
1
100
AcDbText
 10
5.25
 20
10.25
 30
0.0
 40
0.8
  1
(5,10)
100
AcDbText
  0
TEXT
  5
8B
330
17
100
AcDbEntity
  8
0
 62
1
100
AcDbText
 10
5.25
 20
15.25
 30
0.0
 40
0.8
  1
(5,15)
100
AcDbText
  0
TEXT
  5
8C
330
17
100
AcDbEntity
  8
0
 62
1
100
AcDbText
 10
5.25
 20
20.25
 30
0.0
 40
0.8
  1
(5,20)
100
AcDbText
  0
TEXT
  5
8D
330
17
100
AcDbEntity
  8
0
 62
1
100
AcDbText
 10
5.25
 20
25.25
 30
0.0
 40
0.8
  1
(5,25)
100
AcDbText
  0
TEXT
  5
8E
330
17
100
AcDbEntity
  8
0
 62
1
100
AcDbText
 10
5.25
 20
30.25
 30
0.0
 40
0.8
  1
(5,30)
100
AcDbText
  0
TEXT
  5
8F
330
17
100
AcDbEntity
  8
0
 62
1
100
AcDbText
 10
5.25
 20
35.25
 30
0.0
 40
0.8
  1
(5,35)
100
AcDbText
  0
TEXT
  5
90
330
17
100
AcDbEntity
  8
0
 62
1
100
AcDbText
 10
5.25
 20
40.25
 30
0.0
 40
0.8
  1
(5,40)
100
AcDbText
  0
TEXT
  5
91
330
17
100
AcDbEntity
  8
0
 62
1
100
AcDbText
 10
5.25
 20
45.25
 30
0.0
 40
0.8
  1
(5,45)
100
AcDbText
  0
TEXT
  5
92
330
17
100
AcDbEntity
  8
0
 62
1
100
AcDbText
 10
5.25
 20
50.25
 30
0.0
 40
0.8
  1
(5,50)
100
AcDbText
  0
TEXT
  5
93
330
17
100
AcDbEntity
  8
0
 62
1
100
AcDbText
 10
5.25
 20
55.25
 30
0.0
 40
0.8
  1
(5,55)
100
AcDbText
  0
TEXT
  5
94
330
17
100
AcDbEntity
  8
0
 62
1
100
AcDbText
 10
5.25
 20
60.25
 30
0.0
 40
0.8
  1
(5,60)
100
AcDbText
  0
TEXT
  5
95
330
17
100
AcDbEntity
  8
0
 62
1
100
AcDbText
 10
5.25
 20
65.25
 30
0.0
 40
0.8
  1
(5,65)
100
AcDbText
  0
TEXT
  5
96
330
17
100
AcDbEntity
  8
0
 62
1
100
AcDbText
 10
5.25
 20
70.25
 30
0.0
 40
0.8
  1
(5,70)
100
AcDbText
  0
TEXT
  5
97
330
17
100
AcDbEntity
  8
0
 62
1
100
AcDbText
 10
5.25
 20
75.25
 30
0.0
 40
0.8
  1
(5,75)
100
AcDbText
  0
TEXT
  5
98
330
17
100
AcDbEntity
  8
0
 62
1
100
AcDbText
 10
5.25
 20
80.25
 30
0.0
 40
0.8
  1
(5,80)
100
AcDbText
  0
TEXT
  5
99
330
17
100
AcDbEntity
  8
0
 62
1
100
AcDbText
 10
5.25
 20
85.25
 30
0.0
 40
0.8
  1
(5,85)
100
AcDbText
  0
TEXT
  5
9A
330
17
100
AcDbEntity
  8
0
 62
1
100
AcDbText
 10
5.25
 20
90.25
 30
0.0
 40
0.8
  1
(5,90)
100
AcDbText
  0
TEXT
  5
9B
330
17
100
AcDbEntity
  8
0
 62
1
100
AcDbText
 10
5.25
 20
95.25
 30
0.0
 40
0.8
  1
(5,95)
100
AcDbText
  0
TEXT
  5
9C
330
17
100
AcDbEntity
  8
0
 62
1
100
AcDbText
 10
10.25
 20
0.25
 30
0.0
 40
0.8
  1
(10,0)
100
AcDbText
  0
TEXT
  5
9D
330
17
100
AcDbEntity
  8
0
 62
1
100
AcDbText
 10
10.25
 20
5.25
 30
0.0
 40
0.8
  1
(10,5)
100
AcDbText
  0
TEXT
  5
9E
330
17
100
AcDbEntity
  8
0
 62
1
100
AcDbText
 10
10.25
 20
10.25
 30
0.0
 40
0.8
  1
(10,10)
100
AcDbText
  0
TEXT
  5
9F
330
17
100
AcDbEntity
  8
0
 62
1
100
AcDbText
 10
10.25
 20
15.25
 30
0.0
 40
0.8
  1
(10,15)
100
AcDbText
  0
TEXT
  5
A0
330
17
100
AcDbEntity
  8
0
 62
1
100
AcDbText
 10
10.25
 20
20.25
 30
0.0
 40
0.8
  1
(10,20)
100
AcDbText
  0
TEXT
  5
A1
330
17
100
AcDbEntity
  8
0
 62
1
100
AcDbText
 10
10.25
 20
25.25
 30
0.0
 40
0.8
  1
(10,25)
100
AcDbText
  0
TEXT
  5
A2
330
17
100
AcDbEntity
  8
0
 62
1
100
AcDbText
 10
10.25
 20
30.25
 30
0.0
 40
0.8
  1
(10,30)
100
AcDbText
  0
TEXT
  5
A3
330
17
100
AcDbEntity
  8
0
 62
1
100
AcDbText
 10
10.25
 20
35.25
 30
0.0
 40
0.8
  1
(10,35)
100
AcDbText
  0
TEXT
  5
A4
330
17
100
AcDbEntity
  8
0
 62
1
100
AcDbText
 10
10.25
 20
40.25
 30
0.0
 40
0.8
  1
(10,40)
100
AcDbText
  0
TEXT
  5
A5
330
17
100
AcDbEntity
  8
0
 62
1
100
AcDbText
 10
10.25
 20
45.25
 30
0.0
 40
0.8
  1
(10,45)
100
AcDbText
  0
TEXT
  5
A6
330
17
100
AcDbEntity
  8
0
 62
1
100
AcDbText
 10
10.25
 20
50.25
 30
0.0
 40
0.8
  1
(10,50)
100
AcDbText
  0
TEXT
  5
A7
330
17
100
AcDbEntity
  8
0
 62
1
100
AcDbText
 10
10.25
 20
55.25
 30
0.0
 40
0.8
  1
(10,55)
100
AcDbText
  0
TEXT
  5
A8
330
17
100
AcDbEntity
  8
0
 62
1
100
AcDbText
 10
10.25
 20
60.25
 30
0.0
 40
0.8
  1
(10,60)
100
AcDbText
  0
TEXT
  5
A9
330
17
100
AcDbEntity
  8
0
 62
1
100
AcDbText
 10
10.25
 20
65.25
 30
0.0
 40
0.8
  1
(10,65)
100
AcDbText
  0
TEXT
  5
AA
330
17
100
AcDbEntity
  8
0
 62
1
100
AcDbText
 10
10.25
 20
70.25
 30
0.0
 40
0.8
  1
(10,70)
100
AcDbText
  0
TEXT
  5
AB
330
17
100
AcDbEntity
  8
0
 62
1
100
AcDbText
 10
10.25
 20
75.25
 30
0.0
 40
0.8
  1
(10,75)
100
AcDbText
  0
TEXT
  5
AC
330
17
100
AcDbEntity
  8
0
 62
1
100
AcDbText
 10
10.25
 20
80.25
 30
0.0
 40
0.8
  1
(10,80)
100
AcDbText
  0
TEXT
  5
AD
330
17
100
AcDbEntity
  8
0
 62
1
100
AcDbText
 10
10.25
 20
85.25
 30
0.0
 40
0.8
  1
(10,85)
100
AcDbText
  0
TEXT
  5
AE
330
17
100
AcDbEntity
  8
0
 62
1
100
AcDbText
 10
10.25
 20
90.25
 30
0.0
 40
0.8
  1
(10,90)
100
AcDbText
  0
TEXT
  5
AF
330
17
100
AcDbEntity
  8
0
 62
1
100
AcDbText
 10
10.25
 20
95.25
 30
0.0
 40
0.8
  1
(10,95)
100
AcDbText
  0
TEXT
  5
B0
330
17
100
AcDbEntity
  8
0
 62
1
100
AcDbText
 10
15.25
 20
0.25
 30
0.0
 40
0.8
  1
(15,0)
100
AcDbText
  0
TEXT
  5
B1
330
17
100
AcDbEntity
  8
0
 62
1
100
AcDbText
 10
15.25
 20
5.25
 30
0.0
 40
0.8
  1
(15,5)
100
AcDbText
  0
TEXT
  5
B2
330
17
100
AcDbEntity
  8
0
 62
1
100
AcDbText
 10
15.25
 20
10.25
 30
0.0
 40
0.8
  1
(15,10)
100
AcDbText
  0
TEXT
  5
B3
330
17
100
AcDbEntity
  8
0
 62
1
100
AcDbText
 10
15.25
 20
15.25
 30
0.0
 40
0.8
  1
(15,15)
100
AcDbText
  0
TEXT
  5
B4
330
17
100
AcDbEntity
  8
0
 62
1
100
AcDbText
 10
15.25
 20
20.25
 30
0.0
 40
0.8
  1
(15,20)
100
AcDbText
  0
TEXT
  5
B5
330
17
100
AcDbEntity
  8
0
 62
1
100
AcDbText
 10
15.25
 20
25.25
 30
0.0
 40
0.8
  1
(15,25)
100
AcDbText
  0
TEXT
  5
B6
330
17
100
AcDbEntity
  8
0
 62
1
100
AcDbText
 10
15.25
 20
30.25
 30
0.0
 40
0.8
  1
(15,30)
100
AcDbText
  0
TEXT
  5
B7
330
17
100
AcDbEntity
  8
0
 62
1
100
AcDbText
 10
15.25
 20
35.25
 30
0.0
 40
0.8
  1
(15,35)
100
AcDbText
  0
TEXT
  5
B8
330
17
100
AcDbEntity
  8
0
 62
1
100
AcDbText
 10
15.25
 20
40.25
 30
0.0
 40
0.8
  1
(15,40)
100
AcDbText
  0
TEXT
  5
B9
330
17
100
AcDbEntity
  8
0
 62
1
100
AcDbText
 10
15.25
 20
45.25
 30
0.0
 40
0.8
  1
(15,45)
100
AcDbText
  0
TEXT
  5
BA
330
17
100
AcDbEntity
  8
0
 62
1
100
AcDbText
 10
15.25
 20
50.25
 30
0.0
 40
0.8
  1
(15,50)
100
AcDbText
  0
TEXT
  5
BB
330
17
100
AcDbEntity
  8
0
 62
1
100
AcDbText
 10
15.25
 20
55.25
 30
0.0
 40
0.8
  1
(15,55)
100
AcDbText
  0
TEXT
  5
BC
330
17
100
AcDbEntity
  8
0
 62
1
100
AcDbText
 10
15.25
 20
60.25
 30
0.0
 40
0.8
  1
(15,60)
100
AcDbText
  0
TEXT
  5
BD
330
17
100
AcDbEntity
  8
0
 62
1
100
AcDbText
 10
15.25
 20
65.25
 30
0.0
 40
0.8
  1
(15,65)
100
AcDbText
  0
TEXT
  5
BE
330
17
100
AcDbEntity
  8
0
 62
1
100
AcDbText
 10
15.25
 20
70.25
 30
0.0
 40
0.8
  1
(15,70)
100
AcDbText
  0
TEXT
  5
BF
330
17
100
AcDbEntity
  8
0
 62
1
100
AcDbText
 10
15.25
 20
75.25
 30
0.0
 40
0.8
  1
(15,75)
100
AcDbText
  0
TEXT
  5
C0
330
17
100
AcDbEntity
  8
0
 62
1
100
AcDbText
 10
15.25
 20
80.25
 30
0.0
 40
0.8
  1
(15,80)
100
AcDbText
  0
TEXT
  5
C1
330
17
100
AcDbEntity
  8
0
 62
1
100
AcDbText
 10
15.25
 20
85.25
 30
0.0
 40
0.8
  1
(15,85)
100
AcDbText
  0
TEXT
  5
C2
330
17
100
AcDbEntity
  8
0
 62
1
100
AcDbText
 10
15.25
 20
90.25
 30
0.0
 40
0.8
  1
(15,90)
100
AcDbText
  0
TEXT
  5
C3
330
17
100
AcDbEntity
  8
0
 62
1
100
AcDbText
 10
15.25
 20
95.25
 30
0.0
 40
0.8
  1
(15,95)
100
AcDbText
  0
TEXT
  5
C4
330
17
100
AcDbEntity
  8
0
 62
1
100
AcDbText
 10
20.25
 20
0.25
 30
0.0
 40
0.8
  1
(20,0)
100
AcDbText
  0
TEXT
  5
C5
330
17
100
AcDbEntity
  8
0
 62
1
100
AcDbText
 10
20.25
 20
5.25
 30
0.0
 40
0.8
  1
(20,5)
100
AcDbText
  0
TEXT
  5
C6
330
17
100
AcDbEntity
  8
0
 62
1
100
AcDbText
 10
20.25
 20
10.25
 30
0.0
 40
0.8
  1
(20,10)
100
AcDbText
  0
TEXT
  5
C7
330
17
100
AcDbEntity
  8
0
 62
1
100
AcDbText
 10
20.25
 20
15.25
 30
0.0
 40
0.8
  1
(20,15)
100
AcDbText
  0
TEXT
  5
C8
330
17
100
AcDbEntity
  8
0
 62
1
100
AcDbText
 10
20.25
 20
20.25
 30
0.0
 40
0.8
  1
(20,20)
100
AcDbText
  0
TEXT
  5
C9
330
17
100
AcDbEntity
  8
0
 62
1
100
AcDbText
 10
20.25
 20
25.25
 30
0.0
 40
0.8
  1
(20,25)
100
AcDbText
  0
TEXT
  5
CA
330
17
100
AcDbEntity
  8
0
 62
1
100
AcDbText
 10
20.25
 20
30.25
 30
0.0
 40
0.8
  1
(20,30)
100
AcDbText
  0
TEXT
  5
CB
330
17
100
AcDbEntity
  8
0
 62
1
100
AcDbText
 10
20.25
 20
35.25
 30
0.0
 40
0.8
  1
(20,35)
100
AcDbText
  0
TEXT
  5
CC
330
17
100
AcDbEntity
  8
0
 62
1
100
AcDbText
 10
20.25
 20
40.25
 30
0.0
 40
0.8
  1
(20,40)
100
AcDbText
  0
TEXT
  5
CD
330
17
100
AcDbEntity
  8
0
 62
1
100
AcDbText
 10
20.25
 20
45.25
 30
0.0
 40
0.8
  1
(20,45)
100
AcDbText
  0
TEXT
  5
CE
330
17
100
AcDbEntity
  8
0
 62
1
100
AcDbText
 10
20.25
 20
50.25
 30
0.0
 40
0.8
  1
(20,50)
100
AcDbText
  0
TEXT
  5
CF
330
17
100
AcDbEntity
  8
0
 62
1
100
AcDbText
 10
20.25
 20
55.25
 30
0.0
 40
0.8
  1
(20,55)
100
AcDbText
  0
TEXT
  5
D0
330
17
100
AcDbEntity
  8
0
 62
1
100
AcDbText
 10
20.25
 20
60.25
 30
0.0
 40
0.8
  1
(20,60)
100
AcDbText
  0
TEXT
  5
D1
330
17
100
AcDbEntity
  8
0
 62
1
100
AcDbText
 10
20.25
 20
65.25
 30
0.0
 40
0.8
  1
(20,65)
100
AcDbText
  0
TEXT
  5
D2
330
17
100
AcDbEntity
  8
0
 62
1
100
AcDbText
 10
20.25
 20
70.25
 30
0.0
 40
0.8
  1
(20,70)
100
AcDbText
  0
TEXT
  5
D3
330
17
100
AcDbEntity
  8
0
 62
1
100
AcDbText
 10
20.25
 20
75.25
 30
0.0
 40
0.8
  1
(20,75)
100
AcDbText
  0
TEXT
  5
D4
330
17
100
AcDbEntity
  8
0
 62
1
100
AcDbText
 10
20.25
 20
80.25
 30
0.0
 40
0.8
  1
(20,80)
100
AcDbText
  0
TEXT
  5
D5
330
17
100
AcDbEntity
  8
0
 62
1
100
AcDbText
 10
20.25
 20
85.25
 30
0.0
 40
0.8
  1
(20,85)
100
AcDbText
  0
TEXT
  5
D6
330
17
100
AcDbEntity
  8
0
 62
1
100
AcDbText
 10
20.25
 20
90.25
 30
0.0
 40
0.8
  1
(20,90)
100
AcDbText
  0
TEXT
  5
D7
330
17
100
AcDbEntity
  8
0
 62
1
100
AcDbText
 10
20.25
 20
95.25
 30
0.0
 40
0.8
  1
(20,95)
100
AcDbText
  0
TEXT
  5
D8
330
17
100
AcDbEntity
  8
0
 62
1
100
AcDbText
 10
25.25
 20
0.25
 30
0.0
 40
0.8
  1
(25,0)
100
AcDbText
  0
TEXT
  5
D9
330
17
100
AcDbEntity
  8
0
 62
1
100
AcDbText
 10
25.25
 20
5.25
 30
0.0
 40
0.8
  1
(25,5)
100
AcDbText
  0
TEXT
  5
DA
330
17
100
AcDbEntity
  8
0
 62
1
100
AcDbText
 10
25.25
 20
10.25
 30
0.0
 40
0.8
  1
(25,10)
100
AcDbText
  0
TEXT
  5
DB
330
17
100
AcDbEntity
  8
0
 62
1
100
AcDbText
 10
25.25
 20
15.25
 30
0.0
 40
0.8
  1
(25,15)
100
AcDbText
  0
TEXT
  5
DC
330
17
100
AcDbEntity
  8
0
 62
1
100
AcDbText
 10
25.25
 20
20.25
 30
0.0
 40
0.8
  1
(25,20)
100
AcDbText
  0
TEXT
  5
DD
330
17
100
AcDbEntity
  8
0
 62
1
100
AcDbText
 10
25.25
 20
25.25
 30
0.0
 40
0.8
  1
(25,25)
100
AcDbText
  0
TEXT
  5
DE
330
17
100
AcDbEntity
  8
0
 62
1
100
AcDbText
 10
25.25
 20
30.25
 30
0.0
 40
0.8
  1
(25,30)
100
AcDbText
  0
TEXT
  5
DF
330
17
100
AcDbEntity
  8
0
 62
1
100
AcDbText
 10
25.25
 20
35.25
 30
0.0
 40
0.8
  1
(25,35)
100
AcDbText
  0
TEXT
  5
E0
330
17
100
AcDbEntity
  8
0
 62
1
100
AcDbText
 10
25.25
 20
40.25
 30
0.0
 40
0.8
  1
(25,40)
100
AcDbText
  0
TEXT
  5
E1
330
17
100
AcDbEntity
  8
0
 62
1
100
AcDbText
 10
25.25
 20
45.25
 30
0.0
 40
0.8
  1
(25,45)
100
AcDbText
  0
TEXT
  5
E2
330
17
100
AcDbEntity
  8
0
 62
1
100
AcDbText
 10
25.25
 20
50.25
 30
0.0
 40
0.8
  1
(25,50)
100
AcDbText
  0
TEXT
  5
E3
330
17
100
AcDbEntity
  8
0
 62
1
100
AcDbText
 10
25.25
 20
55.25
 30
0.0
 40
0.8
  1
(25,55)
100
AcDbText
  0
TEXT
  5
E4
330
17
100
AcDbEntity
  8
0
 62
1
100
AcDbText
 10
25.25
 20
60.25
 30
0.0
 40
0.8
  1
(25,60)
100
AcDbText
  0
TEXT
  5
E5
330
17
100
AcDbEntity
  8
0
 62
1
100
AcDbText
 10
25.25
 20
65.25
 30
0.0
 40
0.8
  1
(25,65)
100
AcDbText
  0
TEXT
  5
E6
330
17
100
AcDbEntity
  8
0
 62
1
100
AcDbText
 10
25.25
 20
70.25
 30
0.0
 40
0.8
  1
(25,70)
100
AcDbText
  0
TEXT
  5
E7
330
17
100
AcDbEntity
  8
0
 62
1
100
AcDbText
 10
25.25
 20
75.25
 30
0.0
 40
0.8
  1
(25,75)
100
AcDbText
  0
TEXT
  5
E8
330
17
100
AcDbEntity
  8
0
 62
1
100
AcDbText
 10
25.25
 20
80.25
 30
0.0
 40
0.8
  1
(25,80)
100
AcDbText
  0
TEXT
  5
E9
330
17
100
AcDbEntity
  8
0
 62
1
100
AcDbText
 10
25.25
 20
85.25
 30
0.0
 40
0.8
  1
(25,85)
100
AcDbText
  0
TEXT
  5
EA
330
17
100
AcDbEntity
  8
0
 62
1
100
AcDbText
 10
25.25
 20
90.25
 30
0.0
 40
0.8
  1
(25,90)
100
AcDbText
  0
TEXT
  5
EB
330
17
100
AcDbEntity
  8
0
 62
1
100
AcDbText
 10
25.25
 20
95.25
 30
0.0
 40
0.8
  1
(25,95)
100
AcDbText
  0
TEXT
  5
EC
330
17
100
AcDbEntity
  8
0
 62
1
100
AcDbText
 10
30.25
 20
0.25
 30
0.0
 40
0.8
  1
(30,0)
100
AcDbText
  0
TEXT
  5
ED
330
17
100
AcDbEntity
  8
0
 62
1
100
AcDbText
 10
30.25
 20
5.25
 30
0.0
 40
0.8
  1
(30,5)
100
AcDbText
  0
TEXT
  5
EE
330
17
100
AcDbEntity
  8
0
 62
1
100
AcDbText
 10
30.25
 20
10.25
 30
0.0
 40
0.8
  1
(30,10)
100
AcDbText
  0
TEXT
  5
EF
330
17
100
AcDbEntity
  8
0
 62
1
100
AcDbText
 10
30.25
 20
15.25
 30
0.0
 40
0.8
  1
(30,15)
100
AcDbText
  0
TEXT
  5
F0
330
17
100
AcDbEntity
  8
0
 62
1
100
AcDbText
 10
30.25
 20
20.25
 30
0.0
 40
0.8
  1
(30,20)
100
AcDbText
  0
TEXT
  5
F1
330
17
100
AcDbEntity
  8
0
 62
1
100
AcDbText
 10
30.25
 20
25.25
 30
0.0
 40
0.8
  1
(30,25)
100
AcDbText
  0
TEXT
  5
F2
330
17
100
AcDbEntity
  8
0
 62
1
100
AcDbText
 10
30.25
 20
30.25
 30
0.0
 40
0.8
  1
(30,30)
100
AcDbText
  0
TEXT
  5
F3
330
17
100
AcDbEntity
  8
0
 62
1
100
AcDbText
 10
30.25
 20
35.25
 30
0.0
 40
0.8
  1
(30,35)
100
AcDbText
  0
TEXT
  5
F4
330
17
100
AcDbEntity
  8
0
 62
1
100
AcDbText
 10
30.25
 20
40.25
 30
0.0
 40
0.8
  1
(30,40)
100
AcDbText
  0
TEXT
  5
F5
330
17
100
AcDbEntity
  8
0
 62
1
100
AcDbText
 10
30.25
 20
45.25
 30
0.0
 40
0.8
  1
(30,45)
100
AcDbText
  0
TEXT
  5
F6
330
17
100
AcDbEntity
  8
0
 62
1
100
AcDbText
 10
30.25
 20
50.25
 30
0.0
 40
0.8
  1
(30,50)
100
AcDbText
  0
TEXT
  5
F7
330
17
100
AcDbEntity
  8
0
 62
1
100
AcDbText
 10
30.25
 20
55.25
 30
0.0
 40
0.8
  1
(30,55)
100
AcDbText
  0
TEXT
  5
F8
330
17
100
AcDbEntity
  8
0
 62
1
100
AcDbText
 10
30.25
 20
60.25
 30
0.0
 40
0.8
  1
(30,60)
100
AcDbText
  0
TEXT
  5
F9
330
17
100
AcDbEntity
  8
0
 62
1
100
AcDbText
 10
30.25
 20
65.25
 30
0.0
 40
0.8
  1
(30,65)
100
AcDbText
  0
TEXT
  5
FA
330
17
100
AcDbEntity
  8
0
 62
1
100
AcDbText
 10
30.25
 20
70.25
 30
0.0
 40
0.8
  1
(30,70)
100
AcDbText
  0
TEXT
  5
FB
330
17
100
AcDbEntity
  8
0
 62
1
100
AcDbText
 10
30.25
 20
75.25
 30
0.0
 40
0.8
  1
(30,75)
100
AcDbText
  0
TEXT
  5
FC
330
17
100
AcDbEntity
  8
0
 62
1
100
AcDbText
 10
30.25
 20
80.25
 30
0.0
 40
0.8
  1
(30,80)
100
AcDbText
  0
TEXT
  5
FD
330
17
100
AcDbEntity
  8
0
 62
1
100
AcDbText
 10
30.25
 20
85.25
 30
0.0
 40
0.8
  1
(30,85)
100
AcDbText
  0
TEXT
  5
FE
330
17
100
AcDbEntity
  8
0
 62
1
100
AcDbText
 10
30.25
 20
90.25
 30
0.0
 40
0.8
  1
(30,90)
100
AcDbText
  0
TEXT
  5
FF
330
17
100
AcDbEntity
  8
0
 62
1
100
AcDbText
 10
30.25
 20
95.25
 30
0.0
 40
0.8
  1
(30,95)
100
AcDbText
  0
TEXT
  5
100
330
17
100
AcDbEntity
  8
0
 62
1
100
AcDbText
 10
35.25
 20
0.25
 30
0.0
 40
0.8
  1
(35,0)
100
AcDbText
  0
TEXT
  5
101
330
17
100
AcDbEntity
  8
0
 62
1
100
AcDbText
 10
35.25
 20
5.25
 30
0.0
 40
0.8
  1
(35,5)
100
AcDbText
  0
TEXT
  5
102
330
17
100
AcDbEntity
  8
0
 62
1
100
AcDbText
 10
35.25
 20
10.25
 30
0.0
 40
0.8
  1
(35,10)
100
AcDbText
  0
TEXT
  5
103
330
17
100
AcDbEntity
  8
0
 62
1
100
AcDbText
 10
35.25
 20
15.25
 30
0.0
 40
0.8
  1
(35,15)
100
AcDbText
  0
TEXT
  5
104
330
17
100
AcDbEntity
  8
0
 62
1
100
AcDbText
 10
35.25
 20
20.25
 30
0.0
 40
0.8
  1
(35,20)
100
AcDbText
  0
TEXT
  5
105
330
17
100
AcDbEntity
  8
0
 62
1
100
AcDbText
 10
35.25
 20
25.25
 30
0.0
 40
0.8
  1
(35,25)
100
AcDbText
  0
TEXT
  5
106
330
17
100
AcDbEntity
  8
0
 62
1
100
AcDbText
 10
35.25
 20
30.25
 30
0.0
 40
0.8
  1
(35,30)
100
AcDbText
  0
TEXT
  5
107
330
17
100
AcDbEntity
  8
0
 62
1
100
AcDbText
 10
35.25
 20
35.25
 30
0.0
 40
0.8
  1
(35,35)
100
AcDbText
  0
TEXT
  5
108
330
17
100
AcDbEntity
  8
0
 62
1
100
AcDbText
 10
35.25
 20
40.25
 30
0.0
 40
0.8
  1
(35,40)
100
AcDbText
  0
TEXT
  5
109
330
17
100
AcDbEntity
  8
0
 62
1
100
AcDbText
 10
35.25
 20
45.25
 30
0.0
 40
0.8
  1
(35,45)
100
AcDbText
  0
TEXT
  5
10A
330
17
100
AcDbEntity
  8
0
 62
1
100
AcDbText
 10
35.25
 20
50.25
 30
0.0
 40
0.8
  1
(35,50)
100
AcDbText
  0
TEXT
  5
10B
330
17
100
AcDbEntity
  8
0
 62
1
100
AcDbText
 10
35.25
 20
55.25
 30
0.0
 40
0.8
  1
(35,55)
100
AcDbText
  0
TEXT
  5
10C
330
17
100
AcDbEntity
  8
0
 62
1
100
AcDbText
 10
35.25
 20
60.25
 30
0.0
 40
0.8
  1
(35,60)
100
AcDbText
  0
TEXT
  5
10D
330
17
100
AcDbEntity
  8
0
 62
1
100
AcDbText
 10
35.25
 20
65.25
 30
0.0
 40
0.8
  1
(35,65)
100
AcDbText
  0
TEXT
  5
10E
330
17
100
AcDbEntity
  8
0
 62
1
100
AcDbText
 10
35.25
 20
70.25
 30
0.0
 40
0.8
  1
(35,70)
100
AcDbText
  0
TEXT
  5
10F
330
17
100
AcDbEntity
  8
0
 62
1
100
AcDbText
 10
35.25
 20
75.25
 30
0.0
 40
0.8
  1
(35,75)
100
AcDbText
  0
TEXT
  5
110
330
17
100
AcDbEntity
  8
0
 62
1
100
AcDbText
 10
35.25
 20
80.25
 30
0.0
 40
0.8
  1
(35,80)
100
AcDbText
  0
TEXT
  5
111
330
17
100
AcDbEntity
  8
0
 62
1
100
AcDbText
 10
35.25
 20
85.25
 30
0.0
 40
0.8
  1
(35,85)
100
AcDbText
  0
TEXT
  5
112
330
17
100
AcDbEntity
  8
0
 62
1
100
AcDbText
 10
35.25
 20
90.25
 30
0.0
 40
0.8
  1
(35,90)
100
AcDbText
  0
TEXT
  5
113
330
17
100
AcDbEntity
  8
0
 62
1
100
AcDbText
 10
35.25
 20
95.25
 30
0.0
 40
0.8
  1
(35,95)
100
AcDbText
  0
TEXT
  5
114
330
17
100
AcDbEntity
  8
0
 62
1
100
AcDbText
 10
40.25
 20
0.25
 30
0.0
 40
0.8
  1
(40,0)
100
AcDbText
  0
TEXT
  5
115
330
17
100
AcDbEntity
  8
0
 62
1
100
AcDbText
 10
40.25
 20
5.25
 30
0.0
 40
0.8
  1
(40,5)
100
AcDbText
  0
TEXT
  5
116
330
17
100
AcDbEntity
  8
0
 62
1
100
AcDbText
 10
40.25
 20
10.25
 30
0.0
 40
0.8
  1
(40,10)
100
AcDbText
  0
TEXT
  5
117
330
17
100
AcDbEntity
  8
0
 62
1
100
AcDbText
 10
40.25
 20
15.25
 30
0.0
 40
0.8
  1
(40,15)
100
AcDbText
  0
TEXT
  5
118
330
17
100
AcDbEntity
  8
0
 62
1
100
AcDbText
 10
40.25
 20
20.25
 30
0.0
 40
0.8
  1
(40,20)
100
AcDbText
  0
TEXT
  5
119
330
17
100
AcDbEntity
  8
0
 62
1
100
AcDbText
 10
40.25
 20
25.25
 30
0.0
 40
0.8
  1
(40,25)
100
AcDbText
  0
TEXT
  5
11A
330
17
100
AcDbEntity
  8
0
 62
1
100
AcDbText
 10
40.25
 20
30.25
 30
0.0
 40
0.8
  1
(40,30)
100
AcDbText
  0
TEXT
  5
11B
330
17
100
AcDbEntity
  8
0
 62
1
100
AcDbText
 10
40.25
 20
35.25
 30
0.0
 40
0.8
  1
(40,35)
100
AcDbText
  0
TEXT
  5
11C
330
17
100
AcDbEntity
  8
0
 62
1
100
AcDbText
 10
40.25
 20
40.25
 30
0.0
 40
0.8
  1
(40,40)
100
AcDbText
  0
TEXT
  5
11D
330
17
100
AcDbEntity
  8
0
 62
1
100
AcDbText
 10
40.25
 20
45.25
 30
0.0
 40
0.8
  1
(40,45)
100
AcDbText
  0
TEXT
  5
11E
330
17
100
AcDbEntity
  8
0
 62
1
100
AcDbText
 10
40.25
 20
50.25
 30
0.0
 40
0.8
  1
(40,50)
100
AcDbText
  0
TEXT
  5
11F
330
17
100
AcDbEntity
  8
0
 62
1
100
AcDbText
 10
40.25
 20
55.25
 30
0.0
 40
0.8
  1
(40,55)
100
AcDbText
  0
TEXT
  5
120
330
17
100
AcDbEntity
  8
0
 62
1
100
AcDbText
 10
40.25
 20
60.25
 30
0.0
 40
0.8
  1
(40,60)
100
AcDbText
  0
TEXT
  5
121
330
17
100
AcDbEntity
  8
0
 62
1
100
AcDbText
 10
40.25
 20
65.25
 30
0.0
 40
0.8
  1
(40,65)
100
AcDbText
  0
TEXT
  5
122
330
17
100
AcDbEntity
  8
0
 62
1
100
AcDbText
 10
40.25
 20
70.25
 30
0.0
 40
0.8
  1
(40,70)
100
AcDbText
  0
TEXT
  5
123
330
17
100
AcDbEntity
  8
0
 62
1
100
AcDbText
 10
40.25
 20
75.25
 30
0.0
 40
0.8
  1
(40,75)
100
AcDbText
  0
TEXT
  5
124
330
17
100
AcDbEntity
  8
0
 62
1
100
AcDbText
 10
40.25
 20
80.25
 30
0.0
 40
0.8
  1
(40,80)
100
AcDbText
  0
TEXT
  5
125
330
17
100
AcDbEntity
  8
0
 62
1
100
AcDbText
 10
40.25
 20
85.25
 30
0.0
 40
0.8
  1
(40,85)
100
AcDbText
  0
TEXT
  5
126
330
17
100
AcDbEntity
  8
0
 62
1
100
AcDbText
 10
40.25
 20
90.25
 30
0.0
 40
0.8
  1
(40,90)
100
AcDbText
  0
TEXT
  5
127
330
17
100
AcDbEntity
  8
0
 62
1
100
AcDbText
 10
40.25
 20
95.25
 30
0.0
 40
0.8
  1
(40,95)
100
AcDbText
  0
TEXT
  5
128
330
17
100
AcDbEntity
  8
0
 62
1
100
AcDbText
 10
45.25
 20
0.25
 30
0.0
 40
0.8
  1
(45,0)
100
AcDbText
  0
TEXT
  5
129
330
17
100
AcDbEntity
  8
0
 62
1
100
AcDbText
 10
45.25
 20
5.25
 30
0.0
 40
0.8
  1
(45,5)
100
AcDbText
  0
TEXT
  5
12A
330
17
100
AcDbEntity
  8
0
 62
1
100
AcDbText
 10
45.25
 20
10.25
 30
0.0
 40
0.8
  1
(45,10)
100
AcDbText
  0
TEXT
  5
12B
330
17
100
AcDbEntity
  8
0
 62
1
100
AcDbText
 10
45.25
 20
15.25
 30
0.0
 40
0.8
  1
(45,15)
100
AcDbText
  0
TEXT
  5
12C
330
17
100
AcDbEntity
  8
0
 62
1
100
AcDbText
 10
45.25
 20
20.25
 30
0.0
 40
0.8
  1
(45,20)
100
AcDbText
  0
TEXT
  5
12D
330
17
100
AcDbEntity
  8
0
 62
1
100
AcDbText
 10
45.25
 20
25.25
 30
0.0
 40
0.8
  1
(45,25)
100
AcDbText
  0
TEXT
  5
12E
330
17
100
AcDbEntity
  8
0
 62
1
100
AcDbText
 10
45.25
 20
30.25
 30
0.0
 40
0.8
  1
(45,30)
100
AcDbText
  0
TEXT
  5
12F
330
17
100
AcDbEntity
  8
0
 62
1
100
AcDbText
 10
45.25
 20
35.25
 30
0.0
 40
0.8
  1
(45,35)
100
AcDbText
  0
TEXT
  5
130
330
17
100
AcDbEntity
  8
0
 62
1
100
AcDbText
 10
45.25
 20
40.25
 30
0.0
 40
0.8
  1
(45,40)
100
AcDbText
  0
TEXT
  5
131
330
17
100
AcDbEntity
  8
0
 62
1
100
AcDbText
 10
45.25
 20
45.25
 30
0.0
 40
0.8
  1
(45,45)
100
AcDbText
  0
TEXT
  5
132
330
17
100
AcDbEntity
  8
0
 62
1
100
AcDbText
 10
45.25
 20
50.25
 30
0.0
 40
0.8
  1
(45,50)
100
AcDbText
  0
TEXT
  5
133
330
17
100
AcDbEntity
  8
0
 62
1
100
AcDbText
 10
45.25
 20
55.25
 30
0.0
 40
0.8
  1
(45,55)
100
AcDbText
  0
TEXT
  5
134
330
17
100
AcDbEntity
  8
0
 62
1
100
AcDbText
 10
45.25
 20
60.25
 30
0.0
 40
0.8
  1
(45,60)
100
AcDbText
  0
TEXT
  5
135
330
17
100
AcDbEntity
  8
0
 62
1
100
AcDbText
 10
45.25
 20
65.25
 30
0.0
 40
0.8
  1
(45,65)
100
AcDbText
  0
TEXT
  5
136
330
17
100
AcDbEntity
  8
0
 62
1
100
AcDbText
 10
45.25
 20
70.25
 30
0.0
 40
0.8
  1
(45,70)
100
AcDbText
  0
TEXT
  5
137
330
17
100
AcDbEntity
  8
0
 62
1
100
AcDbText
 10
45.25
 20
75.25
 30
0.0
 40
0.8
  1
(45,75)
100
AcDbText
  0
TEXT
  5
138
330
17
100
AcDbEntity
  8
0
 62
1
100
AcDbText
 10
45.25
 20
80.25
 30
0.0
 40
0.8
  1
(45,80)
100
AcDbText
  0
TEXT
  5
139
330
17
100
AcDbEntity
  8
0
 62
1
100
AcDbText
 10
45.25
 20
85.25
 30
0.0
 40
0.8
  1
(45,85)
100
AcDbText
  0
TEXT
  5
13A
330
17
100
AcDbEntity
  8
0
 62
1
100
AcDbText
 10
45.25
 20
90.25
 30
0.0
 40
0.8
  1
(45,90)
100
AcDbText
  0
TEXT
  5
13B
330
17
100
AcDbEntity
  8
0
 62
1
100
AcDbText
 10
45.25
 20
95.25
 30
0.0
 40
0.8
  1
(45,95)
100
AcDbText
  0
TEXT
  5
13C
330
17
100
AcDbEntity
  8
0
 62
1
100
AcDbText
 10
50.25
 20
0.25
 30
0.0
 40
0.8
  1
(50,0)
100
AcDbText
  0
TEXT
  5
13D
330
17
100
AcDbEntity
  8
0
 62
1
100
AcDbText
 10
50.25
 20
5.25
 30
0.0
 40
0.8
  1
(50,5)
100
AcDbText
  0
TEXT
  5
13E
330
17
100
AcDbEntity
  8
0
 62
1
100
AcDbText
 10
50.25
 20
10.25
 30
0.0
 40
0.8
  1
(50,10)
100
AcDbText
  0
TEXT
  5
13F
330
17
100
AcDbEntity
  8
0
 62
1
100
AcDbText
 10
50.25
 20
15.25
 30
0.0
 40
0.8
  1
(50,15)
100
AcDbText
  0
TEXT
  5
140
330
17
100
AcDbEntity
  8
0
 62
1
100
AcDbText
 10
50.25
 20
20.25
 30
0.0
 40
0.8
  1
(50,20)
100
AcDbText
  0
TEXT
  5
141
330
17
100
AcDbEntity
  8
0
 62
1
100
AcDbText
 10
50.25
 20
25.25
 30
0.0
 40
0.8
  1
(50,25)
100
AcDbText
  0
TEXT
  5
142
330
17
100
AcDbEntity
  8
0
 62
1
100
AcDbText
 10
50.25
 20
30.25
 30
0.0
 40
0.8
  1
(50,30)
100
AcDbText
  0
TEXT
  5
143
330
17
100
AcDbEntity
  8
0
 62
1
100
AcDbText
 10
50.25
 20
35.25
 30
0.0
 40
0.8
  1
(50,35)
100
AcDbText
  0
TEXT
  5
144
330
17
100
AcDbEntity
  8
0
 62
1
100
AcDbText
 10
50.25
 20
40.25
 30
0.0
 40
0.8
  1
(50,40)
100
AcDbText
  0
TEXT
  5
145
330
17
100
AcDbEntity
  8
0
 62
1
100
AcDbText
 10
50.25
 20
45.25
 30
0.0
 40
0.8
  1
(50,45)
100
AcDbText
  0
TEXT
  5
146
330
17
100
AcDbEntity
  8
0
 62
1
100
AcDbText
 10
50.25
 20
50.25
 30
0.0
 40
0.8
  1
(50,50)
100
AcDbText
  0
TEXT
  5
147
330
17
100
AcDbEntity
  8
0
 62
1
100
AcDbText
 10
50.25
 20
55.25
 30
0.0
 40
0.8
  1
(50,55)
100
AcDbText
  0
TEXT
  5
148
330
17
100
AcDbEntity
  8
0
 62
1
100
AcDbText
 10
50.25
 20
60.25
 30
0.0
 40
0.8
  1
(50,60)
100
AcDbText
  0
TEXT
  5
149
330
17
100
AcDbEntity
  8
0
 62
1
100
AcDbText
 10
50.25
 20
65.25
 30
0.0
 40
0.8
  1
(50,65)
100
AcDbText
  0
TEXT
  5
14A
330
17
100
AcDbEntity
  8
0
 62
1
100
AcDbText
 10
50.25
 20
70.25
 30
0.0
 40
0.8
  1
(50,70)
100
AcDbText
  0
TEXT
  5
14B
330
17
100
AcDbEntity
  8
0
 62
1
100
AcDbText
 10
50.25
 20
75.25
 30
0.0
 40
0.8
  1
(50,75)
100
AcDbText
  0
TEXT
  5
14C
330
17
100
AcDbEntity
  8
0
 62
1
100
AcDbText
 10
50.25
 20
80.25
 30
0.0
 40
0.8
  1
(50,80)
100
AcDbText
  0
TEXT
  5
14D
330
17
100
AcDbEntity
  8
0
 62
1
100
AcDbText
 10
50.25
 20
85.25
 30
0.0
 40
0.8
  1
(50,85)
100
AcDbText
  0
TEXT
  5
14E
330
17
100
AcDbEntity
  8
0
 62
1
100
AcDbText
 10
50.25
 20
90.25
 30
0.0
 40
0.8
  1
(50,90)
100
AcDbText
  0
TEXT
  5
14F
330
17
100
AcDbEntity
  8
0
 62
1
100
AcDbText
 10
50.25
 20
95.25
 30
0.0
 40
0.8
  1
(50,95)
100
AcDbText
  0
TEXT
  5
150
330
17
100
AcDbEntity
  8
0
 62
1
100
AcDbText
 10
55.25
 20
0.25
 30
0.0
 40
0.8
  1
(55,0)
100
AcDbText
  0
TEXT
  5
151
330
17
100
AcDbEntity
  8
0
 62
1
100
AcDbText
 10
55.25
 20
5.25
 30
0.0
 40
0.8
  1
(55,5)
100
AcDbText
  0
TEXT
  5
152
330
17
100
AcDbEntity
  8
0
 62
1
100
AcDbText
 10
55.25
 20
10.25
 30
0.0
 40
0.8
  1
(55,10)
100
AcDbText
  0
TEXT
  5
153
330
17
100
AcDbEntity
  8
0
 62
1
100
AcDbText
 10
55.25
 20
15.25
 30
0.0
 40
0.8
  1
(55,15)
100
AcDbText
  0
TEXT
  5
154
330
17
100
AcDbEntity
  8
0
 62
1
100
AcDbText
 10
55.25
 20
20.25
 30
0.0
 40
0.8
  1
(55,20)
100
AcDbText
  0
TEXT
  5
155
330
17
100
AcDbEntity
  8
0
 62
1
100
AcDbText
 10
55.25
 20
25.25
 30
0.0
 40
0.8
  1
(55,25)
100
AcDbText
  0
TEXT
  5
156
330
17
100
AcDbEntity
  8
0
 62
1
100
AcDbText
 10
55.25
 20
30.25
 30
0.0
 40
0.8
  1
(55,30)
100
AcDbText
  0
TEXT
  5
157
330
17
100
AcDbEntity
  8
0
 62
1
100
AcDbText
 10
55.25
 20
35.25
 30
0.0
 40
0.8
  1
(55,35)
100
AcDbText
  0
TEXT
  5
158
330
17
100
AcDbEntity
  8
0
 62
1
100
AcDbText
 10
55.25
 20
40.25
 30
0.0
 40
0.8
  1
(55,40)
100
AcDbText
  0
TEXT
  5
159
330
17
100
AcDbEntity
  8
0
 62
1
100
AcDbText
 10
55.25
 20
45.25
 30
0.0
 40
0.8
  1
(55,45)
100
AcDbText
  0
TEXT
  5
15A
330
17
100
AcDbEntity
  8
0
 62
1
100
AcDbText
 10
55.25
 20
50.25
 30
0.0
 40
0.8
  1
(55,50)
100
AcDbText
  0
TEXT
  5
15B
330
17
100
AcDbEntity
  8
0
 62
1
100
AcDbText
 10
55.25
 20
55.25
 30
0.0
 40
0.8
  1
(55,55)
100
AcDbText
  0
TEXT
  5
15C
330
17
100
AcDbEntity
  8
0
 62
1
100
AcDbText
 10
55.25
 20
60.25
 30
0.0
 40
0.8
  1
(55,60)
100
AcDbText
  0
TEXT
  5
15D
330
17
100
AcDbEntity
  8
0
 62
1
100
AcDbText
 10
55.25
 20
65.25
 30
0.0
 40
0.8
  1
(55,65)
100
AcDbText
  0
TEXT
  5
15E
330
17
100
AcDbEntity
  8
0
 62
1
100
AcDbText
 10
55.25
 20
70.25
 30
0.0
 40
0.8
  1
(55,70)
100
AcDbText
  0
TEXT
  5
15F
330
17
100
AcDbEntity
  8
0
 62
1
100
AcDbText
 10
55.25
 20
75.25
 30
0.0
 40
0.8
  1
(55,75)
100
AcDbText
  0
TEXT
  5
160
330
17
100
AcDbEntity
  8
0
 62
1
100
AcDbText
 10
55.25
 20
80.25
 30
0.0
 40
0.8
  1
(55,80)
100
AcDbText
  0
TEXT
  5
161
330
17
100
AcDbEntity
  8
0
 62
1
100
AcDbText
 10
55.25
 20
85.25
 30
0.0
 40
0.8
  1
(55,85)
100
AcDbText
  0
TEXT
  5
162
330
17
100
AcDbEntity
  8
0
 62
1
100
AcDbText
 10
55.25
 20
90.25
 30
0.0
 40
0.8
  1
(55,90)
100
AcDbText
  0
TEXT
  5
163
330
17
100
AcDbEntity
  8
0
 62
1
100
AcDbText
 10
55.25
 20
95.25
 30
0.0
 40
0.8
  1
(55,95)
100
AcDbText
  0
TEXT
  5
164
330
17
100
AcDbEntity
  8
0
 62
1
100
AcDbText
 10
60.25
 20
0.25
 30
0.0
 40
0.8
  1
(60,0)
100
AcDbText
  0
TEXT
  5
165
330
17
100
AcDbEntity
  8
0
 62
1
100
AcDbText
 10
60.25
 20
5.25
 30
0.0
 40
0.8
  1
(60,5)
100
AcDbText
  0
TEXT
  5
166
330
17
100
AcDbEntity
  8
0
 62
1
100
AcDbText
 10
60.25
 20
10.25
 30
0.0
 40
0.8
  1
(60,10)
100
AcDbText
  0
TEXT
  5
167
330
17
100
AcDbEntity
  8
0
 62
1
100
AcDbText
 10
60.25
 20
15.25
 30
0.0
 40
0.8
  1
(60,15)
100
AcDbText
  0
TEXT
  5
168
330
17
100
AcDbEntity
  8
0
 62
1
100
AcDbText
 10
60.25
 20
20.25
 30
0.0
 40
0.8
  1
(60,20)
100
AcDbText
  0
TEXT
  5
169
330
17
100
AcDbEntity
  8
0
 62
1
100
AcDbText
 10
60.25
 20
25.25
 30
0.0
 40
0.8
  1
(60,25)
100
AcDbText
  0
TEXT
  5
16A
330
17
100
AcDbEntity
  8
0
 62
1
100
AcDbText
 10
60.25
 20
30.25
 30
0.0
 40
0.8
  1
(60,30)
100
AcDbText
  0
TEXT
  5
16B
330
17
100
AcDbEntity
  8
0
 62
1
100
AcDbText
 10
60.25
 20
35.25
 30
0.0
 40
0.8
  1
(60,35)
100
AcDbText
  0
TEXT
  5
16C
330
17
100
AcDbEntity
  8
0
 62
1
100
AcDbText
 10
60.25
 20
40.25
 30
0.0
 40
0.8
  1
(60,40)
100
AcDbText
  0
TEXT
  5
16D
330
17
100
AcDbEntity
  8
0
 62
1
100
AcDbText
 10
60.25
 20
45.25
 30
0.0
 40
0.8
  1
(60,45)
100
AcDbText
  0
TEXT
  5
16E
330
17
100
AcDbEntity
  8
0
 62
1
100
AcDbText
 10
60.25
 20
50.25
 30
0.0
 40
0.8
  1
(60,50)
100
AcDbText
  0
TEXT
  5
16F
330
17
100
AcDbEntity
  8
0
 62
1
100
AcDbText
 10
60.25
 20
55.25
 30
0.0
 40
0.8
  1
(60,55)
100
AcDbText
  0
TEXT
  5
170
330
17
100
AcDbEntity
  8
0
 62
1
100
AcDbText
 10
60.25
 20
60.25
 30
0.0
 40
0.8
  1
(60,60)
100
AcDbText
  0
TEXT
  5
171
330
17
100
AcDbEntity
  8
0
 62
1
100
AcDbText
 10
60.25
 20
65.25
 30
0.0
 40
0.8
  1
(60,65)
100
AcDbText
  0
TEXT
  5
172
330
17
100
AcDbEntity
  8
0
 62
1
100
AcDbText
 10
60.25
 20
70.25
 30
0.0
 40
0.8
  1
(60,70)
100
AcDbText
  0
TEXT
  5
173
330
17
100
AcDbEntity
  8
0
 62
1
100
AcDbText
 10
60.25
 20
75.25
 30
0.0
 40
0.8
  1
(60,75)
100
AcDbText
  0
TEXT
  5
174
330
17
100
AcDbEntity
  8
0
 62
1
100
AcDbText
 10
60.25
 20
80.25
 30
0.0
 40
0.8
  1
(60,80)
100
AcDbText
  0
TEXT
  5
175
330
17
100
AcDbEntity
  8
0
 62
1
100
AcDbText
 10
60.25
 20
85.25
 30
0.0
 40
0.8
  1
(60,85)
100
AcDbText
  0
TEXT
  5
176
330
17
100
AcDbEntity
  8
0
 62
1
100
AcDbText
 10
60.25
 20
90.25
 30
0.0
 40
0.8
  1
(60,90)
100
AcDbText
  0
TEXT
  5
177
330
17
100
AcDbEntity
  8
0
 62
1
100
AcDbText
 10
60.25
 20
95.25
 30
0.0
 40
0.8
  1
(60,95)
100
AcDbText
  0
TEXT
  5
178
330
17
100
AcDbEntity
  8
0
 62
1
100
AcDbText
 10
65.25
 20
0.25
 30
0.0
 40
0.8
  1
(65,0)
100
AcDbText
  0
TEXT
  5
179
330
17
100
AcDbEntity
  8
0
 62
1
100
AcDbText
 10
65.25
 20
5.25
 30
0.0
 40
0.8
  1
(65,5)
100
AcDbText
  0
TEXT
  5
17A
330
17
100
AcDbEntity
  8
0
 62
1
100
AcDbText
 10
65.25
 20
10.25
 30
0.0
 40
0.8
  1
(65,10)
100
AcDbText
  0
TEXT
  5
17B
330
17
100
AcDbEntity
  8
0
 62
1
100
AcDbText
 10
65.25
 20
15.25
 30
0.0
 40
0.8
  1
(65,15)
100
AcDbText
  0
TEXT
  5
17C
330
17
100
AcDbEntity
  8
0
 62
1
100
AcDbText
 10
65.25
 20
20.25
 30
0.0
 40
0.8
  1
(65,20)
100
AcDbText
  0
TEXT
  5
17D
330
17
100
AcDbEntity
  8
0
 62
1
100
AcDbText
 10
65.25
 20
25.25
 30
0.0
 40
0.8
  1
(65,25)
100
AcDbText
  0
TEXT
  5
17E
330
17
100
AcDbEntity
  8
0
 62
1
100
AcDbText
 10
65.25
 20
30.25
 30
0.0
 40
0.8
  1
(65,30)
100
AcDbText
  0
TEXT
  5
17F
330
17
100
AcDbEntity
  8
0
 62
1
100
AcDbText
 10
65.25
 20
35.25
 30
0.0
 40
0.8
  1
(65,35)
100
AcDbText
  0
TEXT
  5
180
330
17
100
AcDbEntity
  8
0
 62
1
100
AcDbText
 10
65.25
 20
40.25
 30
0.0
 40
0.8
  1
(65,40)
100
AcDbText
  0
TEXT
  5
181
330
17
100
AcDbEntity
  8
0
 62
1
100
AcDbText
 10
65.25
 20
45.25
 30
0.0
 40
0.8
  1
(65,45)
100
AcDbText
  0
TEXT
  5
182
330
17
100
AcDbEntity
  8
0
 62
1
100
AcDbText
 10
65.25
 20
50.25
 30
0.0
 40
0.8
  1
(65,50)
100
AcDbText
  0
TEXT
  5
183
330
17
100
AcDbEntity
  8
0
 62
1
100
AcDbText
 10
65.25
 20
55.25
 30
0.0
 40
0.8
  1
(65,55)
100
AcDbText
  0
TEXT
  5
184
330
17
100
AcDbEntity
  8
0
 62
1
100
AcDbText
 10
65.25
 20
60.25
 30
0.0
 40
0.8
  1
(65,60)
100
AcDbText
  0
TEXT
  5
185
330
17
100
AcDbEntity
  8
0
 62
1
100
AcDbText
 10
65.25
 20
65.25
 30
0.0
 40
0.8
  1
(65,65)
100
AcDbText
  0
TEXT
  5
186
330
17
100
AcDbEntity
  8
0
 62
1
100
AcDbText
 10
65.25
 20
70.25
 30
0.0
 40
0.8
  1
(65,70)
100
AcDbText
  0
TEXT
  5
187
330
17
100
AcDbEntity
  8
0
 62
1
100
AcDbText
 10
65.25
 20
75.25
 30
0.0
 40
0.8
  1
(65,75)
100
AcDbText
  0
TEXT
  5
188
330
17
100
AcDbEntity
  8
0
 62
1
100
AcDbText
 10
65.25
 20
80.25
 30
0.0
 40
0.8
  1
(65,80)
100
AcDbText
  0
TEXT
  5
189
330
17
100
AcDbEntity
  8
0
 62
1
100
AcDbText
 10
65.25
 20
85.25
 30
0.0
 40
0.8
  1
(65,85)
100
AcDbText
  0
TEXT
  5
18A
330
17
100
AcDbEntity
  8
0
 62
1
100
AcDbText
 10
65.25
 20
90.25
 30
0.0
 40
0.8
  1
(65,90)
100
AcDbText
  0
TEXT
  5
18B
330
17
100
AcDbEntity
  8
0
 62
1
100
AcDbText
 10
65.25
 20
95.25
 30
0.0
 40
0.8
  1
(65,95)
100
AcDbText
  0
TEXT
  5
18C
330
17
100
AcDbEntity
  8
0
 62
1
100
AcDbText
 10
70.25
 20
0.25
 30
0.0
 40
0.8
  1
(70,0)
100
AcDbText
  0
TEXT
  5
18D
330
17
100
AcDbEntity
  8
0
 62
1
100
AcDbText
 10
70.25
 20
5.25
 30
0.0
 40
0.8
  1
(70,5)
100
AcDbText
  0
TEXT
  5
18E
330
17
100
AcDbEntity
  8
0
 62
1
100
AcDbText
 10
70.25
 20
10.25
 30
0.0
 40
0.8
  1
(70,10)
100
AcDbText
  0
TEXT
  5
18F
330
17
100
AcDbEntity
  8
0
 62
1
100
AcDbText
 10
70.25
 20
15.25
 30
0.0
 40
0.8
  1
(70,15)
100
AcDbText
  0
TEXT
  5
190
330
17
100
AcDbEntity
  8
0
 62
1
100
AcDbText
 10
70.25
 20
20.25
 30
0.0
 40
0.8
  1
(70,20)
100
AcDbText
  0
TEXT
  5
191
330
17
100
AcDbEntity
  8
0
 62
1
100
AcDbText
 10
70.25
 20
25.25
 30
0.0
 40
0.8
  1
(70,25)
100
AcDbText
  0
TEXT
  5
192
330
17
100
AcDbEntity
  8
0
 62
1
100
AcDbText
 10
70.25
 20
30.25
 30
0.0
 40
0.8
  1
(70,30)
100
AcDbText
  0
TEXT
  5
193
330
17
100
AcDbEntity
  8
0
 62
1
100
AcDbText
 10
70.25
 20
35.25
 30
0.0
 40
0.8
  1
(70,35)
100
AcDbText
  0
TEXT
  5
194
330
17
100
AcDbEntity
  8
0
 62
1
100
AcDbText
 10
70.25
 20
40.25
 30
0.0
 40
0.8
  1
(70,40)
100
AcDbText
  0
TEXT
  5
195
330
17
100
AcDbEntity
  8
0
 62
1
100
AcDbText
 10
70.25
 20
45.25
 30
0.0
 40
0.8
  1
(70,45)
100
AcDbText
  0
TEXT
  5
196
330
17
100
AcDbEntity
  8
0
 62
1
100
AcDbText
 10
70.25
 20
50.25
 30
0.0
 40
0.8
  1
(70,50)
100
AcDbText
  0
TEXT
  5
197
330
17
100
AcDbEntity
  8
0
 62
1
100
AcDbText
 10
70.25
 20
55.25
 30
0.0
 40
0.8
  1
(70,55)
100
AcDbText
  0
TEXT
  5
198
330
17
100
AcDbEntity
  8
0
 62
1
100
AcDbText
 10
70.25
 20
60.25
 30
0.0
 40
0.8
  1
(70,60)
100
AcDbText
  0
TEXT
  5
199
330
17
100
AcDbEntity
  8
0
 62
1
100
AcDbText
 10
70.25
 20
65.25
 30
0.0
 40
0.8
  1
(70,65)
100
AcDbText
  0
TEXT
  5
19A
330
17
100
AcDbEntity
  8
0
 62
1
100
AcDbText
 10
70.25
 20
70.25
 30
0.0
 40
0.8
  1
(70,70)
100
AcDbText
  0
TEXT
  5
19B
330
17
100
AcDbEntity
  8
0
 62
1
100
AcDbText
 10
70.25
 20
75.25
 30
0.0
 40
0.8
  1
(70,75)
100
AcDbText
  0
TEXT
  5
19C
330
17
100
AcDbEntity
  8
0
 62
1
100
AcDbText
 10
70.25
 20
80.25
 30
0.0
 40
0.8
  1
(70,80)
100
AcDbText
  0
TEXT
  5
19D
330
17
100
AcDbEntity
  8
0
 62
1
100
AcDbText
 10
70.25
 20
85.25
 30
0.0
 40
0.8
  1
(70,85)
100
AcDbText
  0
TEXT
  5
19E
330
17
100
AcDbEntity
  8
0
 62
1
100
AcDbText
 10
70.25
 20
90.25
 30
0.0
 40
0.8
  1
(70,90)
100
AcDbText
  0
TEXT
  5
19F
330
17
100
AcDbEntity
  8
0
 62
1
100
AcDbText
 10
70.25
 20
95.25
 30
0.0
 40
0.8
  1
(70,95)
100
AcDbText
  0
TEXT
  5
1A0
330
17
100
AcDbEntity
  8
0
 62
1
100
AcDbText
 10
75.25
 20
0.25
 30
0.0
 40
0.8
  1
(75,0)
100
AcDbText
  0
TEXT
  5
1A1
330
17
100
AcDbEntity
  8
0
 62
1
100
AcDbText
 10
75.25
 20
5.25
 30
0.0
 40
0.8
  1
(75,5)
100
AcDbText
  0
TEXT
  5
1A2
330
17
100
AcDbEntity
  8
0
 62
1
100
AcDbText
 10
75.25
 20
10.25
 30
0.0
 40
0.8
  1
(75,10)
100
AcDbText
  0
TEXT
  5
1A3
330
17
100
AcDbEntity
  8
0
 62
1
100
AcDbText
 10
75.25
 20
15.25
 30
0.0
 40
0.8
  1
(75,15)
100
AcDbText
  0
TEXT
  5
1A4
330
17
100
AcDbEntity
  8
0
 62
1
100
AcDbText
 10
75.25
 20
20.25
 30
0.0
 40
0.8
  1
(75,20)
100
AcDbText
  0
TEXT
  5
1A5
330
17
100
AcDbEntity
  8
0
 62
1
100
AcDbText
 10
75.25
 20
25.25
 30
0.0
 40
0.8
  1
(75,25)
100
AcDbText
  0
TEXT
  5
1A6
330
17
100
AcDbEntity
  8
0
 62
1
100
AcDbText
 10
75.25
 20
30.25
 30
0.0
 40
0.8
  1
(75,30)
100
AcDbText
  0
TEXT
  5
1A7
330
17
100
AcDbEntity
  8
0
 62
1
100
AcDbText
 10
75.25
 20
35.25
 30
0.0
 40
0.8
  1
(75,35)
100
AcDbText
  0
TEXT
  5
1A8
330
17
100
AcDbEntity
  8
0
 62
1
100
AcDbText
 10
75.25
 20
40.25
 30
0.0
 40
0.8
  1
(75,40)
100
AcDbText
  0
TEXT
  5
1A9
330
17
100
AcDbEntity
  8
0
 62
1
100
AcDbText
 10
75.25
 20
45.25
 30
0.0
 40
0.8
  1
(75,45)
100
AcDbText
  0
TEXT
  5
1AA
330
17
100
AcDbEntity
  8
0
 62
1
100
AcDbText
 10
75.25
 20
50.25
 30
0.0
 40
0.8
  1
(75,50)
100
AcDbText
  0
TEXT
  5
1AB
330
17
100
AcDbEntity
  8
0
 62
1
100
AcDbText
 10
75.25
 20
55.25
 30
0.0
 40
0.8
  1
(75,55)
100
AcDbText
  0
TEXT
  5
1AC
330
17
100
AcDbEntity
  8
0
 62
1
100
AcDbText
 10
75.25
 20
60.25
 30
0.0
 40
0.8
  1
(75,60)
100
AcDbText
  0
TEXT
  5
1AD
330
17
100
AcDbEntity
  8
0
 62
1
100
AcDbText
 10
75.25
 20
65.25
 30
0.0
 40
0.8
  1
(75,65)
100
AcDbText
  0
TEXT
  5
1AE
330
17
100
AcDbEntity
  8
0
 62
1
100
AcDbText
 10
75.25
 20
70.25
 30
0.0
 40
0.8
  1
(75,70)
100
AcDbText
  0
TEXT
  5
1AF
330
17
100
AcDbEntity
  8
0
 62
1
100
AcDbText
 10
75.25
 20
75.25
 30
0.0
 40
0.8
  1
(75,75)
100
AcDbText
  0
TEXT
  5
1B0
330
17
100
AcDbEntity
  8
0
 62
1
100
AcDbText
 10
75.25
 20
80.25
 30
0.0
 40
0.8
  1
(75,80)
100
AcDbText
  0
TEXT
  5
1B1
330
17
100
AcDbEntity
  8
0
 62
1
100
AcDbText
 10
75.25
 20
85.25
 30
0.0
 40
0.8
  1
(75,85)
100
AcDbText
  0
TEXT
  5
1B2
330
17
100
AcDbEntity
  8
0
 62
1
100
AcDbText
 10
75.25
 20
90.25
 30
0.0
 40
0.8
  1
(75,90)
100
AcDbText
  0
TEXT
  5
1B3
330
17
100
AcDbEntity
  8
0
 62
1
100
AcDbText
 10
75.25
 20
95.25
 30
0.0
 40
0.8
  1
(75,95)
100
AcDbText
  0
TEXT
  5
1B4
330
17
100
AcDbEntity
  8
0
 62
1
100
AcDbText
 10
80.25
 20
0.25
 30
0.0
 40
0.8
  1
(80,0)
100
AcDbText
  0
TEXT
  5
1B5
330
17
100
AcDbEntity
  8
0
 62
1
100
AcDbText
 10
80.25
 20
5.25
 30
0.0
 40
0.8
  1
(80,5)
100
AcDbText
  0
TEXT
  5
1B6
330
17
100
AcDbEntity
  8
0
 62
1
100
AcDbText
 10
80.25
 20
10.25
 30
0.0
 40
0.8
  1
(80,10)
100
AcDbText
  0
TEXT
  5
1B7
330
17
100
AcDbEntity
  8
0
 62
1
100
AcDbText
 10
80.25
 20
15.25
 30
0.0
 40
0.8
  1
(80,15)
100
AcDbText
  0
TEXT
  5
1B8
330
17
100
AcDbEntity
  8
0
 62
1
100
AcDbText
 10
80.25
 20
20.25
 30
0.0
 40
0.8
  1
(80,20)
100
AcDbText
  0
TEXT
  5
1B9
330
17
100
AcDbEntity
  8
0
 62
1
100
AcDbText
 10
80.25
 20
25.25
 30
0.0
 40
0.8
  1
(80,25)
100
AcDbText
  0
TEXT
  5
1BA
330
17
100
AcDbEntity
  8
0
 62
1
100
AcDbText
 10
80.25
 20
30.25
 30
0.0
 40
0.8
  1
(80,30)
100
AcDbText
  0
TEXT
  5
1BB
330
17
100
AcDbEntity
  8
0
 62
1
100
AcDbText
 10
80.25
 20
35.25
 30
0.0
 40
0.8
  1
(80,35)
100
AcDbText
  0
TEXT
  5
1BC
330
17
100
AcDbEntity
  8
0
 62
1
100
AcDbText
 10
80.25
 20
40.25
 30
0.0
 40
0.8
  1
(80,40)
100
AcDbText
  0
TEXT
  5
1BD
330
17
100
AcDbEntity
  8
0
 62
1
100
AcDbText
 10
80.25
 20
45.25
 30
0.0
 40
0.8
  1
(80,45)
100
AcDbText
  0
TEXT
  5
1BE
330
17
100
AcDbEntity
  8
0
 62
1
100
AcDbText
 10
80.25
 20
50.25
 30
0.0
 40
0.8
  1
(80,50)
100
AcDbText
  0
TEXT
  5
1BF
330
17
100
AcDbEntity
  8
0
 62
1
100
AcDbText
 10
80.25
 20
55.25
 30
0.0
 40
0.8
  1
(80,55)
100
AcDbText
  0
TEXT
  5
1C0
330
17
100
AcDbEntity
  8
0
 62
1
100
AcDbText
 10
80.25
 20
60.25
 30
0.0
 40
0.8
  1
(80,60)
100
AcDbText
  0
TEXT
  5
1C1
330
17
100
AcDbEntity
  8
0
 62
1
100
AcDbText
 10
80.25
 20
65.25
 30
0.0
 40
0.8
  1
(80,65)
100
AcDbText
  0
TEXT
  5
1C2
330
17
100
AcDbEntity
  8
0
 62
1
100
AcDbText
 10
80.25
 20
70.25
 30
0.0
 40
0.8
  1
(80,70)
100
AcDbText
  0
TEXT
  5
1C3
330
17
100
AcDbEntity
  8
0
 62
1
100
AcDbText
 10
80.25
 20
75.25
 30
0.0
 40
0.8
  1
(80,75)
100
AcDbText
  0
TEXT
  5
1C4
330
17
100
AcDbEntity
  8
0
 62
1
100
AcDbText
 10
80.25
 20
80.25
 30
0.0
 40
0.8
  1
(80,80)
100
AcDbText
  0
TEXT
  5
1C5
330
17
100
AcDbEntity
  8
0
 62
1
100
AcDbText
 10
80.25
 20
85.25
 30
0.0
 40
0.8
  1
(80,85)
100
AcDbText
  0
TEXT
  5
1C6
330
17
100
AcDbEntity
  8
0
 62
1
100
AcDbText
 10
80.25
 20
90.25
 30
0.0
 40
0.8
  1
(80,90)
100
AcDbText
  0
TEXT
  5
1C7
330
17
100
AcDbEntity
  8
0
 62
1
100
AcDbText
 10
80.25
 20
95.25
 30
0.0
 40
0.8
  1
(80,95)
100
AcDbText
  0
TEXT
  5
1C8
330
17
100
AcDbEntity
  8
0
 62
1
100
AcDbText
 10
85.25
 20
0.25
 30
0.0
 40
0.8
  1
(85,0)
100
AcDbText
  0
TEXT
  5
1C9
330
17
100
AcDbEntity
  8
0
 62
1
100
AcDbText
 10
85.25
 20
5.25
 30
0.0
 40
0.8
  1
(85,5)
100
AcDbText
  0
TEXT
  5
1CA
330
17
100
AcDbEntity
  8
0
 62
1
100
AcDbText
 10
85.25
 20
10.25
 30
0.0
 40
0.8
  1
(85,10)
100
AcDbText
  0
TEXT
  5
1CB
330
17
100
AcDbEntity
  8
0
 62
1
100
AcDbText
 10
85.25
 20
15.25
 30
0.0
 40
0.8
  1
(85,15)
100
AcDbText
  0
TEXT
  5
1CC
330
17
100
AcDbEntity
  8
0
 62
1
100
AcDbText
 10
85.25
 20
20.25
 30
0.0
 40
0.8
  1
(85,20)
100
AcDbText
  0
TEXT
  5
1CD
330
17
100
AcDbEntity
  8
0
 62
1
100
AcDbText
 10
85.25
 20
25.25
 30
0.0
 40
0.8
  1
(85,25)
100
AcDbText
  0
TEXT
  5
1CE
330
17
100
AcDbEntity
  8
0
 62
1
100
AcDbText
 10
85.25
 20
30.25
 30
0.0
 40
0.8
  1
(85,30)
100
AcDbText
  0
TEXT
  5
1CF
330
17
100
AcDbEntity
  8
0
 62
1
100
AcDbText
 10
85.25
 20
35.25
 30
0.0
 40
0.8
  1
(85,35)
100
AcDbText
  0
TEXT
  5
1D0
330
17
100
AcDbEntity
  8
0
 62
1
100
AcDbText
 10
85.25
 20
40.25
 30
0.0
 40
0.8
  1
(85,40)
100
AcDbText
  0
TEXT
  5
1D1
330
17
100
AcDbEntity
  8
0
 62
1
100
AcDbText
 10
85.25
 20
45.25
 30
0.0
 40
0.8
  1
(85,45)
100
AcDbText
  0
TEXT
  5
1D2
330
17
100
AcDbEntity
  8
0
 62
1
100
AcDbText
 10
85.25
 20
50.25
 30
0.0
 40
0.8
  1
(85,50)
100
AcDbText
  0
TEXT
  5
1D3
330
17
100
AcDbEntity
  8
0
 62
1
100
AcDbText
 10
85.25
 20
55.25
 30
0.0
 40
0.8
  1
(85,55)
100
AcDbText
  0
TEXT
  5
1D4
330
17
100
AcDbEntity
  8
0
 62
1
100
AcDbText
 10
85.25
 20
60.25
 30
0.0
 40
0.8
  1
(85,60)
100
AcDbText
  0
TEXT
  5
1D5
330
17
100
AcDbEntity
  8
0
 62
1
100
AcDbText
 10
85.25
 20
65.25
 30
0.0
 40
0.8
  1
(85,65)
100
AcDbText
  0
TEXT
  5
1D6
330
17
100
AcDbEntity
  8
0
 62
1
100
AcDbText
 10
85.25
 20
70.25
 30
0.0
 40
0.8
  1
(85,70)
100
AcDbText
  0
TEXT
  5
1D7
330
17
100
AcDbEntity
  8
0
 62
1
100
AcDbText
 10
85.25
 20
75.25
 30
0.0
 40
0.8
  1
(85,75)
100
AcDbText
  0
TEXT
  5
1D8
330
17
100
AcDbEntity
  8
0
 62
1
100
AcDbText
 10
85.25
 20
80.25
 30
0.0
 40
0.8
  1
(85,80)
100
AcDbText
  0
TEXT
  5
1D9
330
17
100
AcDbEntity
  8
0
 62
1
100
AcDbText
 10
85.25
 20
85.25
 30
0.0
 40
0.8
  1
(85,85)
100
AcDbText
  0
TEXT
  5
1DA
330
17
100
AcDbEntity
  8
0
 62
1
100
AcDbText
 10
85.25
 20
90.25
 30
0.0
 40
0.8
  1
(85,90)
100
AcDbText
  0
TEXT
  5
1DB
330
17
100
AcDbEntity
  8
0
 62
1
100
AcDbText
 10
85.25
 20
95.25
 30
0.0
 40
0.8
  1
(85,95)
100
AcDbText
  0
TEXT
  5
1DC
330
17
100
AcDbEntity
  8
0
 62
1
100
AcDbText
 10
90.25
 20
0.25
 30
0.0
 40
0.8
  1
(90,0)
100
AcDbText
  0
TEXT
  5
1DD
330
17
100
AcDbEntity
  8
0
 62
1
100
AcDbText
 10
90.25
 20
5.25
 30
0.0
 40
0.8
  1
(90,5)
100
AcDbText
  0
TEXT
  5
1DE
330
17
100
AcDbEntity
  8
0
 62
1
100
AcDbText
 10
90.25
 20
10.25
 30
0.0
 40
0.8
  1
(90,10)
100
AcDbText
  0
TEXT
  5
1DF
330
17
100
AcDbEntity
  8
0
 62
1
100
AcDbText
 10
90.25
 20
15.25
 30
0.0
 40
0.8
  1
(90,15)
100
AcDbText
  0
TEXT
  5
1E0
330
17
100
AcDbEntity
  8
0
 62
1
100
AcDbText
 10
90.25
 20
20.25
 30
0.0
 40
0.8
  1
(90,20)
100
AcDbText
  0
TEXT
  5
1E1
330
17
100
AcDbEntity
  8
0
 62
1
100
AcDbText
 10
90.25
 20
25.25
 30
0.0
 40
0.8
  1
(90,25)
100
AcDbText
  0
TEXT
  5
1E2
330
17
100
AcDbEntity
  8
0
 62
1
100
AcDbText
 10
90.25
 20
30.25
 30
0.0
 40
0.8
  1
(90,30)
100
AcDbText
  0
TEXT
  5
1E3
330
17
100
AcDbEntity
  8
0
 62
1
100
AcDbText
 10
90.25
 20
35.25
 30
0.0
 40
0.8
  1
(90,35)
100
AcDbText
  0
TEXT
  5
1E4
330
17
100
AcDbEntity
  8
0
 62
1
100
AcDbText
 10
90.25
 20
40.25
 30
0.0
 40
0.8
  1
(90,40)
100
AcDbText
  0
TEXT
  5
1E5
330
17
100
AcDbEntity
  8
0
 62
1
100
AcDbText
 10
90.25
 20
45.25
 30
0.0
 40
0.8
  1
(90,45)
100
AcDbText
  0
TEXT
  5
1E6
330
17
100
AcDbEntity
  8
0
 62
1
100
AcDbText
 10
90.25
 20
50.25
 30
0.0
 40
0.8
  1
(90,50)
100
AcDbText
  0
TEXT
  5
1E7
330
17
100
AcDbEntity
  8
0
 62
1
100
AcDbText
 10
90.25
 20
55.25
 30
0.0
 40
0.8
  1
(90,55)
100
AcDbText
  0
TEXT
  5
1E8
330
17
100
AcDbEntity
  8
0
 62
1
100
AcDbText
 10
90.25
 20
60.25
 30
0.0
 40
0.8
  1
(90,60)
100
AcDbText
  0
TEXT
  5
1E9
330
17
100
AcDbEntity
  8
0
 62
1
100
AcDbText
 10
90.25
 20
65.25
 30
0.0
 40
0.8
  1
(90,65)
100
AcDbText
  0
TEXT
  5
1EA
330
17
100
AcDbEntity
  8
0
 62
1
100
AcDbText
 10
90.25
 20
70.25
 30
0.0
 40
0.8
  1
(90,70)
100
AcDbText
  0
TEXT
  5
1EB
330
17
100
AcDbEntity
  8
0
 62
1
100
AcDbText
 10
90.25
 20
75.25
 30
0.0
 40
0.8
  1
(90,75)
100
AcDbText
  0
TEXT
  5
1EC
330
17
100
AcDbEntity
  8
0
 62
1
100
AcDbText
 10
90.25
 20
80.25
 30
0.0
 40
0.8
  1
(90,80)
100
AcDbText
  0
TEXT
  5
1ED
330
17
100
AcDbEntity
  8
0
 62
1
100
AcDbText
 10
90.25
 20
85.25
 30
0.0
 40
0.8
  1
(90,85)
100
AcDbText
  0
TEXT
  5
1EE
330
17
100
AcDbEntity
  8
0
 62
1
100
AcDbText
 10
90.25
 20
90.25
 30
0.0
 40
0.8
  1
(90,90)
100
AcDbText
  0
TEXT
  5
1EF
330
17
100
AcDbEntity
  8
0
 62
1
100
AcDbText
 10
90.25
 20
95.25
 30
0.0
 40
0.8
  1
(90,95)
100
AcDbText
  0
TEXT
  5
1F0
330
17
100
AcDbEntity
  8
0
 62
1
100
AcDbText
 10
95.25
 20
0.25
 30
0.0
 40
0.8
  1
(95,0)
100
AcDbText
  0
TEXT
  5
1F1
330
17
100
AcDbEntity
  8
0
 62
1
100
AcDbText
 10
95.25
 20
5.25
 30
0.0
 40
0.8
  1
(95,5)
100
AcDbText
  0
TEXT
  5
1F2
330
17
100
AcDbEntity
  8
0
 62
1
100
AcDbText
 10
95.25
 20
10.25
 30
0.0
 40
0.8
  1
(95,10)
100
AcDbText
  0
TEXT
  5
1F3
330
17
100
AcDbEntity
  8
0
 62
1
100
AcDbText
 10
95.25
 20
15.25
 30
0.0
 40
0.8
  1
(95,15)
100
AcDbText
  0
TEXT
  5
1F4
330
17
100
AcDbEntity
  8
0
 62
1
100
AcDbText
 10
95.25
 20
20.25
 30
0.0
 40
0.8
  1
(95,20)
100
AcDbText
  0
TEXT
  5
1F5
330
17
100
AcDbEntity
  8
0
 62
1
100
AcDbText
 10
95.25
 20
25.25
 30
0.0
 40
0.8
  1
(95,25)
100
AcDbText
  0
TEXT
  5
1F6
330
17
100
AcDbEntity
  8
0
 62
1
100
AcDbText
 10
95.25
 20
30.25
 30
0.0
 40
0.8
  1
(95,30)
100
AcDbText
  0
TEXT
  5
1F7
330
17
100
AcDbEntity
  8
0
 62
1
100
AcDbText
 10
95.25
 20
35.25
 30
0.0
 40
0.8
  1
(95,35)
100
AcDbText
  0
TEXT
  5
1F8
330
17
100
AcDbEntity
  8
0
 62
1
100
AcDbText
 10
95.25
 20
40.25
 30
0.0
 40
0.8
  1
(95,40)
100
AcDbText
  0
TEXT
  5
1F9
330
17
100
AcDbEntity
  8
0
 62
1
100
AcDbText
 10
95.25
 20
45.25
 30
0.0
 40
0.8
  1
(95,45)
100
AcDbText
  0
TEXT
  5
1FA
330
17
100
AcDbEntity
  8
0
 62
1
100
AcDbText
 10
95.25
 20
50.25
 30
0.0
 40
0.8
  1
(95,50)
100
AcDbText
  0
TEXT
  5
1FB
330
17
100
AcDbEntity
  8
0
 62
1
100
AcDbText
 10
95.25
 20
55.25
 30
0.0
 40
0.8
  1
(95,55)
100
AcDbText
  0
TEXT
  5
1FC
330
17
100
AcDbEntity
  8
0
 62
1
100
AcDbText
 10
95.25
 20
60.25
 30
0.0
 40
0.8
  1
(95,60)
100
AcDbText
  0
TEXT
  5
1FD
330
17
100
AcDbEntity
  8
0
 62
1
100
AcDbText
 10
95.25
 20
65.25
 30
0.0
 40
0.8
  1
(95,65)
100
AcDbText
  0
TEXT
  5
1FE
330
17
100
AcDbEntity
  8
0
 62
1
100
AcDbText
 10
95.25
 20
70.25
 30
0.0
 40
0.8
  1
(95,70)
100
AcDbText
  0
TEXT
  5
1FF
330
17
100
AcDbEntity
  8
0
 62
1
100
AcDbText
 10
95.25
 20
75.25
 30
0.0
 40
0.8
  1
(95,75)
100
AcDbText
  0
TEXT
  5
200
330
17
100
AcDbEntity
  8
0
 62
1
100
AcDbText
 10
95.25
 20
80.25
 30
0.0
 40
0.8
  1
(95,80)
100
AcDbText
  0
TEXT
  5
201
330
17
100
AcDbEntity
  8
0
 62
1
100
AcDbText
 10
95.25
 20
85.25
 30
0.0
 40
0.8
  1
(95,85)
100
AcDbText
  0
TEXT
  5
202
330
17
100
AcDbEntity
  8
0
 62
1
100
AcDbText
 10
95.25
 20
90.25
 30
0.0
 40
0.8
  1
(95,90)
100
AcDbText
  0
TEXT
  5
203
330
17
100
AcDbEntity
  8
0
 62
1
100
AcDbText
 10
95.25
 20
95.25
 30
0.0
 40
0.8
  1
(95,95)
100
AcDbText
  0
TEXT
  5
204
330
17
100
AcDbEntity
  8
0
 62
1
100
AcDbText
 10
100.25
 20
0.25
 30
0.0
 40
0.8
  1
(100,0)
100
AcDbText
  0
TEXT
  5
205
330
17
100
AcDbEntity
  8
0
 62
1
100
AcDbText
 10
100.25
 20
5.25
 30
0.0
 40
0.8
  1
(100,5)
100
AcDbText
  0
TEXT
  5
206
330
17
100
AcDbEntity
  8
0
 62
1
100
AcDbText
 10
100.25
 20
10.25
 30
0.0
 40
0.8
  1
(100,10)
100
AcDbText
  0
TEXT
  5
207
330
17
100
AcDbEntity
  8
0
 62
1
100
AcDbText
 10
100.25
 20
15.25
 30
0.0
 40
0.8
  1
(100,15)
100
AcDbText
  0
TEXT
  5
208
330
17
100
AcDbEntity
  8
0
 62
1
100
AcDbText
 10
100.25
 20
20.25
 30
0.0
 40
0.8
  1
(100,20)
100
AcDbText
  0
TEXT
  5
209
330
17
100
AcDbEntity
  8
0
 62
1
100
AcDbText
 10
100.25
 20
25.25
 30
0.0
 40
0.8
  1
(100,25)
100
AcDbText
  0
TEXT
  5
20A
330
17
100
AcDbEntity
  8
0
 62
1
100
AcDbText
 10
100.25
 20
30.25
 30
0.0
 40
0.8
  1
(100,30)
100
AcDbText
  0
TEXT
  5
20B
330
17
100
AcDbEntity
  8
0
 62
1
100
AcDbText
 10
100.25
 20
35.25
 30
0.0
 40
0.8
  1
(100,35)
100
AcDbText
  0
TEXT
  5
20C
330
17
100
AcDbEntity
  8
0
 62
1
100
AcDbText
 10
100.25
 20
40.25
 30
0.0
 40
0.8
  1
(100,40)
100
AcDbText
  0
TEXT
  5
20D
330
17
100
AcDbEntity
  8
0
 62
1
100
AcDbText
 10
100.25
 20
45.25
 30
0.0
 40
0.8
  1
(100,45)
100
AcDbText
  0
TEXT
  5
20E
330
17
100
AcDbEntity
  8
0
 62
1
100
AcDbText
 10
100.25
 20
50.25
 30
0.0
 40
0.8
  1
(100,50)
100
AcDbText
  0
TEXT
  5
20F
330
17
100
AcDbEntity
  8
0
 62
1
100
AcDbText
 10
100.25
 20
55.25
 30
0.0
 40
0.8
  1
(100,55)
100
AcDbText
  0
TEXT
  5
210
330
17
100
AcDbEntity
  8
0
 62
1
100
AcDbText
 10
100.25
 20
60.25
 30
0.0
 40
0.8
  1
(100,60)
100
AcDbText
  0
TEXT
  5
211
330
17
100
AcDbEntity
  8
0
 62
1
100
AcDbText
 10
100.25
 20
65.25
 30
0.0
 40
0.8
  1
(100,65)
100
AcDbText
  0
TEXT
  5
212
330
17
100
AcDbEntity
  8
0
 62
1
100
AcDbText
 10
100.25
 20
70.25
 30
0.0
 40
0.8
  1
(100,70)
100
AcDbText
  0
TEXT
  5
213
330
17
100
AcDbEntity
  8
0
 62
1
100
AcDbText
 10
100.25
 20
75.25
 30
0.0
 40
0.8
  1
(100,75)
100
AcDbText
  0
TEXT
  5
214
330
17
100
AcDbEntity
  8
0
 62
1
100
AcDbText
 10
100.25
 20
80.25
 30
0.0
 40
0.8
  1
(100,80)
100
AcDbText
  0
TEXT
  5
215
330
17
100
AcDbEntity
  8
0
 62
1
100
AcDbText
 10
100.25
 20
85.25
 30
0.0
 40
0.8
  1
(100,85)
100
AcDbText
  0
TEXT
  5
216
330
17
100
AcDbEntity
  8
0
 62
1
100
AcDbText
 10
100.25
 20
90.25
 30
0.0
 40
0.8
  1
(100,90)
100
AcDbText
  0
TEXT
  5
217
330
17
100
AcDbEntity
  8
0
 62
1
100
AcDbText
 10
100.25
 20
95.25
 30
0.0
 40
0.8
  1
(100,95)
100
AcDbText
  0
TEXT
  5
218
330
17
100
AcDbEntity
  8
0
 62
1
100
AcDbText
 10
105.25
 20
0.25
 30
0.0
 40
0.8
  1
(105,0)
100
AcDbText
  0
TEXT
  5
219
330
17
100
AcDbEntity
  8
0
 62
1
100
AcDbText
 10
105.25
 20
5.25
 30
0.0
 40
0.8
  1
(105,5)
100
AcDbText
  0
TEXT
  5
21A
330
17
100
AcDbEntity
  8
0
 62
1
100
AcDbText
 10
105.25
 20
10.25
 30
0.0
 40
0.8
  1
(105,10)
100
AcDbText
  0
TEXT
  5
21B
330
17
100
AcDbEntity
  8
0
 62
1
100
AcDbText
 10
105.25
 20
15.25
 30
0.0
 40
0.8
  1
(105,15)
100
AcDbText
  0
TEXT
  5
21C
330
17
100
AcDbEntity
  8
0
 62
1
100
AcDbText
 10
105.25
 20
20.25
 30
0.0
 40
0.8
  1
(105,20)
100
AcDbText
  0
TEXT
  5
21D
330
17
100
AcDbEntity
  8
0
 62
1
100
AcDbText
 10
105.25
 20
25.25
 30
0.0
 40
0.8
  1
(105,25)
100
AcDbText
  0
TEXT
  5
21E
330
17
100
AcDbEntity
  8
0
 62
1
100
AcDbText
 10
105.25
 20
30.25
 30
0.0
 40
0.8
  1
(105,30)
100
AcDbText
  0
TEXT
  5
21F
330
17
100
AcDbEntity
  8
0
 62
1
100
AcDbText
 10
105.25
 20
35.25
 30
0.0
 40
0.8
  1
(105,35)
100
AcDbText
  0
TEXT
  5
220
330
17
100
AcDbEntity
  8
0
 62
1
100
AcDbText
 10
105.25
 20
40.25
 30
0.0
 40
0.8
  1
(105,40)
100
AcDbText
  0
TEXT
  5
221
330
17
100
AcDbEntity
  8
0
 62
1
100
AcDbText
 10
105.25
 20
45.25
 30
0.0
 40
0.8
  1
(105,45)
100
AcDbText
  0
TEXT
  5
222
330
17
100
AcDbEntity
  8
0
 62
1
100
AcDbText
 10
105.25
 20
50.25
 30
0.0
 40
0.8
  1
(105,50)
100
AcDbText
  0
TEXT
  5
223
330
17
100
AcDbEntity
  8
0
 62
1
100
AcDbText
 10
105.25
 20
55.25
 30
0.0
 40
0.8
  1
(105,55)
100
AcDbText
  0
TEXT
  5
224
330
17
100
AcDbEntity
  8
0
 62
1
100
AcDbText
 10
105.25
 20
60.25
 30
0.0
 40
0.8
  1
(105,60)
100
AcDbText
  0
TEXT
  5
225
330
17
100
AcDbEntity
  8
0
 62
1
100
AcDbText
 10
105.25
 20
65.25
 30
0.0
 40
0.8
  1
(105,65)
100
AcDbText
  0
TEXT
  5
226
330
17
100
AcDbEntity
  8
0
 62
1
100
AcDbText
 10
105.25
 20
70.25
 30
0.0
 40
0.8
  1
(105,70)
100
AcDbText
  0
TEXT
  5
227
330
17
100
AcDbEntity
  8
0
 62
1
100
AcDbText
 10
105.25
 20
75.25
 30
0.0
 40
0.8
  1
(105,75)
100
AcDbText
  0
TEXT
  5
228
330
17
100
AcDbEntity
  8
0
 62
1
100
AcDbText
 10
105.25
 20
80.25
 30
0.0
 40
0.8
  1
(105,80)
100
AcDbText
  0
TEXT
  5
229
330
17
100
AcDbEntity
  8
0
 62
1
100
AcDbText
 10
105.25
 20
85.25
 30
0.0
 40
0.8
  1
(105,85)
100
AcDbText
  0
TEXT
  5
22A
330
17
100
AcDbEntity
  8
0
 62
1
100
AcDbText
 10
105.25
 20
90.25
 30
0.0
 40
0.8
  1
(105,90)
100
AcDbText
  0
TEXT
  5
22B
330
17
100
AcDbEntity
  8
0
 62
1
100
AcDbText
 10
105.25
 20
95.25
 30
0.0
 40
0.8
  1
(105,95)
100
AcDbText
  0
TEXT
  5
22C
330
17
100
AcDbEntity
  8
0
 62
1
100
AcDbText
 10
110.25
 20
0.25
 30
0.0
 40
0.8
  1
(110,0)
100
AcDbText
  0
TEXT
  5
22D
330
17
100
AcDbEntity
  8
0
 62
1
100
AcDbText
 10
110.25
 20
5.25
 30
0.0
 40
0.8
  1
(110,5)
100
AcDbText
  0
TEXT
  5
22E
330
17
100
AcDbEntity
  8
0
 62
1
100
AcDbText
 10
110.25
 20
10.25
 30
0.0
 40
0.8
  1
(110,10)
100
AcDbText
  0
TEXT
  5
22F
330
17
100
AcDbEntity
  8
0
 62
1
100
AcDbText
 10
110.25
 20
15.25
 30
0.0
 40
0.8
  1
(110,15)
100
AcDbText
  0
TEXT
  5
230
330
17
100
AcDbEntity
  8
0
 62
1
100
AcDbText
 10
110.25
 20
20.25
 30
0.0
 40
0.8
  1
(110,20)
100
AcDbText
  0
TEXT
  5
231
330
17
100
AcDbEntity
  8
0
 62
1
100
AcDbText
 10
110.25
 20
25.25
 30
0.0
 40
0.8
  1
(110,25)
100
AcDbText
  0
TEXT
  5
232
330
17
100
AcDbEntity
  8
0
 62
1
100
AcDbText
 10
110.25
 20
30.25
 30
0.0
 40
0.8
  1
(110,30)
100
AcDbText
  0
TEXT
  5
233
330
17
100
AcDbEntity
  8
0
 62
1
100
AcDbText
 10
110.25
 20
35.25
 30
0.0
 40
0.8
  1
(110,35)
100
AcDbText
  0
TEXT
  5
234
330
17
100
AcDbEntity
  8
0
 62
1
100
AcDbText
 10
110.25
 20
40.25
 30
0.0
 40
0.8
  1
(110,40)
100
AcDbText
  0
TEXT
  5
235
330
17
100
AcDbEntity
  8
0
 62
1
100
AcDbText
 10
110.25
 20
45.25
 30
0.0
 40
0.8
  1
(110,45)
100
AcDbText
  0
TEXT
  5
236
330
17
100
AcDbEntity
  8
0
 62
1
100
AcDbText
 10
110.25
 20
50.25
 30
0.0
 40
0.8
  1
(110,50)
100
AcDbText
  0
TEXT
  5
237
330
17
100
AcDbEntity
  8
0
 62
1
100
AcDbText
 10
110.25
 20
55.25
 30
0.0
 40
0.8
  1
(110,55)
100
AcDbText
  0
TEXT
  5
238
330
17
100
AcDbEntity
  8
0
 62
1
100
AcDbText
 10
110.25
 20
60.25
 30
0.0
 40
0.8
  1
(110,60)
100
AcDbText
  0
TEXT
  5
239
330
17
100
AcDbEntity
  8
0
 62
1
100
AcDbText
 10
110.25
 20
65.25
 30
0.0
 40
0.8
  1
(110,65)
100
AcDbText
  0
TEXT
  5
23A
330
17
100
AcDbEntity
  8
0
 62
1
100
AcDbText
 10
110.25
 20
70.25
 30
0.0
 40
0.8
  1
(110,70)
100
AcDbText
  0
TEXT
  5
23B
330
17
100
AcDbEntity
  8
0
 62
1
100
AcDbText
 10
110.25
 20
75.25
 30
0.0
 40
0.8
  1
(110,75)
100
AcDbText
  0
TEXT
  5
23C
330
17
100
AcDbEntity
  8
0
 62
1
100
AcDbText
 10
110.25
 20
80.25
 30
0.0
 40
0.8
  1
(110,80)
100
AcDbText
  0
TEXT
  5
23D
330
17
100
AcDbEntity
  8
0
 62
1
100
AcDbText
 10
110.25
 20
85.25
 30
0.0
 40
0.8
  1
(110,85)
100
AcDbText
  0
TEXT
  5
23E
330
17
100
AcDbEntity
  8
0
 62
1
100
AcDbText
 10
110.25
 20
90.25
 30
0.0
 40
0.8
  1
(110,90)
100
AcDbText
  0
TEXT
  5
23F
330
17
100
AcDbEntity
  8
0
 62
1
100
AcDbText
 10
110.25
 20
95.25
 30
0.0
 40
0.8
  1
(110,95)
100
AcDbText
  0
TEXT
  5
240
330
17
100
AcDbEntity
  8
0
 62
1
100
AcDbText
 10
115.25
 20
0.25
 30
0.0
 40
0.8
  1
(115,0)
100
AcDbText
  0
TEXT
  5
241
330
17
100
AcDbEntity
  8
0
 62
1
100
AcDbText
 10
115.25
 20
5.25
 30
0.0
 40
0.8
  1
(115,5)
100
AcDbText
  0
TEXT
  5
242
330
17
100
AcDbEntity
  8
0
 62
1
100
AcDbText
 10
115.25
 20
10.25
 30
0.0
 40
0.8
  1
(115,10)
100
AcDbText
  0
TEXT
  5
243
330
17
100
AcDbEntity
  8
0
 62
1
100
AcDbText
 10
115.25
 20
15.25
 30
0.0
 40
0.8
  1
(115,15)
100
AcDbText
  0
TEXT
  5
244
330
17
100
AcDbEntity
  8
0
 62
1
100
AcDbText
 10
115.25
 20
20.25
 30
0.0
 40
0.8
  1
(115,20)
100
AcDbText
  0
TEXT
  5
245
330
17
100
AcDbEntity
  8
0
 62
1
100
AcDbText
 10
115.25
 20
25.25
 30
0.0
 40
0.8
  1
(115,25)
100
AcDbText
  0
TEXT
  5
246
330
17
100
AcDbEntity
  8
0
 62
1
100
AcDbText
 10
115.25
 20
30.25
 30
0.0
 40
0.8
  1
(115,30)
100
AcDbText
  0
TEXT
  5
247
330
17
100
AcDbEntity
  8
0
 62
1
100
AcDbText
 10
115.25
 20
35.25
 30
0.0
 40
0.8
  1
(115,35)
100
AcDbText
  0
TEXT
  5
248
330
17
100
AcDbEntity
  8
0
 62
1
100
AcDbText
 10
115.25
 20
40.25
 30
0.0
 40
0.8
  1
(115,40)
100
AcDbText
  0
TEXT
  5
249
330
17
100
AcDbEntity
  8
0
 62
1
100
AcDbText
 10
115.25
 20
45.25
 30
0.0
 40
0.8
  1
(115,45)
100
AcDbText
  0
TEXT
  5
24A
330
17
100
AcDbEntity
  8
0
 62
1
100
AcDbText
 10
115.25
 20
50.25
 30
0.0
 40
0.8
  1
(115,50)
100
AcDbText
  0
TEXT
  5
24B
330
17
100
AcDbEntity
  8
0
 62
1
100
AcDbText
 10
115.25
 20
55.25
 30
0.0
 40
0.8
  1
(115,55)
100
AcDbText
  0
TEXT
  5
24C
330
17
100
AcDbEntity
  8
0
 62
1
100
AcDbText
 10
115.25
 20
60.25
 30
0.0
 40
0.8
  1
(115,60)
100
AcDbText
  0
TEXT
  5
24D
330
17
100
AcDbEntity
  8
0
 62
1
100
AcDbText
 10
115.25
 20
65.25
 30
0.0
 40
0.8
  1
(115,65)
100
AcDbText
  0
TEXT
  5
24E
330
17
100
AcDbEntity
  8
0
 62
1
100
AcDbText
 10
115.25
 20
70.25
 30
0.0
 40
0.8
  1
(115,70)
100
AcDbText
  0
TEXT
  5
24F
330
17
100
AcDbEntity
  8
0
 62
1
100
AcDbText
 10
115.25
 20
75.25
 30
0.0
 40
0.8
  1
(115,75)
100
AcDbText
  0
TEXT
  5
250
330
17
100
AcDbEntity
  8
0
 62
1
100
AcDbText
 10
115.25
 20
80.25
 30
0.0
 40
0.8
  1
(115,80)
100
AcDbText
  0
TEXT
  5
251
330
17
100
AcDbEntity
  8
0
 62
1
100
AcDbText
 10
115.25
 20
85.25
 30
0.0
 40
0.8
  1
(115,85)
100
AcDbText
  0
TEXT
  5
252
330
17
100
AcDbEntity
  8
0
 62
1
100
AcDbText
 10
115.25
 20
90.25
 30
0.0
 40
0.8
  1
(115,90)
100
AcDbText
  0
TEXT
  5
253
330
17
100
AcDbEntity
  8
0
 62
1
100
AcDbText
 10
115.25
 20
95.25
 30
0.0
 40
0.8
  1
(115,95)
100
AcDbText
  0
TEXT
  5
254
330
17
100
AcDbEntity
  8
0
 62
1
100
AcDbText
 10
120.25
 20
0.25
 30
0.0
 40
0.8
  1
(120,0)
100
AcDbText
  0
TEXT
  5
255
330
17
100
AcDbEntity
  8
0
 62
1
100
AcDbText
 10
120.25
 20
5.25
 30
0.0
 40
0.8
  1
(120,5)
100
AcDbText
  0
TEXT
  5
256
330
17
100
AcDbEntity
  8
0
 62
1
100
AcDbText
 10
120.25
 20
10.25
 30
0.0
 40
0.8
  1
(120,10)
100
AcDbText
  0
TEXT
  5
257
330
17
100
AcDbEntity
  8
0
 62
1
100
AcDbText
 10
120.25
 20
15.25
 30
0.0
 40
0.8
  1
(120,15)
100
AcDbText
  0
TEXT
  5
258
330
17
100
AcDbEntity
  8
0
 62
1
100
AcDbText
 10
120.25
 20
20.25
 30
0.0
 40
0.8
  1
(120,20)
100
AcDbText
  0
TEXT
  5
259
330
17
100
AcDbEntity
  8
0
 62
1
100
AcDbText
 10
120.25
 20
25.25
 30
0.0
 40
0.8
  1
(120,25)
100
AcDbText
  0
TEXT
  5
25A
330
17
100
AcDbEntity
  8
0
 62
1
100
AcDbText
 10
120.25
 20
30.25
 30
0.0
 40
0.8
  1
(120,30)
100
AcDbText
  0
TEXT
  5
25B
330
17
100
AcDbEntity
  8
0
 62
1
100
AcDbText
 10
120.25
 20
35.25
 30
0.0
 40
0.8
  1
(120,35)
100
AcDbText
  0
TEXT
  5
25C
330
17
100
AcDbEntity
  8
0
 62
1
100
AcDbText
 10
120.25
 20
40.25
 30
0.0
 40
0.8
  1
(120,40)
100
AcDbText
  0
TEXT
  5
25D
330
17
100
AcDbEntity
  8
0
 62
1
100
AcDbText
 10
120.25
 20
45.25
 30
0.0
 40
0.8
  1
(120,45)
100
AcDbText
  0
TEXT
  5
25E
330
17
100
AcDbEntity
  8
0
 62
1
100
AcDbText
 10
120.25
 20
50.25
 30
0.0
 40
0.8
  1
(120,50)
100
AcDbText
  0
TEXT
  5
25F
330
17
100
AcDbEntity
  8
0
 62
1
100
AcDbText
 10
120.25
 20
55.25
 30
0.0
 40
0.8
  1
(120,55)
100
AcDbText
  0
TEXT
  5
260
330
17
100
AcDbEntity
  8
0
 62
1
100
AcDbText
 10
120.25
 20
60.25
 30
0.0
 40
0.8
  1
(120,60)
100
AcDbText
  0
TEXT
  5
261
330
17
100
AcDbEntity
  8
0
 62
1
100
AcDbText
 10
120.25
 20
65.25
 30
0.0
 40
0.8
  1
(120,65)
100
AcDbText
  0
TEXT
  5
262
330
17
100
AcDbEntity
  8
0
 62
1
100
AcDbText
 10
120.25
 20
70.25
 30
0.0
 40
0.8
  1
(120,70)
100
AcDbText
  0
TEXT
  5
263
330
17
100
AcDbEntity
  8
0
 62
1
100
AcDbText
 10
120.25
 20
75.25
 30
0.0
 40
0.8
  1
(120,75)
100
AcDbText
  0
TEXT
  5
264
330
17
100
AcDbEntity
  8
0
 62
1
100
AcDbText
 10
120.25
 20
80.25
 30
0.0
 40
0.8
  1
(120,80)
100
AcDbText
  0
TEXT
  5
265
330
17
100
AcDbEntity
  8
0
 62
1
100
AcDbText
 10
120.25
 20
85.25
 30
0.0
 40
0.8
  1
(120,85)
100
AcDbText
  0
TEXT
  5
266
330
17
100
AcDbEntity
  8
0
 62
1
100
AcDbText
 10
120.25
 20
90.25
 30
0.0
 40
0.8
  1
(120,90)
100
AcDbText
  0
TEXT
  5
267
330
17
100
AcDbEntity
  8
0
 62
1
100
AcDbText
 10
120.25
 20
95.25
 30
0.0
 40
0.8
  1
(120,95)
100
AcDbText
  0
TEXT
  5
268
330
17
100
AcDbEntity
  8
0
 62
1
100
AcDbText
 10
125.25
 20
0.25
 30
0.0
 40
0.8
  1
(125,0)
100
AcDbText
  0
TEXT
  5
269
330
17
100
AcDbEntity
  8
0
 62
1
100
AcDbText
 10
125.25
 20
5.25
 30
0.0
 40
0.8
  1
(125,5)
100
AcDbText
  0
TEXT
  5
26A
330
17
100
AcDbEntity
  8
0
 62
1
100
AcDbText
 10
125.25
 20
10.25
 30
0.0
 40
0.8
  1
(125,10)
100
AcDbText
  0
TEXT
  5
26B
330
17
100
AcDbEntity
  8
0
 62
1
100
AcDbText
 10
125.25
 20
15.25
 30
0.0
 40
0.8
  1
(125,15)
100
AcDbText
  0
TEXT
  5
26C
330
17
100
AcDbEntity
  8
0
 62
1
100
AcDbText
 10
125.25
 20
20.25
 30
0.0
 40
0.8
  1
(125,20)
100
AcDbText
  0
TEXT
  5
26D
330
17
100
AcDbEntity
  8
0
 62
1
100
AcDbText
 10
125.25
 20
25.25
 30
0.0
 40
0.8
  1
(125,25)
100
AcDbText
  0
TEXT
  5
26E
330
17
100
AcDbEntity
  8
0
 62
1
100
AcDbText
 10
125.25
 20
30.25
 30
0.0
 40
0.8
  1
(125,30)
100
AcDbText
  0
TEXT
  5
26F
330
17
100
AcDbEntity
  8
0
 62
1
100
AcDbText
 10
125.25
 20
35.25
 30
0.0
 40
0.8
  1
(125,35)
100
AcDbText
  0
TEXT
  5
270
330
17
100
AcDbEntity
  8
0
 62
1
100
AcDbText
 10
125.25
 20
40.25
 30
0.0
 40
0.8
  1
(125,40)
100
AcDbText
  0
TEXT
  5
271
330
17
100
AcDbEntity
  8
0
 62
1
100
AcDbText
 10
125.25
 20
45.25
 30
0.0
 40
0.8
  1
(125,45)
100
AcDbText
  0
TEXT
  5
272
330
17
100
AcDbEntity
  8
0
 62
1
100
AcDbText
 10
125.25
 20
50.25
 30
0.0
 40
0.8
  1
(125,50)
100
AcDbText
  0
TEXT
  5
273
330
17
100
AcDbEntity
  8
0
 62
1
100
AcDbText
 10
125.25
 20
55.25
 30
0.0
 40
0.8
  1
(125,55)
100
AcDbText
  0
TEXT
  5
274
330
17
100
AcDbEntity
  8
0
 62
1
100
AcDbText
 10
125.25
 20
60.25
 30
0.0
 40
0.8
  1
(125,60)
100
AcDbText
  0
TEXT
  5
275
330
17
100
AcDbEntity
  8
0
 62
1
100
AcDbText
 10
125.25
 20
65.25
 30
0.0
 40
0.8
  1
(125,65)
100
AcDbText
  0
TEXT
  5
276
330
17
100
AcDbEntity
  8
0
 62
1
100
AcDbText
 10
125.25
 20
70.25
 30
0.0
 40
0.8
  1
(125,70)
100
AcDbText
  0
TEXT
  5
277
330
17
100
AcDbEntity
  8
0
 62
1
100
AcDbText
 10
125.25
 20
75.25
 30
0.0
 40
0.8
  1
(125,75)
100
AcDbText
  0
TEXT
  5
278
330
17
100
AcDbEntity
  8
0
 62
1
100
AcDbText
 10
125.25
 20
80.25
 30
0.0
 40
0.8
  1
(125,80)
100
AcDbText
  0
TEXT
  5
279
330
17
100
AcDbEntity
  8
0
 62
1
100
AcDbText
 10
125.25
 20
85.25
 30
0.0
 40
0.8
  1
(125,85)
100
AcDbText
  0
TEXT
  5
27A
330
17
100
AcDbEntity
  8
0
 62
1
100
AcDbText
 10
125.25
 20
90.25
 30
0.0
 40
0.8
  1
(125,90)
100
AcDbText
  0
TEXT
  5
27B
330
17
100
AcDbEntity
  8
0
 62
1
100
AcDbText
 10
125.25
 20
95.25
 30
0.0
 40
0.8
  1
(125,95)
100
AcDbText
  0
TEXT
  5
27C
330
17
100
AcDbEntity
  8
0
 62
1
100
AcDbText
 10
130.25
 20
0.25
 30
0.0
 40
0.8
  1
(130,0)
100
AcDbText
  0
TEXT
  5
27D
330
17
100
AcDbEntity
  8
0
 62
1
100
AcDbText
 10
130.25
 20
5.25
 30
0.0
 40
0.8
  1
(130,5)
100
AcDbText
  0
TEXT
  5
27E
330
17
100
AcDbEntity
  8
0
 62
1
100
AcDbText
 10
130.25
 20
10.25
 30
0.0
 40
0.8
  1
(130,10)
100
AcDbText
  0
TEXT
  5
27F
330
17
100
AcDbEntity
  8
0
 62
1
100
AcDbText
 10
130.25
 20
15.25
 30
0.0
 40
0.8
  1
(130,15)
100
AcDbText
  0
TEXT
  5
280
330
17
100
AcDbEntity
  8
0
 62
1
100
AcDbText
 10
130.25
 20
20.25
 30
0.0
 40
0.8
  1
(130,20)
100
AcDbText
  0
TEXT
  5
281
330
17
100
AcDbEntity
  8
0
 62
1
100
AcDbText
 10
130.25
 20
25.25
 30
0.0
 40
0.8
  1
(130,25)
100
AcDbText
  0
TEXT
  5
282
330
17
100
AcDbEntity
  8
0
 62
1
100
AcDbText
 10
130.25
 20
30.25
 30
0.0
 40
0.8
  1
(130,30)
100
AcDbText
  0
TEXT
  5
283
330
17
100
AcDbEntity
  8
0
 62
1
100
AcDbText
 10
130.25
 20
35.25
 30
0.0
 40
0.8
  1
(130,35)
100
AcDbText
  0
TEXT
  5
284
330
17
100
AcDbEntity
  8
0
 62
1
100
AcDbText
 10
130.25
 20
40.25
 30
0.0
 40
0.8
  1
(130,40)
100
AcDbText
  0
TEXT
  5
285
330
17
100
AcDbEntity
  8
0
 62
1
100
AcDbText
 10
130.25
 20
45.25
 30
0.0
 40
0.8
  1
(130,45)
100
AcDbText
  0
TEXT
  5
286
330
17
100
AcDbEntity
  8
0
 62
1
100
AcDbText
 10
130.25
 20
50.25
 30
0.0
 40
0.8
  1
(130,50)
100
AcDbText
  0
TEXT
  5
287
330
17
100
AcDbEntity
  8
0
 62
1
100
AcDbText
 10
130.25
 20
55.25
 30
0.0
 40
0.8
  1
(130,55)
100
AcDbText
  0
TEXT
  5
288
330
17
100
AcDbEntity
  8
0
 62
1
100
AcDbText
 10
130.25
 20
60.25
 30
0.0
 40
0.8
  1
(130,60)
100
AcDbText
  0
TEXT
  5
289
330
17
100
AcDbEntity
  8
0
 62
1
100
AcDbText
 10
130.25
 20
65.25
 30
0.0
 40
0.8
  1
(130,65)
100
AcDbText
  0
TEXT
  5
28A
330
17
100
AcDbEntity
  8
0
 62
1
100
AcDbText
 10
130.25
 20
70.25
 30
0.0
 40
0.8
  1
(130,70)
100
AcDbText
  0
TEXT
  5
28B
330
17
100
AcDbEntity
  8
0
 62
1
100
AcDbText
 10
130.25
 20
75.25
 30
0.0
 40
0.8
  1
(130,75)
100
AcDbText
  0
TEXT
  5
28C
330
17
100
AcDbEntity
  8
0
 62
1
100
AcDbText
 10
130.25
 20
80.25
 30
0.0
 40
0.8
  1
(130,80)
100
AcDbText
  0
TEXT
  5
28D
330
17
100
AcDbEntity
  8
0
 62
1
100
AcDbText
 10
130.25
 20
85.25
 30
0.0
 40
0.8
  1
(130,85)
100
AcDbText
  0
TEXT
  5
28E
330
17
100
AcDbEntity
  8
0
 62
1
100
AcDbText
 10
130.25
 20
90.25
 30
0.0
 40
0.8
  1
(130,90)
100
AcDbText
  0
TEXT
  5
28F
330
17
100
AcDbEntity
  8
0
 62
1
100
AcDbText
 10
130.25
 20
95.25
 30
0.0
 40
0.8
  1
(130,95)
100
AcDbText
  0
TEXT
  5
290
330
17
100
AcDbEntity
  8
0
 62
1
100
AcDbText
 10
135.25
 20
0.25
 30
0.0
 40
0.8
  1
(135,0)
100
AcDbText
  0
TEXT
  5
291
330
17
100
AcDbEntity
  8
0
 62
1
100
AcDbText
 10
135.25
 20
5.25
 30
0.0
 40
0.8
  1
(135,5)
100
AcDbText
  0
TEXT
  5
292
330
17
100
AcDbEntity
  8
0
 62
1
100
AcDbText
 10
135.25
 20
10.25
 30
0.0
 40
0.8
  1
(135,10)
100
AcDbText
  0
TEXT
  5
293
330
17
100
AcDbEntity
  8
0
 62
1
100
AcDbText
 10
135.25
 20
15.25
 30
0.0
 40
0.8
  1
(135,15)
100
AcDbText
  0
TEXT
  5
294
330
17
100
AcDbEntity
  8
0
 62
1
100
AcDbText
 10
135.25
 20
20.25
 30
0.0
 40
0.8
  1
(135,20)
100
AcDbText
  0
TEXT
  5
295
330
17
100
AcDbEntity
  8
0
 62
1
100
AcDbText
 10
135.25
 20
25.25
 30
0.0
 40
0.8
  1
(135,25)
100
AcDbText
  0
TEXT
  5
296
330
17
100
AcDbEntity
  8
0
 62
1
100
AcDbText
 10
135.25
 20
30.25
 30
0.0
 40
0.8
  1
(135,30)
100
AcDbText
  0
TEXT
  5
297
330
17
100
AcDbEntity
  8
0
 62
1
100
AcDbText
 10
135.25
 20
35.25
 30
0.0
 40
0.8
  1
(135,35)
100
AcDbText
  0
TEXT
  5
298
330
17
100
AcDbEntity
  8
0
 62
1
100
AcDbText
 10
135.25
 20
40.25
 30
0.0
 40
0.8
  1
(135,40)
100
AcDbText
  0
TEXT
  5
299
330
17
100
AcDbEntity
  8
0
 62
1
100
AcDbText
 10
135.25
 20
45.25
 30
0.0
 40
0.8
  1
(135,45)
100
AcDbText
  0
TEXT
  5
29A
330
17
100
AcDbEntity
  8
0
 62
1
100
AcDbText
 10
135.25
 20
50.25
 30
0.0
 40
0.8
  1
(135,50)
100
AcDbText
  0
TEXT
  5
29B
330
17
100
AcDbEntity
  8
0
 62
1
100
AcDbText
 10
135.25
 20
55.25
 30
0.0
 40
0.8
  1
(135,55)
100
AcDbText
  0
TEXT
  5
29C
330
17
100
AcDbEntity
  8
0
 62
1
100
AcDbText
 10
135.25
 20
60.25
 30
0.0
 40
0.8
  1
(135,60)
100
AcDbText
  0
TEXT
  5
29D
330
17
100
AcDbEntity
  8
0
 62
1
100
AcDbText
 10
135.25
 20
65.25
 30
0.0
 40
0.8
  1
(135,65)
100
AcDbText
  0
TEXT
  5
29E
330
17
100
AcDbEntity
  8
0
 62
1
100
AcDbText
 10
135.25
 20
70.25
 30
0.0
 40
0.8
  1
(135,70)
100
AcDbText
  0
TEXT
  5
29F
330
17
100
AcDbEntity
  8
0
 62
1
100
AcDbText
 10
135.25
 20
75.25
 30
0.0
 40
0.8
  1
(135,75)
100
AcDbText
  0
TEXT
  5
2A0
330
17
100
AcDbEntity
  8
0
 62
1
100
AcDbText
 10
135.25
 20
80.25
 30
0.0
 40
0.8
  1
(135,80)
100
AcDbText
  0
TEXT
  5
2A1
330
17
100
AcDbEntity
  8
0
 62
1
100
AcDbText
 10
135.25
 20
85.25
 30
0.0
 40
0.8
  1
(135,85)
100
AcDbText
  0
TEXT
  5
2A2
330
17
100
AcDbEntity
  8
0
 62
1
100
AcDbText
 10
135.25
 20
90.25
 30
0.0
 40
0.8
  1
(135,90)
100
AcDbText
  0
TEXT
  5
2A3
330
17
100
AcDbEntity
  8
0
 62
1
100
AcDbText
 10
135.25
 20
95.25
 30
0.0
 40
0.8
  1
(135,95)
100
AcDbText
  0
TEXT
  5
2A4
330
17
100
AcDbEntity
  8
0
 62
1
100
AcDbText
 10
140.25
 20
0.25
 30
0.0
 40
0.8
  1
(140,0)
100
AcDbText
  0
TEXT
  5
2A5
330
17
100
AcDbEntity
  8
0
 62
1
100
AcDbText
 10
140.25
 20
5.25
 30
0.0
 40
0.8
  1
(140,5)
100
AcDbText
  0
TEXT
  5
2A6
330
17
100
AcDbEntity
  8
0
 62
1
100
AcDbText
 10
140.25
 20
10.25
 30
0.0
 40
0.8
  1
(140,10)
100
AcDbText
  0
TEXT
  5
2A7
330
17
100
AcDbEntity
  8
0
 62
1
100
AcDbText
 10
140.25
 20
15.25
 30
0.0
 40
0.8
  1
(140,15)
100
AcDbText
  0
TEXT
  5
2A8
330
17
100
AcDbEntity
  8
0
 62
1
100
AcDbText
 10
140.25
 20
20.25
 30
0.0
 40
0.8
  1
(140,20)
100
AcDbText
  0
TEXT
  5
2A9
330
17
100
AcDbEntity
  8
0
 62
1
100
AcDbText
 10
140.25
 20
25.25
 30
0.0
 40
0.8
  1
(140,25)
100
AcDbText
  0
TEXT
  5
2AA
330
17
100
AcDbEntity
  8
0
 62
1
100
AcDbText
 10
140.25
 20
30.25
 30
0.0
 40
0.8
  1
(140,30)
100
AcDbText
  0
TEXT
  5
2AB
330
17
100
AcDbEntity
  8
0
 62
1
100
AcDbText
 10
140.25
 20
35.25
 30
0.0
 40
0.8
  1
(140,35)
100
AcDbText
  0
TEXT
  5
2AC
330
17
100
AcDbEntity
  8
0
 62
1
100
AcDbText
 10
140.25
 20
40.25
 30
0.0
 40
0.8
  1
(140,40)
100
AcDbText
  0
TEXT
  5
2AD
330
17
100
AcDbEntity
  8
0
 62
1
100
AcDbText
 10
140.25
 20
45.25
 30
0.0
 40
0.8
  1
(140,45)
100
AcDbText
  0
TEXT
  5
2AE
330
17
100
AcDbEntity
  8
0
 62
1
100
AcDbText
 10
140.25
 20
50.25
 30
0.0
 40
0.8
  1
(140,50)
100
AcDbText
  0
TEXT
  5
2AF
330
17
100
AcDbEntity
  8
0
 62
1
100
AcDbText
 10
140.25
 20
55.25
 30
0.0
 40
0.8
  1
(140,55)
100
AcDbText
  0
TEXT
  5
2B0
330
17
100
AcDbEntity
  8
0
 62
1
100
AcDbText
 10
140.25
 20
60.25
 30
0.0
 40
0.8
  1
(140,60)
100
AcDbText
  0
TEXT
  5
2B1
330
17
100
AcDbEntity
  8
0
 62
1
100
AcDbText
 10
140.25
 20
65.25
 30
0.0
 40
0.8
  1
(140,65)
100
AcDbText
  0
TEXT
  5
2B2
330
17
100
AcDbEntity
  8
0
 62
1
100
AcDbText
 10
140.25
 20
70.25
 30
0.0
 40
0.8
  1
(140,70)
100
AcDbText
  0
TEXT
  5
2B3
330
17
100
AcDbEntity
  8
0
 62
1
100
AcDbText
 10
140.25
 20
75.25
 30
0.0
 40
0.8
  1
(140,75)
100
AcDbText
  0
TEXT
  5
2B4
330
17
100
AcDbEntity
  8
0
 62
1
100
AcDbText
 10
140.25
 20
80.25
 30
0.0
 40
0.8
  1
(140,80)
100
AcDbText
  0
TEXT
  5
2B5
330
17
100
AcDbEntity
  8
0
 62
1
100
AcDbText
 10
140.25
 20
85.25
 30
0.0
 40
0.8
  1
(140,85)
100
AcDbText
  0
TEXT
  5
2B6
330
17
100
AcDbEntity
  8
0
 62
1
100
AcDbText
 10
140.25
 20
90.25
 30
0.0
 40
0.8
  1
(140,90)
100
AcDbText
  0
TEXT
  5
2B7
330
17
100
AcDbEntity
  8
0
 62
1
100
AcDbText
 10
140.25
 20
95.25
 30
0.0
 40
0.8
  1
(140,95)
100
AcDbText
  0
TEXT
  5
2B8
330
17
100
AcDbEntity
  8
0
 62
1
100
AcDbText
 10
145.25
 20
0.25
 30
0.0
 40
0.8
  1
(145,0)
100
AcDbText
  0
TEXT
  5
2B9
330
17
100
AcDbEntity
  8
0
 62
1
100
AcDbText
 10
145.25
 20
5.25
 30
0.0
 40
0.8
  1
(145,5)
100
AcDbText
  0
TEXT
  5
2BA
330
17
100
AcDbEntity
  8
0
 62
1
100
AcDbText
 10
145.25
 20
10.25
 30
0.0
 40
0.8
  1
(145,10)
100
AcDbText
  0
TEXT
  5
2BB
330
17
100
AcDbEntity
  8
0
 62
1
100
AcDbText
 10
145.25
 20
15.25
 30
0.0
 40
0.8
  1
(145,15)
100
AcDbText
  0
TEXT
  5
2BC
330
17
100
AcDbEntity
  8
0
 62
1
100
AcDbText
 10
145.25
 20
20.25
 30
0.0
 40
0.8
  1
(145,20)
100
AcDbText
  0
TEXT
  5
2BD
330
17
100
AcDbEntity
  8
0
 62
1
100
AcDbText
 10
145.25
 20
25.25
 30
0.0
 40
0.8
  1
(145,25)
100
AcDbText
  0
TEXT
  5
2BE
330
17
100
AcDbEntity
  8
0
 62
1
100
AcDbText
 10
145.25
 20
30.25
 30
0.0
 40
0.8
  1
(145,30)
100
AcDbText
  0
TEXT
  5
2BF
330
17
100
AcDbEntity
  8
0
 62
1
100
AcDbText
 10
145.25
 20
35.25
 30
0.0
 40
0.8
  1
(145,35)
100
AcDbText
  0
TEXT
  5
2C0
330
17
100
AcDbEntity
  8
0
 62
1
100
AcDbText
 10
145.25
 20
40.25
 30
0.0
 40
0.8
  1
(145,40)
100
AcDbText
  0
TEXT
  5
2C1
330
17
100
AcDbEntity
  8
0
 62
1
100
AcDbText
 10
145.25
 20
45.25
 30
0.0
 40
0.8
  1
(145,45)
100
AcDbText
  0
TEXT
  5
2C2
330
17
100
AcDbEntity
  8
0
 62
1
100
AcDbText
 10
145.25
 20
50.25
 30
0.0
 40
0.8
  1
(145,50)
100
AcDbText
  0
TEXT
  5
2C3
330
17
100
AcDbEntity
  8
0
 62
1
100
AcDbText
 10
145.25
 20
55.25
 30
0.0
 40
0.8
  1
(145,55)
100
AcDbText
  0
TEXT
  5
2C4
330
17
100
AcDbEntity
  8
0
 62
1
100
AcDbText
 10
145.25
 20
60.25
 30
0.0
 40
0.8
  1
(145,60)
100
AcDbText
  0
TEXT
  5
2C5
330
17
100
AcDbEntity
  8
0
 62
1
100
AcDbText
 10
145.25
 20
65.25
 30
0.0
 40
0.8
  1
(145,65)
100
AcDbText
  0
TEXT
  5
2C6
330
17
100
AcDbEntity
  8
0
 62
1
100
AcDbText
 10
145.25
 20
70.25
 30
0.0
 40
0.8
  1
(145,70)
100
AcDbText
  0
TEXT
  5
2C7
330
17
100
AcDbEntity
  8
0
 62
1
100
AcDbText
 10
145.25
 20
75.25
 30
0.0
 40
0.8
  1
(145,75)
100
AcDbText
  0
TEXT
  5
2C8
330
17
100
AcDbEntity
  8
0
 62
1
100
AcDbText
 10
145.25
 20
80.25
 30
0.0
 40
0.8
  1
(145,80)
100
AcDbText
  0
TEXT
  5
2C9
330
17
100
AcDbEntity
  8
0
 62
1
100
AcDbText
 10
145.25
 20
85.25
 30
0.0
 40
0.8
  1
(145,85)
100
AcDbText
  0
TEXT
  5
2CA
330
17
100
AcDbEntity
  8
0
 62
1
100
AcDbText
 10
145.25
 20
90.25
 30
0.0
 40
0.8
  1
(145,90)
100
AcDbText
  0
TEXT
  5
2CB
330
17
100
AcDbEntity
  8
0
 62
1
100
AcDbText
 10
145.25
 20
95.25
 30
0.0
 40
0.8
  1
(145,95)
100
AcDbText
  0
TEXT
  5
2CC
330
17
100
AcDbEntity
  8
0
 62
1
100
AcDbText
 10
150.25
 20
0.25
 30
0.0
 40
0.8
  1
(150,0)
100
AcDbText
  0
TEXT
  5
2CD
330
17
100
AcDbEntity
  8
0
 62
1
100
AcDbText
 10
150.25
 20
5.25
 30
0.0
 40
0.8
  1
(150,5)
100
AcDbText
  0
TEXT
  5
2CE
330
17
100
AcDbEntity
  8
0
 62
1
100
AcDbText
 10
150.25
 20
10.25
 30
0.0
 40
0.8
  1
(150,10)
100
AcDbText
  0
TEXT
  5
2CF
330
17
100
AcDbEntity
  8
0
 62
1
100
AcDbText
 10
150.25
 20
15.25
 30
0.0
 40
0.8
  1
(150,15)
100
AcDbText
  0
TEXT
  5
2D0
330
17
100
AcDbEntity
  8
0
 62
1
100
AcDbText
 10
150.25
 20
20.25
 30
0.0
 40
0.8
  1
(150,20)
100
AcDbText
  0
TEXT
  5
2D1
330
17
100
AcDbEntity
  8
0
 62
1
100
AcDbText
 10
150.25
 20
25.25
 30
0.0
 40
0.8
  1
(150,25)
100
AcDbText
  0
TEXT
  5
2D2
330
17
100
AcDbEntity
  8
0
 62
1
100
AcDbText
 10
150.25
 20
30.25
 30
0.0
 40
0.8
  1
(150,30)
100
AcDbText
  0
TEXT
  5
2D3
330
17
100
AcDbEntity
  8
0
 62
1
100
AcDbText
 10
150.25
 20
35.25
 30
0.0
 40
0.8
  1
(150,35)
100
AcDbText
  0
TEXT
  5
2D4
330
17
100
AcDbEntity
  8
0
 62
1
100
AcDbText
 10
150.25
 20
40.25
 30
0.0
 40
0.8
  1
(150,40)
100
AcDbText
  0
TEXT
  5
2D5
330
17
100
AcDbEntity
  8
0
 62
1
100
AcDbText
 10
150.25
 20
45.25
 30
0.0
 40
0.8
  1
(150,45)
100
AcDbText
  0
TEXT
  5
2D6
330
17
100
AcDbEntity
  8
0
 62
1
100
AcDbText
 10
150.25
 20
50.25
 30
0.0
 40
0.8
  1
(150,50)
100
AcDbText
  0
TEXT
  5
2D7
330
17
100
AcDbEntity
  8
0
 62
1
100
AcDbText
 10
150.25
 20
55.25
 30
0.0
 40
0.8
  1
(150,55)
100
AcDbText
  0
TEXT
  5
2D8
330
17
100
AcDbEntity
  8
0
 62
1
100
AcDbText
 10
150.25
 20
60.25
 30
0.0
 40
0.8
  1
(150,60)
100
AcDbText
  0
TEXT
  5
2D9
330
17
100
AcDbEntity
  8
0
 62
1
100
AcDbText
 10
150.25
 20
65.25
 30
0.0
 40
0.8
  1
(150,65)
100
AcDbText
  0
TEXT
  5
2DA
330
17
100
AcDbEntity
  8
0
 62
1
100
AcDbText
 10
150.25
 20
70.25
 30
0.0
 40
0.8
  1
(150,70)
100
AcDbText
  0
TEXT
  5
2DB
330
17
100
AcDbEntity
  8
0
 62
1
100
AcDbText
 10
150.25
 20
75.25
 30
0.0
 40
0.8
  1
(150,75)
100
AcDbText
  0
TEXT
  5
2DC
330
17
100
AcDbEntity
  8
0
 62
1
100
AcDbText
 10
150.25
 20
80.25
 30
0.0
 40
0.8
  1
(150,80)
100
AcDbText
  0
TEXT
  5
2DD
330
17
100
AcDbEntity
  8
0
 62
1
100
AcDbText
 10
150.25
 20
85.25
 30
0.0
 40
0.8
  1
(150,85)
100
AcDbText
  0
TEXT
  5
2DE
330
17
100
AcDbEntity
  8
0
 62
1
100
AcDbText
 10
150.25
 20
90.25
 30
0.0
 40
0.8
  1
(150,90)
100
AcDbText
  0
TEXT
  5
2DF
330
17
100
AcDbEntity
  8
0
 62
1
100
AcDbText
 10
150.25
 20
95.25
 30
0.0
 40
0.8
  1
(150,95)
100
AcDbText
  0
TEXT
  5
2E0
330
17
100
AcDbEntity
  8
0
 62
1
100
AcDbText
 10
155.25
 20
0.25
 30
0.0
 40
0.8
  1
(155,0)
100
AcDbText
  0
TEXT
  5
2E1
330
17
100
AcDbEntity
  8
0
 62
1
100
AcDbText
 10
155.25
 20
5.25
 30
0.0
 40
0.8
  1
(155,5)
100
AcDbText
  0
TEXT
  5
2E2
330
17
100
AcDbEntity
  8
0
 62
1
100
AcDbText
 10
155.25
 20
10.25
 30
0.0
 40
0.8
  1
(155,10)
100
AcDbText
  0
TEXT
  5
2E3
330
17
100
AcDbEntity
  8
0
 62
1
100
AcDbText
 10
155.25
 20
15.25
 30
0.0
 40
0.8
  1
(155,15)
100
AcDbText
  0
TEXT
  5
2E4
330
17
100
AcDbEntity
  8
0
 62
1
100
AcDbText
 10
155.25
 20
20.25
 30
0.0
 40
0.8
  1
(155,20)
100
AcDbText
  0
TEXT
  5
2E5
330
17
100
AcDbEntity
  8
0
 62
1
100
AcDbText
 10
155.25
 20
25.25
 30
0.0
 40
0.8
  1
(155,25)
100
AcDbText
  0
TEXT
  5
2E6
330
17
100
AcDbEntity
  8
0
 62
1
100
AcDbText
 10
155.25
 20
30.25
 30
0.0
 40
0.8
  1
(155,30)
100
AcDbText
  0
TEXT
  5
2E7
330
17
100
AcDbEntity
  8
0
 62
1
100
AcDbText
 10
155.25
 20
35.25
 30
0.0
 40
0.8
  1
(155,35)
100
AcDbText
  0
TEXT
  5
2E8
330
17
100
AcDbEntity
  8
0
 62
1
100
AcDbText
 10
155.25
 20
40.25
 30
0.0
 40
0.8
  1
(155,40)
100
AcDbText
  0
TEXT
  5
2E9
330
17
100
AcDbEntity
  8
0
 62
1
100
AcDbText
 10
155.25
 20
45.25
 30
0.0
 40
0.8
  1
(155,45)
100
AcDbText
  0
TEXT
  5
2EA
330
17
100
AcDbEntity
  8
0
 62
1
100
AcDbText
 10
155.25
 20
50.25
 30
0.0
 40
0.8
  1
(155,50)
100
AcDbText
  0
TEXT
  5
2EB
330
17
100
AcDbEntity
  8
0
 62
1
100
AcDbText
 10
155.25
 20
55.25
 30
0.0
 40
0.8
  1
(155,55)
100
AcDbText
  0
TEXT
  5
2EC
330
17
100
AcDbEntity
  8
0
 62
1
100
AcDbText
 10
155.25
 20
60.25
 30
0.0
 40
0.8
  1
(155,60)
100
AcDbText
  0
TEXT
  5
2ED
330
17
100
AcDbEntity
  8
0
 62
1
100
AcDbText
 10
155.25
 20
65.25
 30
0.0
 40
0.8
  1
(155,65)
100
AcDbText
  0
TEXT
  5
2EE
330
17
100
AcDbEntity
  8
0
 62
1
100
AcDbText
 10
155.25
 20
70.25
 30
0.0
 40
0.8
  1
(155,70)
100
AcDbText
  0
TEXT
  5
2EF
330
17
100
AcDbEntity
  8
0
 62
1
100
AcDbText
 10
155.25
 20
75.25
 30
0.0
 40
0.8
  1
(155,75)
100
AcDbText
  0
TEXT
  5
2F0
330
17
100
AcDbEntity
  8
0
 62
1
100
AcDbText
 10
155.25
 20
80.25
 30
0.0
 40
0.8
  1
(155,80)
100
AcDbText
  0
TEXT
  5
2F1
330
17
100
AcDbEntity
  8
0
 62
1
100
AcDbText
 10
155.25
 20
85.25
 30
0.0
 40
0.8
  1
(155,85)
100
AcDbText
  0
TEXT
  5
2F2
330
17
100
AcDbEntity
  8
0
 62
1
100
AcDbText
 10
155.25
 20
90.25
 30
0.0
 40
0.8
  1
(155,90)
100
AcDbText
  0
TEXT
  5
2F3
330
17
100
AcDbEntity
  8
0
 62
1
100
AcDbText
 10
155.25
 20
95.25
 30
0.0
 40
0.8
  1
(155,95)
100
AcDbText
  0
TEXT
  5
2F4
330
17
100
AcDbEntity
  8
0
 62
1
100
AcDbText
 10
160.25
 20
0.25
 30
0.0
 40
0.8
  1
(160,0)
100
AcDbText
  0
TEXT
  5
2F5
330
17
100
AcDbEntity
  8
0
 62
1
100
AcDbText
 10
160.25
 20
5.25
 30
0.0
 40
0.8
  1
(160,5)
100
AcDbText
  0
TEXT
  5
2F6
330
17
100
AcDbEntity
  8
0
 62
1
100
AcDbText
 10
160.25
 20
10.25
 30
0.0
 40
0.8
  1
(160,10)
100
AcDbText
  0
TEXT
  5
2F7
330
17
100
AcDbEntity
  8
0
 62
1
100
AcDbText
 10
160.25
 20
15.25
 30
0.0
 40
0.8
  1
(160,15)
100
AcDbText
  0
TEXT
  5
2F8
330
17
100
AcDbEntity
  8
0
 62
1
100
AcDbText
 10
160.25
 20
20.25
 30
0.0
 40
0.8
  1
(160,20)
100
AcDbText
  0
TEXT
  5
2F9
330
17
100
AcDbEntity
  8
0
 62
1
100
AcDbText
 10
160.25
 20
25.25
 30
0.0
 40
0.8
  1
(160,25)
100
AcDbText
  0
TEXT
  5
2FA
330
17
100
AcDbEntity
  8
0
 62
1
100
AcDbText
 10
160.25
 20
30.25
 30
0.0
 40
0.8
  1
(160,30)
100
AcDbText
  0
TEXT
  5
2FB
330
17
100
AcDbEntity
  8
0
 62
1
100
AcDbText
 10
160.25
 20
35.25
 30
0.0
 40
0.8
  1
(160,35)
100
AcDbText
  0
TEXT
  5
2FC
330
17
100
AcDbEntity
  8
0
 62
1
100
AcDbText
 10
160.25
 20
40.25
 30
0.0
 40
0.8
  1
(160,40)
100
AcDbText
  0
TEXT
  5
2FD
330
17
100
AcDbEntity
  8
0
 62
1
100
AcDbText
 10
160.25
 20
45.25
 30
0.0
 40
0.8
  1
(160,45)
100
AcDbText
  0
TEXT
  5
2FE
330
17
100
AcDbEntity
  8
0
 62
1
100
AcDbText
 10
160.25
 20
50.25
 30
0.0
 40
0.8
  1
(160,50)
100
AcDbText
  0
TEXT
  5
2FF
330
17
100
AcDbEntity
  8
0
 62
1
100
AcDbText
 10
160.25
 20
55.25
 30
0.0
 40
0.8
  1
(160,55)
100
AcDbText
  0
TEXT
  5
300
330
17
100
AcDbEntity
  8
0
 62
1
100
AcDbText
 10
160.25
 20
60.25
 30
0.0
 40
0.8
  1
(160,60)
100
AcDbText
  0
TEXT
  5
301
330
17
100
AcDbEntity
  8
0
 62
1
100
AcDbText
 10
160.25
 20
65.25
 30
0.0
 40
0.8
  1
(160,65)
100
AcDbText
  0
TEXT
  5
302
330
17
100
AcDbEntity
  8
0
 62
1
100
AcDbText
 10
160.25
 20
70.25
 30
0.0
 40
0.8
  1
(160,70)
100
AcDbText
  0
TEXT
  5
303
330
17
100
AcDbEntity
  8
0
 62
1
100
AcDbText
 10
160.25
 20
75.25
 30
0.0
 40
0.8
  1
(160,75)
100
AcDbText
  0
TEXT
  5
304
330
17
100
AcDbEntity
  8
0
 62
1
100
AcDbText
 10
160.25
 20
80.25
 30
0.0
 40
0.8
  1
(160,80)
100
AcDbText
  0
TEXT
  5
305
330
17
100
AcDbEntity
  8
0
 62
1
100
AcDbText
 10
160.25
 20
85.25
 30
0.0
 40
0.8
  1
(160,85)
100
AcDbText
  0
TEXT
  5
306
330
17
100
AcDbEntity
  8
0
 62
1
100
AcDbText
 10
160.25
 20
90.25
 30
0.0
 40
0.8
  1
(160,90)
100
AcDbText
  0
TEXT
  5
307
330
17
100
AcDbEntity
  8
0
 62
1
100
AcDbText
 10
160.25
 20
95.25
 30
0.0
 40
0.8
  1
(160,95)
100
AcDbText
  0
TEXT
  5
308
330
17
100
AcDbEntity
  8
0
 62
1
100
AcDbText
 10
165.25
 20
0.25
 30
0.0
 40
0.8
  1
(165,0)
100
AcDbText
  0
TEXT
  5
309
330
17
100
AcDbEntity
  8
0
 62
1
100
AcDbText
 10
165.25
 20
5.25
 30
0.0
 40
0.8
  1
(165,5)
100
AcDbText
  0
TEXT
  5
30A
330
17
100
AcDbEntity
  8
0
 62
1
100
AcDbText
 10
165.25
 20
10.25
 30
0.0
 40
0.8
  1
(165,10)
100
AcDbText
  0
TEXT
  5
30B
330
17
100
AcDbEntity
  8
0
 62
1
100
AcDbText
 10
165.25
 20
15.25
 30
0.0
 40
0.8
  1
(165,15)
100
AcDbText
  0
TEXT
  5
30C
330
17
100
AcDbEntity
  8
0
 62
1
100
AcDbText
 10
165.25
 20
20.25
 30
0.0
 40
0.8
  1
(165,20)
100
AcDbText
  0
TEXT
  5
30D
330
17
100
AcDbEntity
  8
0
 62
1
100
AcDbText
 10
165.25
 20
25.25
 30
0.0
 40
0.8
  1
(165,25)
100
AcDbText
  0
TEXT
  5
30E
330
17
100
AcDbEntity
  8
0
 62
1
100
AcDbText
 10
165.25
 20
30.25
 30
0.0
 40
0.8
  1
(165,30)
100
AcDbText
  0
TEXT
  5
30F
330
17
100
AcDbEntity
  8
0
 62
1
100
AcDbText
 10
165.25
 20
35.25
 30
0.0
 40
0.8
  1
(165,35)
100
AcDbText
  0
TEXT
  5
310
330
17
100
AcDbEntity
  8
0
 62
1
100
AcDbText
 10
165.25
 20
40.25
 30
0.0
 40
0.8
  1
(165,40)
100
AcDbText
  0
TEXT
  5
311
330
17
100
AcDbEntity
  8
0
 62
1
100
AcDbText
 10
165.25
 20
45.25
 30
0.0
 40
0.8
  1
(165,45)
100
AcDbText
  0
TEXT
  5
312
330
17
100
AcDbEntity
  8
0
 62
1
100
AcDbText
 10
165.25
 20
50.25
 30
0.0
 40
0.8
  1
(165,50)
100
AcDbText
  0
TEXT
  5
313
330
17
100
AcDbEntity
  8
0
 62
1
100
AcDbText
 10
165.25
 20
55.25
 30
0.0
 40
0.8
  1
(165,55)
100
AcDbText
  0
TEXT
  5
314
330
17
100
AcDbEntity
  8
0
 62
1
100
AcDbText
 10
165.25
 20
60.25
 30
0.0
 40
0.8
  1
(165,60)
100
AcDbText
  0
TEXT
  5
315
330
17
100
AcDbEntity
  8
0
 62
1
100
AcDbText
 10
165.25
 20
65.25
 30
0.0
 40
0.8
  1
(165,65)
100
AcDbText
  0
TEXT
  5
316
330
17
100
AcDbEntity
  8
0
 62
1
100
AcDbText
 10
165.25
 20
70.25
 30
0.0
 40
0.8
  1
(165,70)
100
AcDbText
  0
TEXT
  5
317
330
17
100
AcDbEntity
  8
0
 62
1
100
AcDbText
 10
165.25
 20
75.25
 30
0.0
 40
0.8
  1
(165,75)
100
AcDbText
  0
TEXT
  5
318
330
17
100
AcDbEntity
  8
0
 62
1
100
AcDbText
 10
165.25
 20
80.25
 30
0.0
 40
0.8
  1
(165,80)
100
AcDbText
  0
TEXT
  5
319
330
17
100
AcDbEntity
  8
0
 62
1
100
AcDbText
 10
165.25
 20
85.25
 30
0.0
 40
0.8
  1
(165,85)
100
AcDbText
  0
TEXT
  5
31A
330
17
100
AcDbEntity
  8
0
 62
1
100
AcDbText
 10
165.25
 20
90.25
 30
0.0
 40
0.8
  1
(165,90)
100
AcDbText
  0
TEXT
  5
31B
330
17
100
AcDbEntity
  8
0
 62
1
100
AcDbText
 10
165.25
 20
95.25
 30
0.0
 40
0.8
  1
(165,95)
100
AcDbText
  0
TEXT
  5
31C
330
17
100
AcDbEntity
  8
0
 62
1
100
AcDbText
 10
170.25
 20
0.25
 30
0.0
 40
0.8
  1
(170,0)
100
AcDbText
  0
TEXT
  5
31D
330
17
100
AcDbEntity
  8
0
 62
1
100
AcDbText
 10
170.25
 20
5.25
 30
0.0
 40
0.8
  1
(170,5)
100
AcDbText
  0
TEXT
  5
31E
330
17
100
AcDbEntity
  8
0
 62
1
100
AcDbText
 10
170.25
 20
10.25
 30
0.0
 40
0.8
  1
(170,10)
100
AcDbText
  0
TEXT
  5
31F
330
17
100
AcDbEntity
  8
0
 62
1
100
AcDbText
 10
170.25
 20
15.25
 30
0.0
 40
0.8
  1
(170,15)
100
AcDbText
  0
TEXT
  5
320
330
17
100
AcDbEntity
  8
0
 62
1
100
AcDbText
 10
170.25
 20
20.25
 30
0.0
 40
0.8
  1
(170,20)
100
AcDbText
  0
TEXT
  5
321
330
17
100
AcDbEntity
  8
0
 62
1
100
AcDbText
 10
170.25
 20
25.25
 30
0.0
 40
0.8
  1
(170,25)
100
AcDbText
  0
TEXT
  5
322
330
17
100
AcDbEntity
  8
0
 62
1
100
AcDbText
 10
170.25
 20
30.25
 30
0.0
 40
0.8
  1
(170,30)
100
AcDbText
  0
TEXT
  5
323
330
17
100
AcDbEntity
  8
0
 62
1
100
AcDbText
 10
170.25
 20
35.25
 30
0.0
 40
0.8
  1
(170,35)
100
AcDbText
  0
TEXT
  5
324
330
17
100
AcDbEntity
  8
0
 62
1
100
AcDbText
 10
170.25
 20
40.25
 30
0.0
 40
0.8
  1
(170,40)
100
AcDbText
  0
TEXT
  5
325
330
17
100
AcDbEntity
  8
0
 62
1
100
AcDbText
 10
170.25
 20
45.25
 30
0.0
 40
0.8
  1
(170,45)
100
AcDbText
  0
TEXT
  5
326
330
17
100
AcDbEntity
  8
0
 62
1
100
AcDbText
 10
170.25
 20
50.25
 30
0.0
 40
0.8
  1
(170,50)
100
AcDbText
  0
TEXT
  5
327
330
17
100
AcDbEntity
  8
0
 62
1
100
AcDbText
 10
170.25
 20
55.25
 30
0.0
 40
0.8
  1
(170,55)
100
AcDbText
  0
TEXT
  5
328
330
17
100
AcDbEntity
  8
0
 62
1
100
AcDbText
 10
170.25
 20
60.25
 30
0.0
 40
0.8
  1
(170,60)
100
AcDbText
  0
TEXT
  5
329
330
17
100
AcDbEntity
  8
0
 62
1
100
AcDbText
 10
170.25
 20
65.25
 30
0.0
 40
0.8
  1
(170,65)
100
AcDbText
  0
TEXT
  5
32A
330
17
100
AcDbEntity
  8
0
 62
1
100
AcDbText
 10
170.25
 20
70.25
 30
0.0
 40
0.8
  1
(170,70)
100
AcDbText
  0
TEXT
  5
32B
330
17
100
AcDbEntity
  8
0
 62
1
100
AcDbText
 10
170.25
 20
75.25
 30
0.0
 40
0.8
  1
(170,75)
100
AcDbText
  0
TEXT
  5
32C
330
17
100
AcDbEntity
  8
0
 62
1
100
AcDbText
 10
170.25
 20
80.25
 30
0.0
 40
0.8
  1
(170,80)
100
AcDbText
  0
TEXT
  5
32D
330
17
100
AcDbEntity
  8
0
 62
1
100
AcDbText
 10
170.25
 20
85.25
 30
0.0
 40
0.8
  1
(170,85)
100
AcDbText
  0
TEXT
  5
32E
330
17
100
AcDbEntity
  8
0
 62
1
100
AcDbText
 10
170.25
 20
90.25
 30
0.0
 40
0.8
  1
(170,90)
100
AcDbText
  0
TEXT
  5
32F
330
17
100
AcDbEntity
  8
0
 62
1
100
AcDbText
 10
170.25
 20
95.25
 30
0.0
 40
0.8
  1
(170,95)
100
AcDbText
  0
TEXT
  5
330
330
17
100
AcDbEntity
  8
0
 62
1
100
AcDbText
 10
175.25
 20
0.25
 30
0.0
 40
0.8
  1
(175,0)
100
AcDbText
  0
TEXT
  5
331
330
17
100
AcDbEntity
  8
0
 62
1
100
AcDbText
 10
175.25
 20
5.25
 30
0.0
 40
0.8
  1
(175,5)
100
AcDbText
  0
TEXT
  5
332
330
17
100
AcDbEntity
  8
0
 62
1
100
AcDbText
 10
175.25
 20
10.25
 30
0.0
 40
0.8
  1
(175,10)
100
AcDbText
  0
TEXT
  5
333
330
17
100
AcDbEntity
  8
0
 62
1
100
AcDbText
 10
175.25
 20
15.25
 30
0.0
 40
0.8
  1
(175,15)
100
AcDbText
  0
TEXT
  5
334
330
17
100
AcDbEntity
  8
0
 62
1
100
AcDbText
 10
175.25
 20
20.25
 30
0.0
 40
0.8
  1
(175,20)
100
AcDbText
  0
TEXT
  5
335
330
17
100
AcDbEntity
  8
0
 62
1
100
AcDbText
 10
175.25
 20
25.25
 30
0.0
 40
0.8
  1
(175,25)
100
AcDbText
  0
TEXT
  5
336
330
17
100
AcDbEntity
  8
0
 62
1
100
AcDbText
 10
175.25
 20
30.25
 30
0.0
 40
0.8
  1
(175,30)
100
AcDbText
  0
TEXT
  5
337
330
17
100
AcDbEntity
  8
0
 62
1
100
AcDbText
 10
175.25
 20
35.25
 30
0.0
 40
0.8
  1
(175,35)
100
AcDbText
  0
TEXT
  5
338
330
17
100
AcDbEntity
  8
0
 62
1
100
AcDbText
 10
175.25
 20
40.25
 30
0.0
 40
0.8
  1
(175,40)
100
AcDbText
  0
TEXT
  5
339
330
17
100
AcDbEntity
  8
0
 62
1
100
AcDbText
 10
175.25
 20
45.25
 30
0.0
 40
0.8
  1
(175,45)
100
AcDbText
  0
TEXT
  5
33A
330
17
100
AcDbEntity
  8
0
 62
1
100
AcDbText
 10
175.25
 20
50.25
 30
0.0
 40
0.8
  1
(175,50)
100
AcDbText
  0
TEXT
  5
33B
330
17
100
AcDbEntity
  8
0
 62
1
100
AcDbText
 10
175.25
 20
55.25
 30
0.0
 40
0.8
  1
(175,55)
100
AcDbText
  0
TEXT
  5
33C
330
17
100
AcDbEntity
  8
0
 62
1
100
AcDbText
 10
175.25
 20
60.25
 30
0.0
 40
0.8
  1
(175,60)
100
AcDbText
  0
TEXT
  5
33D
330
17
100
AcDbEntity
  8
0
 62
1
100
AcDbText
 10
175.25
 20
65.25
 30
0.0
 40
0.8
  1
(175,65)
100
AcDbText
  0
TEXT
  5
33E
330
17
100
AcDbEntity
  8
0
 62
1
100
AcDbText
 10
175.25
 20
70.25
 30
0.0
 40
0.8
  1
(175,70)
100
AcDbText
  0
TEXT
  5
33F
330
17
100
AcDbEntity
  8
0
 62
1
100
AcDbText
 10
175.25
 20
75.25
 30
0.0
 40
0.8
  1
(175,75)
100
AcDbText
  0
TEXT
  5
340
330
17
100
AcDbEntity
  8
0
 62
1
100
AcDbText
 10
175.25
 20
80.25
 30
0.0
 40
0.8
  1
(175,80)
100
AcDbText
  0
TEXT
  5
341
330
17
100
AcDbEntity
  8
0
 62
1
100
AcDbText
 10
175.25
 20
85.25
 30
0.0
 40
0.8
  1
(175,85)
100
AcDbText
  0
TEXT
  5
342
330
17
100
AcDbEntity
  8
0
 62
1
100
AcDbText
 10
175.25
 20
90.25
 30
0.0
 40
0.8
  1
(175,90)
100
AcDbText
  0
TEXT
  5
343
330
17
100
AcDbEntity
  8
0
 62
1
100
AcDbText
 10
175.25
 20
95.25
 30
0.0
 40
0.8
  1
(175,95)
100
AcDbText
  0
TEXT
  5
344
330
17
100
AcDbEntity
  8
0
 62
1
100
AcDbText
 10
180.25
 20
0.25
 30
0.0
 40
0.8
  1
(180,0)
100
AcDbText
  0
TEXT
  5
345
330
17
100
AcDbEntity
  8
0
 62
1
100
AcDbText
 10
180.25
 20
5.25
 30
0.0
 40
0.8
  1
(180,5)
100
AcDbText
  0
TEXT
  5
346
330
17
100
AcDbEntity
  8
0
 62
1
100
AcDbText
 10
180.25
 20
10.25
 30
0.0
 40
0.8
  1
(180,10)
100
AcDbText
  0
TEXT
  5
347
330
17
100
AcDbEntity
  8
0
 62
1
100
AcDbText
 10
180.25
 20
15.25
 30
0.0
 40
0.8
  1
(180,15)
100
AcDbText
  0
TEXT
  5
348
330
17
100
AcDbEntity
  8
0
 62
1
100
AcDbText
 10
180.25
 20
20.25
 30
0.0
 40
0.8
  1
(180,20)
100
AcDbText
  0
TEXT
  5
349
330
17
100
AcDbEntity
  8
0
 62
1
100
AcDbText
 10
180.25
 20
25.25
 30
0.0
 40
0.8
  1
(180,25)
100
AcDbText
  0
TEXT
  5
34A
330
17
100
AcDbEntity
  8
0
 62
1
100
AcDbText
 10
180.25
 20
30.25
 30
0.0
 40
0.8
  1
(180,30)
100
AcDbText
  0
TEXT
  5
34B
330
17
100
AcDbEntity
  8
0
 62
1
100
AcDbText
 10
180.25
 20
35.25
 30
0.0
 40
0.8
  1
(180,35)
100
AcDbText
  0
TEXT
  5
34C
330
17
100
AcDbEntity
  8
0
 62
1
100
AcDbText
 10
180.25
 20
40.25
 30
0.0
 40
0.8
  1
(180,40)
100
AcDbText
  0
TEXT
  5
34D
330
17
100
AcDbEntity
  8
0
 62
1
100
AcDbText
 10
180.25
 20
45.25
 30
0.0
 40
0.8
  1
(180,45)
100
AcDbText
  0
TEXT
  5
34E
330
17
100
AcDbEntity
  8
0
 62
1
100
AcDbText
 10
180.25
 20
50.25
 30
0.0
 40
0.8
  1
(180,50)
100
AcDbText
  0
TEXT
  5
34F
330
17
100
AcDbEntity
  8
0
 62
1
100
AcDbText
 10
180.25
 20
55.25
 30
0.0
 40
0.8
  1
(180,55)
100
AcDbText
  0
TEXT
  5
350
330
17
100
AcDbEntity
  8
0
 62
1
100
AcDbText
 10
180.25
 20
60.25
 30
0.0
 40
0.8
  1
(180,60)
100
AcDbText
  0
TEXT
  5
351
330
17
100
AcDbEntity
  8
0
 62
1
100
AcDbText
 10
180.25
 20
65.25
 30
0.0
 40
0.8
  1
(180,65)
100
AcDbText
  0
TEXT
  5
352
330
17
100
AcDbEntity
  8
0
 62
1
100
AcDbText
 10
180.25
 20
70.25
 30
0.0
 40
0.8
  1
(180,70)
100
AcDbText
  0
TEXT
  5
353
330
17
100
AcDbEntity
  8
0
 62
1
100
AcDbText
 10
180.25
 20
75.25
 30
0.0
 40
0.8
  1
(180,75)
100
AcDbText
  0
TEXT
  5
354
330
17
100
AcDbEntity
  8
0
 62
1
100
AcDbText
 10
180.25
 20
80.25
 30
0.0
 40
0.8
  1
(180,80)
100
AcDbText
  0
TEXT
  5
355
330
17
100
AcDbEntity
  8
0
 62
1
100
AcDbText
 10
180.25
 20
85.25
 30
0.0
 40
0.8
  1
(180,85)
100
AcDbText
  0
TEXT
  5
356
330
17
100
AcDbEntity
  8
0
 62
1
100
AcDbText
 10
180.25
 20
90.25
 30
0.0
 40
0.8
  1
(180,90)
100
AcDbText
  0
TEXT
  5
357
330
17
100
AcDbEntity
  8
0
 62
1
100
AcDbText
 10
180.25
 20
95.25
 30
0.0
 40
0.8
  1
(180,95)
100
AcDbText
  0
TEXT
  5
358
330
17
100
AcDbEntity
  8
0
 62
1
100
AcDbText
 10
185.25
 20
0.25
 30
0.0
 40
0.8
  1
(185,0)
100
AcDbText
  0
TEXT
  5
359
330
17
100
AcDbEntity
  8
0
 62
1
100
AcDbText
 10
185.25
 20
5.25
 30
0.0
 40
0.8
  1
(185,5)
100
AcDbText
  0
TEXT
  5
35A
330
17
100
AcDbEntity
  8
0
 62
1
100
AcDbText
 10
185.25
 20
10.25
 30
0.0
 40
0.8
  1
(185,10)
100
AcDbText
  0
TEXT
  5
35B
330
17
100
AcDbEntity
  8
0
 62
1
100
AcDbText
 10
185.25
 20
15.25
 30
0.0
 40
0.8
  1
(185,15)
100
AcDbText
  0
TEXT
  5
35C
330
17
100
AcDbEntity
  8
0
 62
1
100
AcDbText
 10
185.25
 20
20.25
 30
0.0
 40
0.8
  1
(185,20)
100
AcDbText
  0
TEXT
  5
35D
330
17
100
AcDbEntity
  8
0
 62
1
100
AcDbText
 10
185.25
 20
25.25
 30
0.0
 40
0.8
  1
(185,25)
100
AcDbText
  0
TEXT
  5
35E
330
17
100
AcDbEntity
  8
0
 62
1
100
AcDbText
 10
185.25
 20
30.25
 30
0.0
 40
0.8
  1
(185,30)
100
AcDbText
  0
TEXT
  5
35F
330
17
100
AcDbEntity
  8
0
 62
1
100
AcDbText
 10
185.25
 20
35.25
 30
0.0
 40
0.8
  1
(185,35)
100
AcDbText
  0
TEXT
  5
360
330
17
100
AcDbEntity
  8
0
 62
1
100
AcDbText
 10
185.25
 20
40.25
 30
0.0
 40
0.8
  1
(185,40)
100
AcDbText
  0
TEXT
  5
361
330
17
100
AcDbEntity
  8
0
 62
1
100
AcDbText
 10
185.25
 20
45.25
 30
0.0
 40
0.8
  1
(185,45)
100
AcDbText
  0
TEXT
  5
362
330
17
100
AcDbEntity
  8
0
 62
1
100
AcDbText
 10
185.25
 20
50.25
 30
0.0
 40
0.8
  1
(185,50)
100
AcDbText
  0
TEXT
  5
363
330
17
100
AcDbEntity
  8
0
 62
1
100
AcDbText
 10
185.25
 20
55.25
 30
0.0
 40
0.8
  1
(185,55)
100
AcDbText
  0
TEXT
  5
364
330
17
100
AcDbEntity
  8
0
 62
1
100
AcDbText
 10
185.25
 20
60.25
 30
0.0
 40
0.8
  1
(185,60)
100
AcDbText
  0
TEXT
  5
365
330
17
100
AcDbEntity
  8
0
 62
1
100
AcDbText
 10
185.25
 20
65.25
 30
0.0
 40
0.8
  1
(185,65)
100
AcDbText
  0
TEXT
  5
366
330
17
100
AcDbEntity
  8
0
 62
1
100
AcDbText
 10
185.25
 20
70.25
 30
0.0
 40
0.8
  1
(185,70)
100
AcDbText
  0
TEXT
  5
367
330
17
100
AcDbEntity
  8
0
 62
1
100
AcDbText
 10
185.25
 20
75.25
 30
0.0
 40
0.8
  1
(185,75)
100
AcDbText
  0
TEXT
  5
368
330
17
100
AcDbEntity
  8
0
 62
1
100
AcDbText
 10
185.25
 20
80.25
 30
0.0
 40
0.8
  1
(185,80)
100
AcDbText
  0
TEXT
  5
369
330
17
100
AcDbEntity
  8
0
 62
1
100
AcDbText
 10
185.25
 20
85.25
 30
0.0
 40
0.8
  1
(185,85)
100
AcDbText
  0
TEXT
  5
36A
330
17
100
AcDbEntity
  8
0
 62
1
100
AcDbText
 10
185.25
 20
90.25
 30
0.0
 40
0.8
  1
(185,90)
100
AcDbText
  0
TEXT
  5
36B
330
17
100
AcDbEntity
  8
0
 62
1
100
AcDbText
 10
185.25
 20
95.25
 30
0.0
 40
0.8
  1
(185,95)
100
AcDbText
  0
TEXT
  5
36C
330
17
100
AcDbEntity
  8
0
 62
1
100
AcDbText
 10
190.25
 20
0.25
 30
0.0
 40
0.8
  1
(190,0)
100
AcDbText
  0
TEXT
  5
36D
330
17
100
AcDbEntity
  8
0
 62
1
100
AcDbText
 10
190.25
 20
5.25
 30
0.0
 40
0.8
  1
(190,5)
100
AcDbText
  0
TEXT
  5
36E
330
17
100
AcDbEntity
  8
0
 62
1
100
AcDbText
 10
190.25
 20
10.25
 30
0.0
 40
0.8
  1
(190,10)
100
AcDbText
  0
TEXT
  5
36F
330
17
100
AcDbEntity
  8
0
 62
1
100
AcDbText
 10
190.25
 20
15.25
 30
0.0
 40
0.8
  1
(190,15)
100
AcDbText
  0
TEXT
  5
370
330
17
100
AcDbEntity
  8
0
 62
1
100
AcDbText
 10
190.25
 20
20.25
 30
0.0
 40
0.8
  1
(190,20)
100
AcDbText
  0
TEXT
  5
371
330
17
100
AcDbEntity
  8
0
 62
1
100
AcDbText
 10
190.25
 20
25.25
 30
0.0
 40
0.8
  1
(190,25)
100
AcDbText
  0
TEXT
  5
372
330
17
100
AcDbEntity
  8
0
 62
1
100
AcDbText
 10
190.25
 20
30.25
 30
0.0
 40
0.8
  1
(190,30)
100
AcDbText
  0
TEXT
  5
373
330
17
100
AcDbEntity
  8
0
 62
1
100
AcDbText
 10
190.25
 20
35.25
 30
0.0
 40
0.8
  1
(190,35)
100
AcDbText
  0
TEXT
  5
374
330
17
100
AcDbEntity
  8
0
 62
1
100
AcDbText
 10
190.25
 20
40.25
 30
0.0
 40
0.8
  1
(190,40)
100
AcDbText
  0
TEXT
  5
375
330
17
100
AcDbEntity
  8
0
 62
1
100
AcDbText
 10
190.25
 20
45.25
 30
0.0
 40
0.8
  1
(190,45)
100
AcDbText
  0
TEXT
  5
376
330
17
100
AcDbEntity
  8
0
 62
1
100
AcDbText
 10
190.25
 20
50.25
 30
0.0
 40
0.8
  1
(190,50)
100
AcDbText
  0
TEXT
  5
377
330
17
100
AcDbEntity
  8
0
 62
1
100
AcDbText
 10
190.25
 20
55.25
 30
0.0
 40
0.8
  1
(190,55)
100
AcDbText
  0
TEXT
  5
378
330
17
100
AcDbEntity
  8
0
 62
1
100
AcDbText
 10
190.25
 20
60.25
 30
0.0
 40
0.8
  1
(190,60)
100
AcDbText
  0
TEXT
  5
379
330
17
100
AcDbEntity
  8
0
 62
1
100
AcDbText
 10
190.25
 20
65.25
 30
0.0
 40
0.8
  1
(190,65)
100
AcDbText
  0
TEXT
  5
37A
330
17
100
AcDbEntity
  8
0
 62
1
100
AcDbText
 10
190.25
 20
70.25
 30
0.0
 40
0.8
  1
(190,70)
100
AcDbText
  0
TEXT
  5
37B
330
17
100
AcDbEntity
  8
0
 62
1
100
AcDbText
 10
190.25
 20
75.25
 30
0.0
 40
0.8
  1
(190,75)
100
AcDbText
  0
TEXT
  5
37C
330
17
100
AcDbEntity
  8
0
 62
1
100
AcDbText
 10
190.25
 20
80.25
 30
0.0
 40
0.8
  1
(190,80)
100
AcDbText
  0
TEXT
  5
37D
330
17
100
AcDbEntity
  8
0
 62
1
100
AcDbText
 10
190.25
 20
85.25
 30
0.0
 40
0.8
  1
(190,85)
100
AcDbText
  0
TEXT
  5
37E
330
17
100
AcDbEntity
  8
0
 62
1
100
AcDbText
 10
190.25
 20
90.25
 30
0.0
 40
0.8
  1
(190,90)
100
AcDbText
  0
TEXT
  5
37F
330
17
100
AcDbEntity
  8
0
 62
1
100
AcDbText
 10
190.25
 20
95.25
 30
0.0
 40
0.8
  1
(190,95)
100
AcDbText
  0
TEXT
  5
380
330
17
100
AcDbEntity
  8
0
 62
1
100
AcDbText
 10
195.25
 20
0.25
 30
0.0
 40
0.8
  1
(195,0)
100
AcDbText
  0
TEXT
  5
381
330
17
100
AcDbEntity
  8
0
 62
1
100
AcDbText
 10
195.25
 20
5.25
 30
0.0
 40
0.8
  1
(195,5)
100
AcDbText
  0
TEXT
  5
382
330
17
100
AcDbEntity
  8
0
 62
1
100
AcDbText
 10
195.25
 20
10.25
 30
0.0
 40
0.8
  1
(195,10)
100
AcDbText
  0
TEXT
  5
383
330
17
100
AcDbEntity
  8
0
 62
1
100
AcDbText
 10
195.25
 20
15.25
 30
0.0
 40
0.8
  1
(195,15)
100
AcDbText
  0
TEXT
  5
384
330
17
100
AcDbEntity
  8
0
 62
1
100
AcDbText
 10
195.25
 20
20.25
 30
0.0
 40
0.8
  1
(195,20)
100
AcDbText
  0
TEXT
  5
385
330
17
100
AcDbEntity
  8
0
 62
1
100
AcDbText
 10
195.25
 20
25.25
 30
0.0
 40
0.8
  1
(195,25)
100
AcDbText
  0
TEXT
  5
386
330
17
100
AcDbEntity
  8
0
 62
1
100
AcDbText
 10
195.25
 20
30.25
 30
0.0
 40
0.8
  1
(195,30)
100
AcDbText
  0
TEXT
  5
387
330
17
100
AcDbEntity
  8
0
 62
1
100
AcDbText
 10
195.25
 20
35.25
 30
0.0
 40
0.8
  1
(195,35)
100
AcDbText
  0
TEXT
  5
388
330
17
100
AcDbEntity
  8
0
 62
1
100
AcDbText
 10
195.25
 20
40.25
 30
0.0
 40
0.8
  1
(195,40)
100
AcDbText
  0
TEXT
  5
389
330
17
100
AcDbEntity
  8
0
 62
1
100
AcDbText
 10
195.25
 20
45.25
 30
0.0
 40
0.8
  1
(195,45)
100
AcDbText
  0
TEXT
  5
38A
330
17
100
AcDbEntity
  8
0
 62
1
100
AcDbText
 10
195.25
 20
50.25
 30
0.0
 40
0.8
  1
(195,50)
100
AcDbText
  0
TEXT
  5
38B
330
17
100
AcDbEntity
  8
0
 62
1
100
AcDbText
 10
195.25
 20
55.25
 30
0.0
 40
0.8
  1
(195,55)
100
AcDbText
  0
TEXT
  5
38C
330
17
100
AcDbEntity
  8
0
 62
1
100
AcDbText
 10
195.25
 20
60.25
 30
0.0
 40
0.8
  1
(195,60)
100
AcDbText
  0
TEXT
  5
38D
330
17
100
AcDbEntity
  8
0
 62
1
100
AcDbText
 10
195.25
 20
65.25
 30
0.0
 40
0.8
  1
(195,65)
100
AcDbText
  0
TEXT
  5
38E
330
17
100
AcDbEntity
  8
0
 62
1
100
AcDbText
 10
195.25
 20
70.25
 30
0.0
 40
0.8
  1
(195,70)
100
AcDbText
  0
TEXT
  5
38F
330
17
100
AcDbEntity
  8
0
 62
1
100
AcDbText
 10
195.25
 20
75.25
 30
0.0
 40
0.8
  1
(195,75)
100
AcDbText
  0
TEXT
  5
390
330
17
100
AcDbEntity
  8
0
 62
1
100
AcDbText
 10
195.25
 20
80.25
 30
0.0
 40
0.8
  1
(195,80)
100
AcDbText
  0
TEXT
  5
391
330
17
100
AcDbEntity
  8
0
 62
1
100
AcDbText
 10
195.25
 20
85.25
 30
0.0
 40
0.8
  1
(195,85)
100
AcDbText
  0
TEXT
  5
392
330
17
100
AcDbEntity
  8
0
 62
1
100
AcDbText
 10
195.25
 20
90.25
 30
0.0
 40
0.8
  1
(195,90)
100
AcDbText
  0
TEXT
  5
393
330
17
100
AcDbEntity
  8
0
 62
1
100
AcDbText
 10
195.25
 20
95.25
 30
0.0
 40
0.8
  1
(195,95)
100
AcDbText
  0
TEXT
  5
394
330
17
100
AcDbEntity
  8
0
 62
7
100
AcDbText
 10
10.0
 20
5.0
 30
0.0
 40
1.5
  1
Rectangle
100
AcDbText
  0
TEXT
  5
395
330
17
100
AcDbEntity
  8
0
 62
7
100
AcDbText
 10
45.0
 20
5.0
 30
0.0
 40
1.5
  1
Circle
100
AcDbText
  0
TEXT
  5
396
330
17
100
AcDbEntity
  8
0
 62
7
100
AcDbText
 10
75.0
 20
5.0
 30
0.0
 40
1.5
  1
Line
100
AcDbText
  0
TEXT
  5
397
330
17
100
AcDbEntity
  8
0
 62
7
100
AcDbText
 10
100.0
 20
5.0
 30
0.0
 40
1.5
  1
Triangle
100
AcDbText
  0
TEXT
  5
398
330
17
100
AcDbEntity
  8
0
 62
7
100
AcDbText
 10
135.0
 20
5.0
 30
0.0
 40
1.5
  1
Arc
100
AcDbText
  0
TEXT
  5
399
330
17
100
AcDbEntity
  8
0
 62
7
100
AcDbText
 10
40.0
 20
35.0
 30
0.0
 40
1.5
  1
Star
100
AcDbText
  0
ENDSEC
  0
SECTION
  2
OBJECTS
  0
DICTIONARY
  5
A
330
0
100
AcDbDictionary
281
1
  3
ACAD_COLOR
350
B
  3
ACAD_GROUP
350
C
  3
ACAD_LAYOUT
350
D
  3
ACAD_MATERIAL
350
E
  3
ACAD_MLEADERSTYLE
350
F
  3
ACAD_MLINESTYLE
350
10
  3
ACAD_PLOTSETTINGS
350
11
  3
ACAD_PLOTSTYLENAME
350
12
  3
ACAD_SCALELIST
350
14
  3
ACAD_TABLESTYLE
350
15
  3
ACAD_VISUALSTYLE
350
16
  3
EZDXF_META
350
2D
  0
DICTIONARY
  5
B
330
A
100
AcDbDictionary
281
1
  0
DICTIONARY
  5
C
330
A
100
AcDbDictionary
281
1
  0
DICTIONARY
  5
D
330
A
100
AcDbDictionary
281
1
  3
Model
350
1A
  3
Layout1
350
1E
  0
DICTIONARY
  5
E
330
A
100
AcDbDictionary
281
1
  3
ByBlock
350
1F
  3
ByLayer
350
20
  3
Global
350
21
  0
DICTIONARY
  5
F
330
A
100
AcDbDictionary
281
1
  3
Standard
350
2C
  0
DICTIONARY
  5
10
330
A
100
AcDbDictionary
281
1
  3
Standard
350
22
  0
DICTIONARY
  5
11
330
A
100
AcDbDictionary
281
1
  0
ACDBDICTIONARYWDFLT
  5
12
330
A
100
AcDbDictionary
281
1
  3
Normal
350
13
100
AcDbDictionaryWithDefault
340
13
  0
ACDBPLACEHOLDER
  5
13
330
12
  0
DICTIONARY
  5
14
330
A
100
AcDbDictionary
281
1
  0
DICTIONARY
  5
15
330
A
100
AcDbDictionary
281
1
  0
DICTIONARY
  5
16
330
A
100
AcDbDictionary
281
1
  0
LAYOUT
  5
1A
330
D
100
AcDbPlotSettings
  1

  4
A3
  6

 40
7.5
 41
20.0
 42
7.5
 43
20.0
 44
420.0
 45
297.0
 46
0.0
 47
0.0
 48
0.0
 49
0.0
140
0.0
141
0.0
142
1.0
143
1.0
 70
1024
 72
1
 73
0
 74
5
  7

 75
16
 76
0
 77
2
 78
300
147
1.0
148
0.0
149
0.0
100
AcDbLayout
  1
Model
 70
1
 71
0
 10
0.0
 20
0.0
 11
420.0
 21
297.0
 12
0.0
 22
0.0
 32
0.0
 14
1e+20
 24
1e+20
 34
1e+20
 15
-1e+20
 25
-1e+20
 35
-1e+20
146
0.0
 13
0.0
 23
0.0
 33
0.0
 16
1.0
 26
0.0
 36
0.0
 17
0.0
 27
1.0
 37
0.0
 76
1
330
17
  0
LAYOUT
  5
1E
330
D
100
AcDbPlotSettings
  1

  4
A3
  6

 40
7.5
 41
20.0
 42
7.5
 43
20.0
 44
420.0
 45
297.0
 46
0.0
 47
0.0
 48
0.0
 49
0.0
140
0.0
141
0.0
142
1.0
143
1.0
 70
0
 72
1
 73
0
 74
5
  7

 75
16
 76
0
 77
2
 78
300
147
1.0
148
0.0
149
0.0
100
AcDbLayout
  1
Layout1
 70
1
 71
1
 10
0.0
 20
0.0
 11
420.0
 21
297.0
 12
0.0
 22
0.0
 32
0.0
 14
1e+20
 24
1e+20
 34
1e+20
 15
-1e+20
 25
-1e+20
 35
-1e+20
146
0.0
 13
0.0
 23
0.0
 33
0.0
 16
1.0
 26
0.0
 36
0.0
 17
0.0
 27
1.0
 37
0.0
 76
1
330
1B
  0
MATERIAL
  5
1F
102
{ACAD_REACTORS
330
E
102
}
330
E
100
AcDbMaterial
  1
ByBlock
  2

 70
0
 40
1.0
 71
1
 41
1.0
 91
-1023410177
 42
1.0
 72
1
  3

 73
1
 74
1
 75
1
 44
0.5
 73
0
 45
1.0
 46
1.0
 77
1
  4

 78
1
 79
1
170
1
 48
1.0
171
1
  6

172
1
173
1
174
1
140
1.0
141
1.0
175
1
  7

176
1
177
1
178
1
143
1.0
179
1
  8

270
1
271
1
272
1
145
1.0
146
1.0
273
1
  9

274
1
275
1
276
1
 42
1.0
 72
1
  3

 73
1
 74
1
 75
1
 94
63
  0
MATERIAL
  5
20
102
{ACAD_REACTORS
330
E
102
}
330
E
100
AcDbMaterial
  1
ByLayer
  2

 70
0
 40
1.0
 71
1
 41
1.0
 91
-1023410177
 42
1.0
 72
1
  3

 73
1
 74
1
 75
1
 44
0.5
 73
0
 45
1.0
 46
1.0
 77
1
  4

 78
1
 79
1
170
1
 48
1.0
171
1
  6

172
1
173
1
174
1
140
1.0
141
1.0
175
1
  7

176
1
177
1
178
1
143
1.0
179
1
  8

270
1
271
1
272
1
145
1.0
146
1.0
273
1
  9

274
1
275
1
276
1
 42
1.0
 72
1
  3

 73
1
 74
1
 75
1
 94
63
  0
MATERIAL
  5
21
102
{ACAD_REACTORS
330
E
102
}
330
E
100
AcDbMaterial
  1
Global
  2

 70
0
 40
1.0
 71
1
 41
1.0
 91
-1023410177
 42
1.0
 72
1
  3

 73
1
 74
1
 75
1
 44
0.5
 73
0
 45
1.0
 46
1.0
 77
1
  4

 78
1
 79
1
170
1
 48
1.0
171
1
  6

172
1
173
1
174
1
140
1.0
141
1.0
175
1
  7

176
1
177
1
178
1
143
1.0
179
1
  8

270
1
271
1
272
1
145
1.0
146
1.0
273
1
  9

274
1
275
1
276
1
 42
1.0
 72
1
  3

 73
1
 74
1
 75
1
 94
63
  0
MLINESTYLE
  5
22
102
{ACAD_REACTORS
330
10
102
}
330
10
100
AcDbMlineStyle
  2
Standard
 70
0
  3

 62
256
 51
90.0
 52
90.0
 71
2
 49
0.5
 62
256
  6
BYLAYER
 49
-0.5
 62
256
  6
BYLAYER
  0
MLEADERSTYLE
  5
2C
102
{ACAD_REACTORS
330
F
102
}
330
F
100
AcDbMLeaderStyle
179
2
170
2
171
1
172
0
 90
2
 40
0.0
 41
0.0
173
1
 91
-1056964608
 92
-2
290
1
 42
2.0
291
1
 43
8.0
  3
Standard
 44
4.0
300

342
29
174
1
175
1
176
0
178
1
 93
-1056964608
 45
4.0
292
0
297
0
 46
4.0
 94
-1056964608
 47
1.0
 49
1.0
140
1.0
294
1
141
0.0
177
0
142
1.0
295
0
296
0
143
3.75
271
0
272
9
273
9
  0
DICTIONARY
  5
2D
330
A
100
AcDbDictionary
280
1
281
1
  3
CREATED_BY_EZDXF
350
2E
  3
WRITTEN_BY_EZDXF
350
39C
  0
DICTIONARYVAR
  5
2E
330
2D
100
DictionaryVariables
280
0
  1
1.4.2 @ 2025-08-31T22:05:52.496929+00:00
  0
DICTIONARYVAR
  5
39C
330
2D
100
DictionaryVariables
280
0
  1
1.4.2 @ 2025-08-31T22:05:52.512283+00:00
  0
ENDSEC
  0
EOF
